<?xml version="1.0" standalone="no"?>
<!DOCTYPE svg PUBLIC "-//W3C//DTD SVG 1.1//EN" "http://www.w3.org/Graphics/SVG/1.1/DTD/svg11.dtd" >
<svg>
<metadata>
Created by FontForge 20120731 at Thu Jan 14 12:12:55 2016
 By ,,,
Copyright (c) 2000, 2001 Adobe Systems Incorporated. All Rights Reserved. U.S.Patent Des. 318,290.Adobe Garamond is either a registered trademark or a trademark of Adobe Systems Incorporated in the United States and/or other countries.
</metadata>
<defs>
<font id="AGaramondPro-Semibold" horiz-adv-x="380" >
  <font-face 
    font-family="Adobe Garamond Pro"
    font-weight="600"
    font-stretch="normal"
    units-per-em="1000"
    panose-1="2 2 6 2 6 5 6 2 4 3"
    ascent="725"
    descent="-275"
    x-height="397"
    cap-height="663"
    bbox="-177 -282 1123 893"
    underline-thickness="50"
    underline-position="-50"
    stemh="45"
    stemv="105"
    unicode-range="U+0020-FB04"
  />
<missing-glyph horiz-adv-x="500" 
d="M0 0v700h500v-700h-500zM250 395l170 255h-340zM280 350l170 -255v510zM80 50h340l-170 255zM50 605v-510l170 255z" />
    <glyph glyph-name="fi" unicode="fi" horiz-adv-x="539" 
d="M88 119v198c0 27 -1 30 -18 30h-36c-8 4 -10 17 -3 23l43 22c7 4 14 10 14 22v11c0 53 8 108 26 150c35 85 98 140 204 140c81 0 142 -42 142 -93c0 -33 -24 -52 -52 -52c-24 0 -32 9 -38 20c-33 63 -66 85 -92 85c-71 0 -85 -84 -85 -251v-8c0 -18 3 -22 25 -22h85
c90 0 148 14 151 14c6 0 11 -2 13 -8c-2 -31 -3 -79 -3 -120v-161c0 -74 4 -84 38 -90l18 -3c7 -7 6 -25 -2 -29c-37 2 -71 3 -108 3c-33 0 -67 -1 -98 -3c-9 4 -10 22 -3 29l12 2c34 6 38 17 38 91v150c0 75 -1 78 -52 78h-93c-19 0 -21 -2 -21 -31v-197
c0 -74 4 -86 39 -90l25 -3c7 -7 6 -25 -2 -29c-31 2 -70 3 -117 3c-32 0 -66 -1 -108 -3c-9 4 -10 22 -2 29l22 3c34 5 38 16 38 90z" />
    <glyph glyph-name="fl" unicode="fl" horiz-adv-x="539" 
d="M464 562v-443c0 -74 4 -85 38 -90l22 -3c7 -7 6 -25 -2 -29c-42 2 -75 3 -112 3c-33 0 -67 -1 -103 -3c-8 4 -9 22 -2 29l16 3c34 6 38 16 38 90v202c0 24 -2 26 -25 26h-120c-19 0 -21 -2 -21 -31v-197c0 -74 4 -86 39 -90l24 -3c7 -7 6 -25 -2 -29c-30 2 -69 3 -116 3
c-33 0 -65 -1 -108 -3c-8 4 -9 22 -2 29l22 3c34 5 38 16 38 90v198c0 27 -1 30 -18 30h-36c-8 4 -10 17 -3 23l43 22c7 4 14 10 14 22v18c0 43 4 87 25 143c30 80 102 140 199 140c38 0 68 -8 99 -26c17 11 30 18 42 26c6 1 12 -3 14 -8c-2 -40 -3 -102 -3 -145zM215 394
h119c23 0 25 2 25 22v190c0 38 -27 69 -67 69c-63 0 -99 -69 -99 -229v-20c0 -30 3 -32 22 -32z" />
    <glyph glyph-name="ff" unicode="ff" horiz-adv-x="572" 
d="M341 347h-127c-21 0 -21 -2 -21 -31v-197c0 -74 4 -83 39 -89l24 -4c7 -7 6 -25 -2 -29c-30 2 -69 3 -116 3c-33 0 -66 -1 -108 -3c-8 4 -9 22 -2 29l22 3c34 5 38 16 38 90v198c0 27 -1 30 -18 30h-36c-8 4 -10 17 -3 23l43 22c7 3 14 9 14 22v8c0 29 4 78 22 129
c29 80 95 140 196 140c55 0 90 -18 116 -40c31 37 84 64 142 64c70 0 115 -31 115 -72c0 -28 -25 -46 -47 -46c-13 0 -22 5 -27 12c-37 45 -59 65 -83 65c-34 0 -58 -64 -58 -218v-30c0 -31 1 -33 22 -33h105c4 -3 6 -9 6 -16c0 -16 -6 -25 -14 -30h-98
c-21 0 -21 -2 -21 -31v-197c0 -74 4 -85 39 -89l39 -4c7 -7 6 -25 -2 -29c-44 2 -83 3 -130 3c-33 0 -67 -1 -102 -3c-8 4 -9 22 -2 29l15 2c34 5 38 17 38 91v197c0 27 -1 31 -18 31zM193 442v-23c0 -24 1 -26 22 -26h130c13 0 14 8 14 21v18c0 42 5 91 21 142
c-10 39 -49 77 -92 77c-52 0 -95 -34 -95 -209z" />
    <glyph glyph-name="ffi" unicode="ffi" horiz-adv-x="810" 
d="M341 347h-127c-21 0 -21 -2 -21 -31v-197c0 -74 4 -83 39 -89l24 -4c7 -7 6 -25 -2 -29c-30 2 -69 3 -116 3c-33 0 -66 -1 -108 -3c-8 4 -9 22 -2 29l22 3c34 5 38 16 38 90v198c0 27 -1 30 -18 30h-36c-8 4 -10 17 -3 23l43 22c7 4 14 10 14 22v8c0 29 4 78 22 129
c29 80 95 140 196 140c55 0 91 -18 118 -40c38 37 86 64 165 64c81 0 142 -42 142 -93c0 -33 -24 -52 -52 -52c-24 0 -32 9 -38 20c-33 63 -66 85 -92 85c-71 0 -85 -84 -85 -251v-11c0 -15 3 -19 25 -19h85c90 0 148 14 151 14c6 0 11 -2 13 -8c-2 -31 -3 -79 -3 -120v-161
c0 -74 4 -84 38 -90l18 -3c7 -7 6 -25 -2 -29c-37 2 -71 3 -108 3c-33 0 -67 -1 -98 -3c-9 4 -10 22 -3 29l12 2c34 6 38 17 38 91v147c0 78 -1 81 -52 81h-93c-19 0 -21 -2 -21 -31v-197c0 -74 4 -85 39 -89l39 -4c7 -7 6 -25 -2 -29c-44 2 -83 3 -130 3
c-33 0 -67 -1 -102 -3c-8 4 -9 22 -2 29l15 2c34 5 38 17 38 91v198c0 27 -1 30 -18 30zM193 442v-23c0 -23 1 -25 22 -25h130c13 0 14 8 14 17v21c0 42 5 91 21 142c-10 39 -49 77 -92 77c-52 0 -95 -34 -95 -209z" />
    <glyph glyph-name="ffl" unicode="ffl" horiz-adv-x="810" 
d="M341 347h-127c-21 0 -21 -2 -21 -31v-197c0 -74 4 -83 39 -89l24 -4c7 -7 6 -25 -2 -29c-30 2 -69 3 -116 3c-33 0 -66 -1 -108 -3c-8 4 -9 22 -2 29l22 3c34 5 38 16 38 90v198c0 27 -1 30 -18 30h-36c-8 4 -10 17 -3 23l43 22c7 4 14 10 14 22v8c0 29 4 78 22 129
c29 80 95 140 196 140c55 0 90 -18 117 -40c37 36 93 64 158 64c40 0 70 -8 101 -26c17 11 30 18 42 26c6 1 12 -3 14 -8c-2 -40 -3 -102 -3 -145v-443c0 -74 4 -85 38 -90l22 -3c7 -7 6 -25 -2 -29c-42 2 -75 3 -112 3c-33 0 -67 -1 -103 -3c-8 4 -9 22 -2 29l16 3
c34 6 38 16 38 90v202c0 24 -2 26 -25 26h-120c-19 0 -21 -2 -21 -31v-197c0 -74 4 -86 39 -90l24 -3c7 -7 6 -25 -2 -29c-30 2 -69 3 -116 3c-33 0 -65 -1 -108 -3c-8 4 -9 22 -2 29l22 3c34 5 38 16 38 90v198c0 27 -1 30 -18 30zM193 442v-23c0 -23 1 -25 22 -25h130
c13 0 14 8 14 20v18c0 42 5 91 21 142c-10 39 -49 77 -92 77c-52 0 -95 -34 -95 -209zM486 394h119c23 0 25 2 25 22v190c0 38 -27 69 -67 69c-63 0 -99 -69 -99 -229v-20c0 -30 3 -32 22 -32z" />
    <glyph glyph-name="f_j" unicode="fj" horiz-adv-x="527" 
d="M88 119v198c0 27 -1 30 -18 30h-36c-8 4 -10 17 -3 23l43 22c7 4 14 10 14 22v11c0 53 8 108 26 150c35 85 98 140 204 140c81 0 142 -42 142 -93c0 -33 -24 -52 -52 -52c-24 0 -32 9 -38 20c-33 63 -66 85 -92 85c-71 0 -85 -84 -85 -251v-8c0 -18 3 -22 25 -22h85
c90 0 148 14 151 14c6 0 11 -2 13 -8c-2 -31 -3 -79 -3 -120v-161v-66c0 -69 -6 -122 -23 -161c-32 -75 -101 -128 -175 -161c-11 2 -17 15 -13 28c26 14 51 33 65 54c23 35 41 102 41 219v87v150c0 75 -1 78 -52 78h-93c-19 0 -21 -2 -21 -31v-197c0 -74 4 -86 39 -90
l25 -3c7 -7 6 -25 -2 -29c-31 2 -70 3 -117 3c-32 0 -66 -1 -108 -3c-9 4 -10 22 -2 29l22 3c34 5 38 16 38 90z" />
    <glyph glyph-name="f_f_j" unicode="ffj" horiz-adv-x="798" 
d="M341 347h-127c-21 0 -21 -2 -21 -31v-197c0 -74 4 -83 39 -89l24 -4c7 -7 6 -25 -2 -29c-30 2 -69 3 -116 3c-33 0 -66 -1 -108 -3c-8 4 -9 22 -2 29l22 3c34 5 38 16 38 90v198c0 27 -1 30 -18 30h-36c-8 4 -10 17 -3 23l43 22c7 4 14 10 14 22v8c0 29 4 78 22 129
c29 80 95 140 196 140c55 0 91 -18 118 -40c38 37 86 64 165 64c81 0 142 -42 142 -93c0 -33 -24 -52 -52 -52c-24 0 -32 9 -38 20c-33 63 -66 85 -92 85c-71 0 -85 -84 -85 -251v-11c0 -15 3 -19 25 -19h85c90 0 148 14 151 14c6 0 11 -2 13 -8c-2 -31 -3 -79 -3 -120v-161
v-66c0 -69 -6 -122 -23 -161c-32 -75 -101 -128 -175 -161c-11 2 -17 15 -13 28c26 14 51 33 65 54c23 35 41 102 41 219v87v147c0 78 -1 81 -52 81h-93c-19 0 -21 -2 -21 -31v-197c0 -74 4 -85 39 -89l39 -4c7 -7 6 -25 -2 -29c-44 2 -83 3 -130 3c-33 0 -67 -1 -102 -3
c-8 4 -9 22 -2 29l15 2c34 5 38 17 38 91v198c0 27 -1 30 -18 30zM193 442v-23c0 -23 1 -25 22 -25h130c13 0 14 8 14 17v21c0 42 5 91 21 142c-10 39 -49 77 -92 77c-52 0 -95 -34 -95 -209z" />
    <glyph glyph-name="T_h" unicode="Th" horiz-adv-x="1092" 
d="M296 144v432c0 42 -1 44 -27 44h-66c-92 0 -119 -11 -156 -92c-7 -6 -28 -3 -32 7c17 54 32 116 39 151c2 3 6 4 11 4c4 0 8 -1 10 -4c5 -25 19 -26 87 -26h408c62 0 73 6 77 14v8l94 33c6 1 12 -3 14 -8c-2 -40 -3 -102 -3 -145v-185c0 -12 2 -17 9 -17
c35 26 78 48 128 48c86 0 128 -55 128 -140v-149c0 -74 4 -86 38 -90l23 -3c9 -7 8 -25 -2 -29c-42 2 -76 3 -113 3c-33 0 -67 -1 -102 -3c-8 4 -9 22 -2 29l15 2c34 5 38 17 38 91v141c0 48 -21 88 -80 88c-33 0 -56 -16 -68 -29c-11 -12 -12 -27 -12 -66v-134
c0 -74 4 -86 38 -91l15 -2c7 -7 6 -25 -2 -29c-35 2 -69 3 -106 3c-32 0 -66 -1 -108 -3c-8 4 -9 22 -2 29l22 3c34 5 38 16 38 90v409c0 74 -17 92 -111 92h-97c-26 0 -27 -2 -27 -44v-432c0 -106 9 -109 56 -114l36 -4c7 -7 6 -25 -2 -29c-58 2 -103 3 -147 3
s-91 -1 -155 -3c-8 4 -9 24 -2 29l42 5c47 6 56 7 56 113z" />
    <glyph glyph-name="T_h.commaaccent" unicode="&#x162;h" horiz-adv-x="1092" 
d="M296 144v432c0 42 -1 44 -27 44h-66c-92 0 -119 -11 -156 -92c-7 -6 -28 -3 -32 7c17 54 32 116 39 151c2 3 6 4 11 4c4 0 8 -1 10 -4c5 -25 19 -26 87 -26h408c62 0 73 6 77 14v8l94 33c6 1 12 -3 14 -8c-2 -40 -3 -102 -3 -145v-185c0 -12 2 -17 9 -17
c35 26 78 48 128 48c86 0 128 -55 128 -140v-149c0 -74 4 -86 38 -90l23 -3c9 -7 8 -25 -2 -29c-42 2 -76 3 -113 3c-33 0 -67 -1 -102 -3c-8 4 -9 22 -2 29l15 2c34 5 38 17 38 91v141c0 48 -21 88 -80 88c-33 0 -56 -16 -68 -29c-11 -12 -12 -27 -12 -66v-134
c0 -74 4 -86 38 -91l15 -2c7 -7 6 -25 -2 -29c-35 2 -69 3 -106 3c-32 0 -66 -1 -108 -3c-8 4 -9 22 -2 29l22 3c34 5 38 16 38 90v409c0 74 -17 92 -111 92h-97c-26 0 -27 -2 -27 -44v-432c0 -106 9 -109 56 -114l36 -4c7 -7 6 -25 -2 -29c-58 2 -103 3 -147 3
s-91 -1 -155 -3c-8 4 -9 24 -2 29l42 5c47 6 56 7 56 113zM409 -125c0 -77 -55 -119 -116 -137c-12 4 -15 19 -9 30c28 9 70 39 70 73s-39 46 -47 50c-12 6 -18 16 -18 30c0 25 18 44 50 44c31 0 70 -29 70 -90z" />
    <glyph glyph-name="T_h.caron" unicode="&#x164;h" horiz-adv-x="1092" 
d="M296 144v432c0 42 -1 44 -27 44h-66c-92 0 -119 -11 -156 -92c-7 -6 -28 -3 -32 7c17 54 32 116 39 151c2 3 6 4 11 4c4 0 8 -1 10 -4c5 -25 19 -26 87 -26h408c62 0 73 6 77 14v8l94 33c6 1 12 -3 14 -8c-2 -40 -3 -102 -3 -145v-185c0 -12 2 -17 9 -17
c35 26 78 48 128 48c86 0 128 -55 128 -140v-149c0 -74 4 -86 38 -90l23 -3c9 -7 8 -25 -2 -29c-42 2 -76 3 -113 3c-33 0 -67 -1 -102 -3c-8 4 -9 22 -2 29l15 2c34 5 38 17 38 91v141c0 48 -21 88 -80 88c-33 0 -56 -16 -68 -29c-11 -12 -12 -27 -12 -66v-134
c0 -74 4 -86 38 -91l15 -2c7 -7 6 -25 -2 -29c-35 2 -69 3 -106 3c-32 0 -66 -1 -108 -3c-8 4 -9 22 -2 29l22 3c34 5 38 16 38 90v409c0 74 -17 92 -111 92h-97c-26 0 -27 -2 -27 -44v-432c0 -106 9 -109 56 -114l36 -4c7 -7 6 -25 -2 -29c-58 2 -103 3 -147 3
s-91 -1 -155 -3c-8 4 -9 24 -2 29l42 5c47 6 56 7 56 113zM507 848l-136 -127c-16 -15 -31 -14 -47 0l-137 127c0 10 9 24 17 24l125 -65c10 -5 25 -6 36 0l125 65c7 -1 17 -14 17 -24z" />
    <glyph glyph-name=".notdef" horiz-adv-x="500" 
d="M0 0v700h500v-700h-500zM250 395l170 255h-340zM280 350l170 -255v510zM80 50h340l-170 255zM50 605v-510l170 255z" />
    <glyph glyph-name="space" unicode=" " horiz-adv-x="245" 
 />
    <glyph glyph-name="space" unicode="&#xa0;" horiz-adv-x="245" 
 />
    <glyph glyph-name="exclam" unicode="!" horiz-adv-x="280" 
d="M140 -14c-38 0 -65 27 -65 64c0 35 27 62 65 62c37 0 64 -27 64 -62c0 -37 -27 -64 -64 -64zM197 540l-42 -335c-9 -7 -22 -8 -30 0l-42 335c-4 31 -6 52 -6 66c0 26 17 40 63 40s63 -14 63 -40c0 -14 -2 -35 -6 -66z" />
    <glyph glyph-name="quotedbl" unicode="&#x22;" horiz-adv-x="438" 
d="M139 700c33 0 51 -6 51 -28c0 -10 -1 -21 -6 -50l-30 -162c-9 -7 -21 -7 -30 0l-30 162c-5 29 -6 40 -6 50c0 22 18 28 51 28zM299 700c33 0 51 -6 51 -28c0 -10 -1 -21 -6 -50l-30 -162c-9 -7 -21 -7 -30 0l-30 162c-5 29 -6 40 -6 50c0 22 18 28 51 28z" />
    <glyph glyph-name="numbersign" unicode="#" horiz-adv-x="510" 
d="M290 244l42 158h-105l-42 -158h105zM26 244h107l42 158h-107l14 54h108l45 168h52l-45 -168h105l45 168h52l-45 -168h99l-11 -54h-103l-42 -158h96l-13 -54h-98l-50 -187h-51l50 187h-106l-50 -187h-51l50 187h-106z" />
    <glyph glyph-name="dollar" unicode="$" horiz-adv-x="510" 
d="M278 267l-24 -226c75 3 113 43 113 110c0 53 -31 90 -89 116zM251 393l21 195c-71 -3 -104 -48 -104 -97c0 -39 30 -73 83 -98zM324 704l-8 -77c45 -2 73 -12 110 -19c10 -25 18 -78 17 -119c-5 -6 -20 -7 -27 -3c-10 32 -37 86 -104 100l-23 -210l15 -6
c88 -35 165 -85 165 -188c-1 -107 -84 -176 -219 -181l-10 -93c-5 -9 -35 -9 -40 0l10 94c-72 2 -117 28 -136 37c-19 27 -33 85 -32 134c4 8 21 9 27 3c18 -45 61 -116 145 -132l26 240c-89 33 -165 82 -165 178c0 93 71 163 201 166l8 76c7 10 34 10 40 0z" />
    <glyph glyph-name="percent" unicode="%" horiz-adv-x="868" 
d="M660 374c112 0 157 -110 157 -194c0 -83 -45 -194 -157 -194s-157 111 -157 194c0 84 45 194 157 194zM660 340c-63 0 -73 -108 -73 -160s10 -160 73 -160s73 108 73 160s-10 160 -73 160zM208 640c112 0 157 -110 157 -194c0 -83 -45 -194 -157 -194s-157 111 -157 194
c0 84 45 194 157 194zM208 606c-63 0 -73 -108 -73 -160s10 -160 73 -160s73 108 73 160s-10 160 -73 160zM650 632l-406 -672c-16 -1 -30 9 -35 22l404 670c12 3 32 -8 37 -20z" />
    <glyph glyph-name="ampersand" unicode="&#x26;" horiz-adv-x="834" 
d="M309 640c89 0 145 -60 145 -129c0 -75 -60 -99 -94 -119c77 -50 115 -96 168 -178c32 43 67 111 96 175c17 38 21 48 -7 53l-29 5c-9 9 -7 24 3 28h55c51 0 145 4 168 6c7 -4 10 -20 2 -28l-46 -10c-52 -11 -73 -40 -107 -98c-24 -40 -60 -94 -104 -157
c-6 -9 -5 -18 2 -29c42 -66 88 -107 159 -107c28 0 60 12 81 27c10 -1 17 -11 14 -21c-49 -53 -121 -72 -171 -72c-47 0 -98 13 -117 32c-14 14 -35 45 -48 66c-66 -67 -130 -98 -207 -98c-144 0 -202 99 -202 179c0 104 78 163 153 202c-15 13 -70 53 -70 123
c0 90 73 150 156 150zM369 252c-47 52 -106 88 -111 88s-15 -6 -23 -12c-34 -24 -61 -75 -61 -125c0 -84 70 -143 157 -143c44 0 85 18 116 46c15 13 15 19 3 38c-24 38 -52 76 -81 108zM305 604c-35 0 -64 -31 -64 -77c0 -42 24 -72 68 -104c6 -4 14 -9 16 -9c3 0 8 4 10 5
c19 21 33 54 33 96c0 52 -25 89 -63 89z" />
    <glyph glyph-name="quoteright" unicode="&#x2019;" horiz-adv-x="248" 
d="M107 700c49 0 91 -48 91 -103c0 -76 -68 -132 -137 -149c-8 6 -10 18 -7 26c43 18 81 47 81 91c0 33 -30 49 -54 52c-15 2 -31 14 -31 36c0 17 12 47 57 47z" />
    <glyph glyph-name="parenleft" unicode="(" horiz-adv-x="320" 
d="M149 270c0 -138 39 -321 146 -416c1 -8 -7 -18 -15 -17c-142 87 -207 273 -207 433s65 346 207 433c8 1 16 -9 15 -17c-107 -95 -146 -278 -146 -416z" />
    <glyph glyph-name="parenright" unicode=")" horiz-adv-x="320" 
d="M171 270c0 138 -39 321 -146 416c-1 8 7 18 15 17c142 -87 207 -273 207 -433s-65 -346 -207 -433c-8 -1 -16 9 -15 17c107 95 146 278 146 416z" />
    <glyph glyph-name="asterisk" unicode="*" horiz-adv-x="420" 
d="M224 672l12 -127l124 60c9 -1 16 -15 12 -25l-113 -80l112 -78c4 -9 -2 -25 -14 -27l-121 63l-12 -127c-6 -5 -22 -5 -28 0l-12 127l-121 -63c-12 2 -18 18 -14 27l112 78l-113 80c-4 10 3 24 12 25l124 -60l12 127c6 5 21 5 28 0z" />
    <glyph glyph-name="plus" unicode="+" horiz-adv-x="510" 
d="M293 0h-75v174h-155v63h155v157h75v-157h155v-63h-155v-174z" />
    <glyph glyph-name="comma" unicode="," horiz-adv-x="255" 
d="M204 36c0 -87 -66 -138 -140 -160c-14 5 -18 17 -11 30c35 11 86 36 86 89c0 44 -48 55 -58 60c-14 7 -23 20 -23 37c0 29 23 53 62 53c38 0 84 -35 84 -109z" />
    <glyph glyph-name="hyphen" unicode="-" horiz-adv-x="320" 
d="M41 228l238 22c6 -6 9 -20 9 -33c0 -12 -3 -24 -9 -32l-238 -22c-6 6 -9 21 -9 32c0 13 3 23 9 33z" />
    <glyph glyph-name="hyphen" unicode="&#xad;" horiz-adv-x="320" 
d="M41 228l238 22c6 -6 9 -20 9 -33c0 -12 -3 -24 -9 -32l-238 -22c-6 6 -9 21 -9 32c0 13 3 23 9 33z" />
    <glyph glyph-name="period" unicode="." horiz-adv-x="255" 
d="M128 -14c-38 0 -66 29 -66 66s28 66 66 66c37 0 65 -29 65 -66s-28 -66 -65 -66z" />
    <glyph glyph-name="slash" unicode="/" horiz-adv-x="347" 
d="M317 676l-209 -692h-78l209 692h78z" />
    <glyph glyph-name="zero" unicode="0" horiz-adv-x="510" 
d="M255 640c154 0 215 -176 215 -327c0 -157 -61 -327 -215 -327s-215 170 -215 327c0 151 61 327 215 327zM255 600c-87 0 -97 -193 -97 -287s10 -287 97 -287s97 193 97 287s-10 287 -97 287z" />
    <glyph glyph-name="one" unicode="1" horiz-adv-x="510" 
d="M317 510v-374c0 -96 4 -97 64 -106l27 -4c7 -6 7 -26 -2 -29c-47 2 -94 3 -138 3c-51 0 -97 -1 -145 -3c-9 3 -9 23 -2 29l27 4c60 9 64 10 64 106v317c0 66 -3 90 -48 95l-48 5c-6 5 -6 20 -1 24c83 16 153 40 194 63c6 -1 10 -4 11 -9c-2 -21 -3 -81 -3 -121z" />
    <glyph glyph-name="two" unicode="2" horiz-adv-x="510" 
d="M216 86h117c72 0 89 8 120 63c7 4 21 2 25 -6c-14 -74 -34 -126 -49 -146c-39 2 -80 3 -126 3h-165c-56 0 -89 -1 -110 -3c-6 4 -9 10 -6 18c54 48 89 79 150 143c76 78 145 175 145 280c0 80 -46 138 -119 138c-57 0 -92 -36 -123 -88c-12 -2 -24 3 -26 15
c37 88 116 137 209 137c107 0 174 -72 174 -166c0 -64 -28 -128 -118 -223l-82 -86c-43 -45 -47 -58 -47 -65c0 -8 5 -14 31 -14z" />
    <glyph glyph-name="three" unicode="3" horiz-adv-x="510" 
d="M256 640c92 0 149 -49 149 -113c0 -41 -16 -82 -107 -127c-6 -7 -2 -14 12 -15c76 -7 145 -58 145 -157c0 -161 -173 -284 -323 -284c-47 0 -99 21 -99 65c0 26 20 47 47 47c28 0 47 -27 55 -37c18 -22 33 -32 55 -32c47 0 149 70 149 192c0 84 -42 152 -127 152
c-38 0 -74 -20 -97 -41c-16 2 -29 24 -22 41c65 29 198 67 198 169c0 56 -35 85 -78 85c-49 0 -89 -31 -123 -83c-10 -5 -20 4 -22 16c33 74 107 122 188 122z" />
    <glyph glyph-name="four" unicode="4" horiz-adv-x="510" 
d="M473 189h-62c-24 0 -25 -2 -25 -25v-45c0 -71 4 -86 38 -90l25 -3c7 -5 6 -25 -2 -29c-45 2 -79 3 -116 3c-53 0 -92 -1 -134 -3c-8 4 -9 22 -2 29l48 6c34 4 38 18 38 87v42c0 28 -1 28 -24 28h-229c-11 3 -18 17 -15 28l333 476c6 8 12 12 22 13h27c15 0 22 -6 12 -19
l-311 -431c-12 -17 2 -22 32 -22h125c27 0 28 1 28 27v165c0 15 1 21 12 27c10 6 63 25 78 25s15 -11 15 -31v-189c0 -23 0 -24 25 -24h62c10 -8 11 -37 0 -45z" />
    <glyph glyph-name="five" unicode="5" horiz-adv-x="510" 
d="M152 620l260 34c6 -1 9 -5 9 -9c-6 -27 -19 -59 -39 -82l-207 -27c-28 -4 -30 -6 -36 -28l-10 -36c-3 -11 1 -16 20 -19l70 -12c79 -14 224 -56 224 -213c0 -179 -214 -290 -375 -296c-12 6 -16 24 -7 34c141 17 284 88 284 226c0 141 -145 172 -256 175
c-21 1 -24 5 -17 31l54 195c4 16 10 25 26 27z" />
    <glyph glyph-name="six" unicode="6" horiz-adv-x="510" 
d="M481 197c-3 -126 -92 -211 -216 -211c-148 0 -226 112 -226 255c0 83 26 206 133 311c101 99 236 133 307 141c7 -4 9 -19 4 -27c-64 -22 -153 -55 -217 -125c-76 -83 -104 -197 -106 -285c-3 -124 38 -230 117 -230c67 0 94 62 94 127c0 97 -42 182 -115 182
c-14 0 -22 -2 -33 -6c-7 2 -10 12 -7 20c30 26 70 38 106 38c95 0 162 -78 159 -190z" />
    <glyph glyph-name="seven" unicode="7" horiz-adv-x="510" 
d="M167 626h189c55 0 119 0 131 3c4 -2 7 -5 7 -12c-24 -38 -56 -91 -98 -173l-260 -506c-17 -2 -42 6 -43 23l256 486c20 38 33 75 33 83c0 5 -6 10 -23 10h-203c-49 0 -83 -5 -104 -46c-7 -5 -22 -3 -25 7c15 47 25 90 34 128c20 -2 52 -3 106 -3z" />
    <glyph glyph-name="eight" unicode="8" horiz-adv-x="510" 
d="M264 640c99 0 178 -53 178 -151c0 -78 -66 -113 -111 -144c62 -34 131 -91 131 -186c0 -116 -102 -173 -211 -173c-98 0 -203 46 -203 161c0 77 61 123 132 163c-53 27 -114 82 -114 156c0 104 83 174 198 174zM256 26c54 0 99 38 99 98c0 78 -56 127 -140 168
c-47 -37 -71 -79 -71 -141c0 -75 47 -125 112 -125zM257 600c-60 0 -92 -48 -92 -102c0 -69 75 -104 131 -132c37 30 57 69 57 123c0 56 -34 111 -96 111z" />
    <glyph glyph-name="nine" unicode="9" horiz-adv-x="510" 
d="M40 437c4 126 101 203 208 203c71 0 127 -32 163 -78c37 -46 54 -110 52 -192c-3 -104 -42 -226 -160 -320c-80 -65 -178 -98 -243 -110c-9 4 -14 22 -7 30c59 19 108 47 142 73c80 62 143 161 147 344c3 115 -29 213 -103 213c-44 0 -86 -42 -89 -126
c-2 -80 39 -168 101 -168c16 0 25 2 33 4c8 -3 11 -14 8 -23c-26 -18 -57 -27 -95 -27c-85 0 -160 65 -157 177z" />
    <glyph glyph-name="colon" unicode=":" horiz-adv-x="255" 
d="M128 394c37 0 65 -29 65 -66s-28 -66 -65 -66c-38 0 -66 29 -66 66s28 66 66 66zM128 -14c-38 0 -66 29 -66 66s28 66 66 66c37 0 65 -29 65 -66s-28 -66 -65 -66z" />
    <glyph glyph-name="semicolon" unicode=";" horiz-adv-x="255" 
d="M204 36c0 -87 -66 -138 -140 -160c-14 5 -18 17 -11 30c35 11 86 36 86 89c0 44 -48 55 -58 60c-14 7 -23 20 -23 37c0 29 23 53 62 53c38 0 84 -35 84 -109zM128 394c37 0 65 -29 65 -66s-28 -66 -65 -66c-38 0 -66 29 -66 66s28 66 66 66z" />
    <glyph glyph-name="less" unicode="&#x3c;" horiz-adv-x="510" 
d="M61 229l389 185v-75l-297 -131v-2l297 -132v-74l-389 184v45z" />
    <glyph glyph-name="equal" unicode="=" horiz-adv-x="510" 
d="M448 312v-63h-385v63h385zM448 162v-63h-385v63h385z" />
    <glyph glyph-name="greater" unicode="&#x3e;" horiz-adv-x="510" 
d="M61 414l389 -185v-45l-389 -184v74l297 132v2l-297 131v75z" />
    <glyph glyph-name="question" unicode="?" horiz-adv-x="330" 
d="M101 646c105 0 185 -119 185 -209c0 -54 -26 -89 -64 -107l-54 -26c-34 -16 -47 -31 -47 -50c0 -16 2 -31 9 -50c-5 -9 -19 -13 -28 -6c-16 23 -43 71 -43 110c0 45 36 69 69 84l56 25c44 20 49 45 49 58c0 56 -59 70 -141 70c-13 0 -47 14 -47 51c0 29 22 50 56 50z
M127 -14c-38 0 -66 29 -66 66s28 66 66 66c37 0 65 -29 65 -66s-28 -66 -65 -66z" />
    <glyph glyph-name="at" unicode="@" horiz-adv-x="781" 
d="M448 517c-191 0 -312 -167 -312 -346c0 -116 61 -271 281 -271c75 0 126 20 158 33c8 -4 11 -15 9 -22c-60 -33 -137 -46 -195 -46c-170 0 -337 99 -337 312c0 233 190 379 396 379c190 0 293 -128 293 -270c0 -130 -96 -230 -251 -230c-66 0 -73 19 -73 28
c0 5 2 18 7 33l24 54l-2 1c-60 -62 -148 -116 -190 -116c-30 0 -44 22 -44 44c0 19 18 82 77 155c47 58 119 125 202 125c14 0 31 -8 36 -22l24 51c18 6 42 -2 56 -12c-12 -30 -100 -234 -115 -271c-9 -24 -5 -32 16 -34c90 -9 186 73 186 190c0 147 -109 235 -246 235z
M299 118c0 -10 2 -14 6 -14c6 0 32 6 80 49c49 44 106 132 117 163c-5 15 -20 27 -41 27c-20 0 -36 -7 -60 -28c-53 -47 -102 -147 -102 -197z" />
    <glyph glyph-name="A" unicode="A" horiz-adv-x="627" 
d="M341 245h-133c-26 0 -25 0 -34 -27l-41 -120c-20 -59 -16 -61 21 -67l29 -5c7 -7 6 -25 -2 -29c-32 2 -65 2 -106 3c-33 0 -64 -1 -99 -3c-7 5 -8 20 -1 29l30 5c29 5 40 13 55 46c12 26 28 68 49 122l137 356c12 32 22 56 19 73c35 7 68 48 70 48c8 0 13 -3 17 -8
c16 -45 29 -92 45 -137l144 -419c23 -67 28 -73 79 -83l15 -3c8 -7 8 -24 1 -29c-41 2 -78 3 -130 3c-43 0 -87 -2 -122 -3c-8 5 -9 23 -3 29l22 3c36 5 41 11 26 53l-47 136c-9 27 -13 27 -41 27zM224 290h104c28 0 32 2 24 26l-42 120c-18 53 -23 72 -28 79h-2
c-4 -7 -13 -32 -30 -79l-42 -117c-10 -29 -8 -29 16 -29z" />
    <glyph glyph-name="B" unicode="B" horiz-adv-x="627" 
d="M119 144v366c0 96 -1 108 -48 113l-26 3c-7 7 -7 23 1 28c45 4 118 9 228 9c84 0 151 -8 196 -34c46 -27 70 -67 70 -130c0 -59 -43 -104 -113 -127c-4 -1 -6 -4 -6 -6s2 -4 8 -6c76 -12 161 -61 161 -174c0 -46 -15 -96 -61 -133c-47 -39 -113 -56 -227 -56
c-44 0 -86 3 -124 3c-44 0 -91 -1 -135 -3c-8 4 -9 22 -2 29l22 3c47 6 56 9 56 115zM235 309v-144c0 -91 10 -128 97 -128c69 0 130 45 130 134c0 103 -70 164 -181 164c-44 0 -46 -6 -46 -26zM235 581v-181c0 -26 3 -27 43 -27c94 0 137 37 137 127c0 88 -65 123 -127 123
c-50 0 -53 -2 -53 -42z" />
    <glyph glyph-name="C" unicode="C" horiz-adv-x="694" 
d="M645 648c2 -23 4 -82 14 -156c-7 -8 -25 -9 -32 -2c-17 63 -62 146 -194 146c-127 0 -255 -90 -255 -295c0 -213 133 -317 262 -317c126 0 181 84 209 149c9 9 25 5 30 -4c-7 -67 -34 -133 -48 -152c-12 -2 -24 -6 -35 -9c-22 -7 -91 -24 -156 -24c-99 0 -184 20 -256 67
c-81 53 -142 144 -142 275c0 117 52 208 126 265c74 56 175 85 276 85c57 0 126 -10 173 -22c12 -3 19 -4 28 -6z" />
    <glyph glyph-name="D" unicode="D" horiz-adv-x="784" 
d="M119 144v366c0 96 -1 110 -48 114l-21 2c-7 5 -7 23 1 28c72 6 152 9 250 9c95 0 163 -8 236 -34c120 -44 205 -150 205 -299c0 -111 -55 -225 -179 -288c-71 -36 -157 -48 -248 -48c-61 0 -108 6 -145 6c-38 0 -83 -1 -127 -3c-8 4 -9 22 -2 29l22 3c47 6 56 9 56 115z
M235 535v-352c0 -97 7 -149 113 -149c178 0 258 126 258 295c0 198 -115 294 -282 294c-42 0 -74 -8 -81 -14s-8 -27 -8 -74z" />
    <glyph glyph-name="E" unicode="E" horiz-adv-x="580" 
d="M119 144v372c0 106 -9 110 -56 116l-16 2c-7 7 -6 25 2 29c38 -2 85 -3 129 -3h191c64 0 122 1 135 3c4 -17 10 -96 16 -139c-4 -8 -24 -10 -32 -4c-16 58 -31 82 -63 91c-23 6 -53 9 -80 9h-67c-43 0 -43 -2 -43 -59v-169c0 -26 1 -27 24 -27h48c87 0 102 1 111 44l7 34
c8 7 27 7 32 -1c-1 -27 -3 -63 -3 -100c0 -38 2 -73 3 -105c-5 -7 -24 -7 -32 -1l-7 40c-7 42 -24 44 -111 44h-48c-23 0 -24 -2 -24 -27v-127c0 -51 2 -87 17 -104c12 -14 29 -21 113 -22c127 -1 149 27 184 108c9 7 26 4 32 -6c-6 -42 -28 -118 -42 -145
c-44 2 -130 3 -247 3h-114c-44 0 -105 -1 -150 -3c-8 4 -9 22 -2 29l37 4c47 5 56 8 56 114z" />
    <glyph glyph-name="F" unicode="F" horiz-adv-x="533" 
d="M176 660h189c64 0 120 1 141 3c0 -22 0 -97 2 -144c-4 -8 -22 -10 -32 -4c-10 58 -26 87 -64 97c-27 7 -52 8 -84 8h-51c-42 0 -42 -2 -42 -58v-179c0 -25 1 -27 24 -27h59c87 0 102 2 112 44l8 34c6 7 25 7 30 -1c-1 -26 -3 -63 -3 -100s2 -73 3 -104
c-5 -8 -24 -8 -30 -1l-8 39c-9 42 -25 44 -112 44h-59c-23 0 -24 -2 -24 -27v-140c0 -106 9 -107 56 -113l42 -5c7 -7 6 -25 -2 -29c-64 2 -109 3 -153 3s-89 -1 -135 -3c-8 4 -9 22 -2 29l22 3c47 6 56 9 56 115v372c0 106 -9 109 -56 116l-13 2c-7 7 -6 25 2 29
c35 -2 80 -3 124 -3z" />
    <glyph glyph-name="G" unicode="G" horiz-adv-x="743" 
d="M657 162v-58c0 -35 5 -61 24 -70c3 -4 3 -12 -1 -15c-11 0 -29 -4 -48 -8c-62 -15 -137 -27 -194 -27c-120 0 -233 32 -308 110c-59 61 -88 145 -88 229s29 170 92 235c71 75 180 118 319 118c47 0 98 -8 133 -15c23 -5 52 -9 64 -9c1 -30 8 -81 13 -159
c-5 -10 -27 -11 -32 -2c-22 97 -93 145 -192 145c-176 0 -261 -127 -261 -297c0 -80 18 -166 72 -230s134 -85 193 -85c48 0 77 8 89 23c6 9 9 27 9 63v36c0 71 -1 77 -68 88l-36 6c-7 7 -7 24 1 29c39 -2 87 -3 156 -3c45 0 79 1 122 3c10 -5 11 -22 2 -29l-18 -3
c-37 -6 -43 -14 -43 -75z" />
    <glyph glyph-name="H" unicode="H" horiz-adv-x="812" 
d="M523 320h-234c-51 0 -54 -2 -54 -29v-147c0 -106 9 -108 56 -114l30 -4c7 -7 6 -25 -2 -29c-52 2 -97 3 -141 3s-89 -1 -127 -3c-8 4 -9 22 -2 29l14 2c47 7 56 10 56 116v372c0 106 -9 109 -56 115l-22 3c-7 5 -6 25 2 29c44 -2 91 -3 135 -3s89 1 128 3
c8 -4 9 -24 2 -29l-17 -3c-47 -8 -56 -9 -56 -115v-121c0 -28 3 -30 54 -30h234c51 0 54 2 54 30v121c0 106 -9 109 -56 115l-22 3c-7 5 -6 25 2 29c46 -2 91 -3 135 -3s89 1 129 3c8 -4 9 -24 2 -29l-18 -3c-47 -8 -56 -9 -56 -115v-372c0 -106 9 -109 56 -115l22 -3
c7 -7 6 -25 -2 -29c-44 2 -89 3 -133 3c-46 0 -91 -1 -135 -3c-8 4 -9 22 -2 29l22 3c47 6 56 9 56 115v147c0 27 -3 29 -54 29z" />
    <glyph glyph-name="I" unicode="I" horiz-adv-x="354" 
d="M235 516v-372c0 -106 9 -109 56 -115l22 -3c7 -7 6 -25 -2 -29c-44 2 -89 3 -133 3s-91 -1 -135 -3c-8 4 -9 22 -2 29l22 3c47 6 56 9 56 115v372c0 106 -9 109 -56 115l-22 3c-7 7 -6 25 2 29c44 -2 89 -3 135 -3c44 0 89 1 133 3c8 -4 9 -22 2 -29l-22 -3
c-47 -6 -56 -9 -56 -115z" />
    <glyph glyph-name="J" unicode="J" horiz-adv-x="354" 
d="M251 514v-377c0 -79 -4 -148 -22 -193c-32 -79 -105 -145 -219 -145c-24 0 -53 6 -53 33c0 19 17 60 46 60c14 0 29 -9 45 -19c25 -16 34 -18 43 -18c24 0 33 58 35 79c2 17 9 90 9 196v384c0 107 -9 109 -57 116l-29 4c-7 5 -6 25 2 29c52 -2 97 -3 142 -3s87 1 124 3
c8 -4 9 -24 2 -29l-14 -2c-45 -6 -54 -11 -54 -118z" />
    <glyph glyph-name="K" unicode="K" horiz-adv-x="684" 
d="M235 516v-111c0 -27 1 -45 17 -45c19 0 42 23 75 59l102 110c13 13 42 46 54 62c18 23 19 31 7 34l-31 9c-8 7 -6 21 2 29c42 -2 75 -3 112 -3c43 0 74 2 110 3c11 -3 13 -24 3 -29c-93 -13 -120 -37 -189 -104c-43 -43 -83 -84 -122 -123c-12 -12 -14 -18 -3 -33
c79 -104 174 -223 246 -307c21 -25 44 -34 74 -38l24 -3c7 -5 6 -26 -2 -29c-35 2 -75 3 -128 3c-49 0 -94 -1 -138 -3c-11 4 -11 24 -2 29l27 4c16 2 18 13 7 27c-42 52 -161 214 -198 252c-7 7 -15 15 -24 15c-25 0 -23 -24 -23 -53v-127c0 -106 9 -109 56 -115l25 -3
c7 -5 6 -25 -2 -29c-47 2 -92 3 -136 3s-91 -1 -127 -3c-8 4 -9 24 -2 29l14 2c47 7 56 10 56 116v372c0 106 -9 108 -56 115l-19 3c-7 7 -6 25 2 29c41 -2 86 -3 132 -3c44 0 89 1 128 3c8 -4 9 -24 2 -29l-17 -3c-47 -8 -56 -9 -56 -115z" />
    <glyph glyph-name="L" unicode="L" horiz-adv-x="560" 
d="M235 516v-351c0 -50 2 -86 17 -103c12 -14 28 -22 108 -22c111 0 127 5 173 108c10 5 26 2 31 -6c-8 -42 -30 -118 -42 -145c-42 2 -128 3 -240 3h-104c-51 0 -101 -1 -143 -3c-8 4 -11 24 -2 29l30 5c47 8 56 9 56 113v372c0 104 -9 107 -56 114l-28 4c-7 5 -7 25 2 29
c50 -2 95 -3 141 -3c44 0 89 1 133 3c9 -4 10 -24 2 -29l-22 -4c-47 -8 -56 -10 -56 -114z" />
    <glyph glyph-name="M" unicode="M" horiz-adv-x="921" 
d="M847 31l29 -5c10 -4 9 -25 -2 -29c-43 2 -82 3 -122 3c-47 0 -90 -1 -134 -3c-8 4 -12 23 -2 29l27 5c40 7 43 14 43 82v409h-2c-27 -55 -41 -85 -60 -125l-86 -176c-34 -70 -84 -181 -102 -228c-4 -4 -19 -4 -26 0c-17 54 -60 152 -83 202l-89 192
c-19 42 -46 105 -58 135h-2c-2 -49 -4 -127 -6 -169c-2 -61 -4 -150 -4 -232c0 -66 1 -81 44 -89l33 -6c7 -6 7 -25 -1 -29c-37 2 -68 3 -105 3c-32 0 -68 -1 -107 -3c-9 5 -9 24 -3 29l17 2c48 6 55 21 62 82c7 63 10 128 15 232c4 68 10 151 10 212c0 47 -15 67 -54 74
l-34 6c-6 7 -5 26 4 29c30 -2 57 -3 94 -3c35 0 70 0 107 3c4 -60 29 -112 55 -166l110 -231c8 -17 34 -67 47 -90c16 29 29 57 52 104l94 192c32 66 64 125 81 191c27 -2 60 -3 82 -3c42 0 77 1 105 3c11 -4 13 -23 3 -29l-33 -5c-44 -7 -54 -23 -54 -76
c0 -148 2 -296 9 -444c3 -67 14 -73 46 -78z" />
    <glyph glyph-name="N" unicode="N" horiz-adv-x="780" 
d="M669 409v-239c0 -30 0 -153 3 -176c-8 -11 -22 -15 -34 -14c-16 21 -45 55 -117 137l-234 267c-64 74 -97 111 -114 126c-3 0 -3 -11 -3 -64v-195c0 -75 1 -167 18 -197c9 -15 26 -22 51 -25l22 -3c9 -7 8 -26 -2 -29c-37 2 -76 3 -114 3c-42 0 -69 -1 -104 -3
c-8 5 -10 22 -2 29l22 5c19 4 37 7 44 23c13 31 13 118 13 197v237c0 78 1 94 -33 123c-11 9 -39 17 -53 20l-15 3c-7 6 -6 26 4 29c38 -4 93 -3 118 -3c21 0 45 1 69 3c17 -43 126 -169 161 -207l100 -108c42 -46 135 -152 145 -158c3 3 3 8 3 24v195c0 75 -1 167 -19 197
c-9 15 -25 22 -50 25l-23 3c-9 7 -8 26 2 29c39 -2 76 -3 115 -3c43 0 69 1 105 3c8 -5 10 -22 2 -29l-23 -5c-19 -4 -36 -7 -43 -23c-14 -31 -14 -118 -14 -197z" />
    <glyph glyph-name="O" unicode="O" horiz-adv-x="792" 
d="M400 676c231 0 350 -166 350 -348c0 -197 -150 -344 -352 -344c-226 0 -356 159 -356 337c0 204 148 355 358 355zM387 636c-100 0 -209 -73 -209 -286c0 -138 59 -326 230 -326c114 0 206 85 206 286c0 151 -68 326 -227 326z" />
    <glyph glyph-name="P" unicode="P" horiz-adv-x="588" 
d="M119 144v366c0 91 -1 107 -43 112l-35 4c-7 7 -7 24 1 28c70 8 130 9 221 9c95 0 164 -14 209 -40c52 -31 85 -84 85 -150c0 -152 -145 -194 -224 -194c-9 0 -17 0 -25 1c-7 6 -8 19 -3 25c91 18 124 84 124 166c0 81 -52 152 -143 152c-50 0 -51 -3 -51 -42v-437
c0 -106 9 -109 56 -114l37 -4c6 -7 5 -25 -2 -29c-59 2 -104 3 -148 3s-89 -1 -129 -3c-8 4 -9 22 -2 29l16 2c47 6 56 10 56 116z" />
    <glyph glyph-name="Q" unicode="Q" horiz-adv-x="792" 
d="M400 676c231 0 350 -168 350 -348c0 -156 -94 -281 -226 -323c-6 -4 -2 -12 9 -21c57 -50 146 -129 221 -151c24 -7 48 -11 72 -11c20 0 37 5 50 10c6 -3 9 -14 6 -20c-30 -23 -82 -31 -125 -31c-134 0 -272 80 -370 184c-18 18 -25 21 -37 22c-182 15 -308 163 -308 334
c0 204 148 355 358 355zM387 636c-100 0 -209 -73 -209 -286c0 -138 59 -326 230 -326c114 0 206 85 206 286c0 151 -68 326 -227 326z" />
    <glyph glyph-name="R" unicode="R" horiz-adv-x="656" 
d="M119 144v366c0 96 -1 108 -48 113l-26 3c-7 7 -7 23 1 28c63 6 148 9 230 9c78 0 146 -10 190 -34c51 -27 88 -74 88 -146c0 -92 -71 -138 -120 -158c-6 -3 -4 -11 0 -17c80 -135 130 -220 177 -259c28 -24 57 -30 69 -31c5 -4 5 -15 2 -20c-12 -3 -31 -6 -66 -6
c-96 0 -148 39 -209 132c-27 42 -55 97 -79 136c-18 30 -29 34 -62 34c-30 0 -31 -1 -31 -22v-128c0 -106 9 -109 56 -115l22 -3c7 -7 6 -25 -2 -29c-44 2 -89 3 -133 3s-89 -1 -135 -3c-8 4 -11 22 -2 29l22 3c47 6 56 9 56 115zM235 574v-208c0 -32 0 -34 48 -34
c98 0 143 48 143 143c0 79 -51 148 -138 148c-52 0 -53 -3 -53 -49z" />
    <glyph glyph-name="S" unicode="S" horiz-adv-x="504" 
d="M231 -16c-92 0 -144 30 -164 42c-18 21 -31 90 -30 152c6 10 23 11 31 4c18 -51 72 -158 170 -158c76 0 119 46 119 107c0 57 -27 103 -102 145l-43 24c-75 42 -141 103 -141 193c0 99 74 183 220 183c52 0 90 -12 137 -21c11 -22 21 -88 21 -135c-5 -9 -23 -10 -32 -3
c-15 52 -50 119 -135 119c-80 0 -113 -52 -113 -105c0 -42 29 -87 95 -122l62 -33c65 -34 137 -96 137 -197c0 -114 -87 -195 -232 -195z" />
    <glyph glyph-name="T" unicode="T" horiz-adv-x="682" 
d="M286 144v432c0 42 -1 44 -27 44h-56c-92 0 -119 -11 -156 -92c-7 -6 -28 -3 -32 7c17 54 32 116 39 151c2 3 6 4 11 4c4 0 8 -1 10 -4c5 -25 19 -26 87 -26h408c49 0 64 3 76 26c4 2 8 4 12 4c6 0 11 -2 13 -5c-10 -41 -18 -127 -15 -159c-5 -8 -22 -10 -31 -3
c-13 78 -32 97 -139 97h-57c-26 0 -27 -2 -27 -44v-432c0 -106 9 -109 56 -114l36 -4c7 -7 6 -25 -2 -29c-58 2 -103 3 -147 3s-91 -1 -155 -3c-8 4 -9 24 -2 29l42 5c47 6 56 7 56 113z" />
    <glyph glyph-name="U" unicode="U" horiz-adv-x="744" 
d="M113 262v254c0 106 -9 108 -56 116l-17 3c-7 7 -6 24 2 28c40 -2 85 -3 129 -3c45 0 90 1 134 3c8 -4 9 -21 2 -28l-22 -3c-47 -6 -56 -10 -56 -116v-229c0 -138 42 -254 181 -254c131 0 185 99 185 251v125c0 75 -1 168 -19 197c-9 15 -25 22 -50 26l-20 3
c-9 7 -8 25 2 28c34 -2 72 -3 111 -3c42 0 69 1 106 3c8 -5 10 -21 2 -28l-22 -5c-19 -4 -37 -8 -44 -24c-14 -30 -14 -118 -14 -197v-119c0 -91 -14 -175 -66 -231s-127 -75 -196 -75c-94 0 -160 20 -206 64c-45 43 -66 113 -66 214z" />
    <glyph glyph-name="V" unicode="V" horiz-adv-x="650" 
d="M505 372l-56 -124c-41 -91 -87 -208 -104 -259c-2 -3 -10 -5 -17 -5s-14 2 -19 5c-12 40 -28 89 -46 131l-175 421c-28 67 -37 81 -77 89l-24 5c-7 7 -7 25 3 28c39 -2 82 -3 121 -3c45 0 79 1 132 3c9 -6 10 -22 1 -29l-25 -6c-22 -5 -30 -10 -30 -18
c0 -9 8 -31 49 -133l72 -178c18 -45 45 -104 55 -127c54 126 114 264 167 400c16 40 13 48 -17 55l-29 7c-7 8 -6 24 2 29c41 -2 75 -3 107 -3c36 0 69 1 97 3c8 -5 7 -21 2 -29l-25 -5c-23 -5 -45 -12 -62 -41c-28 -48 -56 -115 -102 -216z" />
    <glyph glyph-name="W" unicode="W" horiz-adv-x="968" 
d="M1016 635l-24 -5c-46 -10 -61 -31 -98 -113c-76 -169 -141 -306 -197 -446c-15 -37 -23 -64 -32 -83c-3 -2 -10 -4 -17 -4s-14 1 -18 4c-21 62 -84 191 -124 277c-45 -91 -89 -183 -127 -277c-3 -2 -10 -4 -17 -4s-14 1 -18 4c-16 45 -41 99 -70 160l-193 409
c-21 45 -31 61 -72 71l-28 7c-7 6 -6 23 3 28c36 -2 78 -3 121 -3c36 0 74 1 122 3c8 -5 9 -22 3 -28l-25 -6c-13 -3 -23 -7 -23 -16s7 -29 24 -67l119 -258c35 -76 60 -128 70 -144c21 40 43 87 67 139c7 15 14 32 14 38c0 5 -3 17 -9 30l-105 222c-19 40 -31 50 -58 56
l-29 6c-7 7 -6 23 3 28c41 -2 74 -3 108 -3c40 0 79 1 119 3c8 -4 9 -22 2 -28l-27 -6c-11 -2 -17 -7 -17 -14c0 -6 2 -17 9 -33c22 -50 45 -101 68 -146c17 34 33 71 49 108c15 35 22 60 22 69c0 7 -6 12 -20 15l-28 7c-7 8 -5 24 3 28c27 -2 55 -3 93 -3c35 0 59 1 91 3
c10 -5 10 -23 2 -29l-25 -5c-37 -7 -47 -19 -79 -78c-22 -40 -47 -94 -69 -139c-5 -11 -10 -25 -10 -28s3 -12 8 -24l43 -93c21 -45 47 -106 56 -123c51 119 105 251 158 378c17 41 31 80 31 93c0 7 -18 10 -34 15l-17 5c-9 7 -9 23 1 28c37 -2 68 -3 102 -3s65 1 96 3
c8 -5 10 -19 3 -28z" />
    <glyph glyph-name="X" unicode="X" horiz-adv-x="648" 
d="M29 627l-32 7c-8 8 -6 25 3 29c45 -2 84 -3 130 -3c53 0 97 1 125 3c9 -4 9 -22 2 -29l-19 -2c-20 -2 -33 -6 -33 -13c0 -8 5 -19 25 -50c25 -38 92 -140 114 -168c24 28 109 155 132 189c8 12 12 20 13 26c-2 7 -14 9 -30 13l-22 5c-9 7 -9 23 2 29c39 -2 71 -3 105 -3
s61 1 97 3c9 -5 10 -20 3 -29l-29 -6c-40 -8 -56 -23 -100 -77c-39 -48 -85 -107 -122 -163c-11 -16 -15 -25 -15 -29c0 -5 3 -14 16 -34c60 -87 122 -179 168 -239c28 -38 50 -50 89 -56l25 -4c7 -6 7 -24 -2 -29c-48 2 -91 3 -141 3c-49 0 -92 -1 -142 -3
c-8 4 -11 23 -2 29l36 7c13 3 21 6 21 13s-7 22 -29 55l-17 25c-25 36 -55 84 -97 143c-41 -54 -98 -137 -136 -198c-9 -14 -13 -22 -13 -29s12 -10 26 -12l26 -4c8 -7 7 -26 -2 -29c-34 2 -75 3 -116 3c-34 0 -67 -1 -99 -3c-9 7 -9 21 -4 29l27 5c43 8 66 21 105 70
c22 29 86 115 138 182c9 12 15 24 15 29s-2 12 -11 25c-47 67 -111 168 -149 222c-30 43 -50 61 -81 68z" />
    <glyph glyph-name="Y" unicode="Y" horiz-adv-x="590" 
d="M241 144v59c0 56 -5 71 -32 124l-120 237c-22 43 -30 54 -75 64l-26 6c-6 7 -4 26 4 29c43 -2 85 -3 126 -3c44 0 105 1 128 3c8 -4 10 -22 2 -29l-30 -5c-16 -3 -21 -5 -21 -13s3 -19 18 -52c39 -86 76 -167 116 -240c41 76 78 146 117 221c17 34 27 56 27 67
c0 10 -9 13 -23 15l-30 7c-7 7 -7 24 3 29c44 -2 75 -3 105 -3c31 0 63 1 95 3c9 -5 9 -21 2 -29l-29 -6c-45 -9 -57 -27 -109 -115c-34 -57 -64 -112 -95 -168c-30 -52 -37 -73 -37 -141v-60c0 -106 9 -109 58 -114l38 -4c7 -7 6 -25 -2 -29c-62 2 -107 3 -151 3
c-46 0 -91 -1 -145 -3c-8 4 -9 22 -2 29l32 4c47 6 56 8 56 114z" />
    <glyph glyph-name="Z" unicode="Z" horiz-adv-x="638" 
d="M213 660h264c67 0 97 2 113 4c7 -2 10 -9 9 -16c-24 -23 -98 -133 -153 -216l-162 -244c-16 -25 -80 -119 -80 -131c0 -11 14 -14 32 -15c20 -1 43 -2 116 -2c92 0 142 5 173 23c28 17 52 52 73 106c9 6 29 2 32 -8c-9 -66 -31 -139 -48 -164c-55 2 -114 3 -185 3h-260
c-55 0 -87 -1 -105 -3c-5 2 -8 9 -6 15c15 19 70 89 114 155l220 332c40 61 69 105 69 114c0 7 -15 7 -34 7h-121c-76 0 -123 -9 -148 -34c-20 -20 -36 -51 -46 -76c-10 -7 -28 -3 -32 7c15 58 32 113 43 168c4 4 13 4 17 0c7 -23 26 -25 105 -25z" />
    <glyph glyph-name="bracketleft" unicode="[" horiz-adv-x="320" 
d="M101 -152v840c28 1 50 1 73 1c55 0 102 -2 118 -4c6 -6 6 -19 0 -24l-89 -11c-36 -4 -38 -6 -38 -165v-434c0 -159 2 -161 38 -165l89 -11c6 -5 6 -18 0 -24c-16 -2 -63 -4 -118 -4c-23 0 -45 0 -73 1z" />
    <glyph glyph-name="backslash" unicode="\" horiz-adv-x="329" 
d="M108 676l191 -692h-78l-191 692h78z" />
    <glyph glyph-name="bracketright" unicode="]" horiz-adv-x="320" 
d="M219 688v-840c-28 -1 -50 -1 -73 -1c-55 0 -102 2 -118 4c-6 6 -6 19 0 24l89 11c36 4 38 6 38 165v434c0 159 -2 161 -38 165l-89 11c-6 5 -6 18 0 24c16 2 63 4 118 4c23 0 45 0 73 -1z" />
    <glyph glyph-name="asciicircum" unicode="^" horiz-adv-x="510" 
d="M456 244h-76l-124 289l-124 -289h-77l171 382h60z" />
    <glyph glyph-name="underscore" unicode="_" horiz-adv-x="500" 
d="M500 -75v-50h-500v50h500z" />
    <glyph glyph-name="quoteleft" unicode="&#x2018;" horiz-adv-x="248" 
d="M141 453c-49 0 -91 48 -91 103c0 76 68 132 137 149c8 -6 10 -18 7 -26c-43 -18 -81 -47 -81 -91c0 -33 30 -49 54 -52c15 -2 31 -14 31 -36c0 -17 -12 -47 -57 -47z" />
    <glyph glyph-name="a" unicode="a" horiz-adv-x="420" 
d="M350 283l-7 -156c-3 -58 12 -88 48 -88c17 0 31 11 34 11c5 0 12 -11 9 -20c-20 -28 -69 -44 -100 -44c-25 0 -53 7 -72 28c-7 7 -11 12 -16 12s-12 -5 -27 -14c-19 -12 -49 -26 -85 -26c-68 0 -102 47 -102 97c0 36 14 69 83 93c35 12 73 26 110 40c20 7 23 16 23 26
l1 26c2 51 -12 95 -61 95c-28 0 -49 -15 -53 -44c-2 -19 -8 -29 -19 -36c-14 -9 -42 -18 -64 -18c-13 0 -19 7 -19 16c0 12 6 33 39 64c31 29 103 63 154 63c79 0 128 -37 124 -125zM243 89l2 72c0 11 -3 17 -8 17c-8 0 -26 -5 -44 -12c-28 -10 -54 -24 -54 -67
c0 -26 18 -58 56 -58c36 0 47 24 48 48z" />
    <glyph glyph-name="b" unicode="b" horiz-adv-x="510" 
d="M175 562v-168c0 -14 2 -18 8 -18c32 19 65 32 105 32c117 0 191 -87 191 -198c0 -142 -106 -224 -237 -224c-74 0 -121 27 -133 27s-19 -9 -25 -16c-2 -1 -4 -1 -7 -1c-4 0 -10 4 -10 7c0 4 3 57 3 94v451c0 67 -2 73 -23 87l-14 9c-6 4 -7 20 0 23c38 11 90 32 131 48
c6 1 12 -3 14 -8c-2 -40 -3 -102 -3 -145zM175 288v-128c0 -44 6 -79 22 -100c14 -19 38 -34 67 -34c67 0 104 63 104 148c0 117 -62 180 -133 180c-20 0 -41 -7 -49 -13c-9 -6 -11 -19 -11 -53z" />
    <glyph glyph-name="c" unicode="c" horiz-adv-x="400" 
d="M277 408c29 0 58 -4 86 -14c13 -12 20 -28 20 -51c0 -32 -17 -47 -25 -47c-7 0 -12 2 -19 11c-22 29 -52 61 -91 61c-57 0 -116 -56 -116 -150c0 -81 52 -158 143 -158c65 0 88 24 108 53c9 1 20 -6 21 -18c-36 -81 -113 -109 -176 -109c-53 0 -105 21 -139 54
c-35 34 -58 86 -58 144c0 117 85 224 246 224z" />
    <glyph glyph-name="d" unicode="d" horiz-adv-x="513" 
d="M440 562v-399c0 -91 7 -122 24 -122c11 0 27 3 42 9c8 -6 10 -30 -1 -36c-51 -5 -122 -22 -158 -38c-5 1 -10 5 -12 11l2 15c2 15 1 23 -1 28l-5 1c-30 -22 -67 -45 -115 -45c-114 0 -185 92 -185 192c0 144 115 230 240 230c26 0 45 -3 58 -7c4 1 6 5 6 16v131
c0 67 -2 73 -23 87l-14 9c-6 4 -7 20 0 23c39 11 91 32 131 48c6 1 12 -3 14 -8c-2 -40 -3 -102 -3 -145zM335 96v190c0 20 -3 34 -13 48c-14 19 -36 34 -67 34c-68 0 -111 -67 -111 -151c0 -103 54 -171 125 -171c24 0 51 13 59 22c5 5 7 14 7 28z" />
    <glyph glyph-name="e" unicode="e" horiz-adv-x="409" 
d="M318 237h-173c-19 0 -21 -1 -21 -13c0 -90 62 -162 151 -162c40 0 73 13 96 50c10 3 21 -7 22 -16c-34 -80 -108 -110 -169 -110c-116 0 -193 86 -193 200c0 113 77 222 211 222c74 0 150 -48 150 -135c0 -9 -1 -15 -5 -23c-6 -9 -29 -13 -69 -13zM146 277h91
c29 0 42 3 49 7c6 4 10 12 10 21c0 36 -23 65 -66 65c-67 0 -98 -65 -98 -86c0 -4 2 -7 14 -7z" />
    <glyph glyph-name="f" unicode="f" horiz-adv-x="301" 
d="M312 347h-98c-21 0 -21 -2 -21 -31v-197c0 -74 4 -85 39 -89l39 -4c7 -7 6 -25 -2 -29c-45 2 -84 3 -131 3c-33 0 -67 -1 -108 -3c-8 4 -9 22 -2 29l22 3c34 5 38 16 38 90v198c0 27 -1 30 -18 30h-36c-8 4 -10 17 -3 23l43 22c7 4 14 10 14 22v18c0 43 4 92 21 143
c26 79 93 140 187 140c69 0 114 -31 114 -73c0 -28 -25 -48 -49 -48c-15 0 -23 6 -29 14c-32 46 -54 66 -78 66c-34 0 -61 -68 -61 -218v-30c0 -30 1 -32 22 -32h105c4 -3 6 -9 6 -16c0 -17 -6 -26 -14 -31z" />
    <glyph glyph-name="g" unicode="g" horiz-adv-x="464" 
d="M461 320h-73c3 -10 5 -21 5 -43c0 -84 -56 -165 -183 -165c-12 0 -25 2 -38 4c-16 -8 -31 -21 -31 -39c0 -20 14 -39 55 -39c29 0 67 2 110 2c72 0 163 -12 163 -121c0 -52 -36 -101 -63 -122c-44 -36 -108 -66 -194 -66c-141 0 -187 66 -187 118c0 15 2 28 14 43
c9 10 47 32 62 45c8 6 15 19 6 22c-35 12 -66 44 -66 83c0 10 4 18 16 25c15 8 64 39 64 53c0 3 0 9 -4 11c-34 14 -74 54 -74 119c0 90 75 158 183 158c40 0 75 -8 101 -21c21 -10 32 -15 44 -15h98c4 -3 8 -10 8 -18c0 -20 -8 -32 -16 -34zM277 -49h-57
c-35 0 -56 -3 -68 -12c-17 -13 -30 -31 -30 -56c0 -61 54 -101 131 -101c85 0 133 35 133 93c0 51 -47 76 -109 76zM154 268c0 -77 36 -118 74 -118s66 33 66 103c0 68 -29 117 -74 117c-35 0 -66 -33 -66 -102z" />
    <glyph glyph-name="h" unicode="h" horiz-adv-x="522" 
d="M182 562v-185c0 -12 2 -17 9 -17c35 26 78 48 128 48c86 0 128 -55 128 -140v-149c0 -74 4 -86 38 -90l23 -3c9 -7 8 -25 -2 -29c-42 2 -76 3 -113 3c-33 0 -67 -1 -102 -3c-8 4 -9 22 -2 29l15 2c34 5 38 17 38 91v141c0 48 -21 88 -80 88c-33 0 -56 -16 -68 -29
c-11 -12 -12 -27 -12 -66v-134c0 -74 4 -86 38 -91l15 -2c7 -7 6 -25 -2 -29c-35 2 -69 3 -106 3c-32 0 -66 -1 -108 -3c-8 4 -9 22 -2 29l22 3c34 5 38 16 38 90v429c0 67 -2 73 -23 87l-14 9c-6 4 -7 20 0 23c39 11 90 32 131 48c6 1 12 -3 14 -8c-2 -40 -3 -102 -3 -145z
" />
    <glyph glyph-name="i" unicode="i" horiz-adv-x="268" 
d="M193 292v-173c0 -74 4 -84 38 -90l18 -3c7 -7 6 -25 -2 -29c-37 2 -71 3 -108 3c-33 0 -67 -1 -105 -3c-8 4 -9 22 -2 29l18 3c34 6 38 16 38 90v147c0 45 0 57 -25 72l-12 7c-3 4 -3 18 1 23c52 15 102 37 130 54c6 -1 11 -3 14 -8c-2 -33 -3 -81 -3 -122zM140 500
c-36 0 -61 26 -61 60s25 60 61 60s61 -26 61 -60s-25 -60 -61 -60z" />
    <glyph glyph-name="j" unicode="j" horiz-adv-x="259" 
d="M192 292v-239c0 -69 -6 -122 -23 -161c-32 -75 -101 -128 -175 -161c-11 2 -17 15 -13 28c26 14 51 33 65 54c23 35 41 102 41 219v234c0 45 0 57 -25 72l-12 7c-3 4 -3 18 1 23c52 15 102 37 130 54c6 -1 11 -3 14 -8c-2 -33 -3 -81 -3 -122zM138 500
c-36 0 -61 26 -61 60s25 60 61 60s61 -26 61 -60s-25 -60 -61 -60z" />
    <glyph glyph-name="k" unicode="k" horiz-adv-x="484" 
d="M76 119v429c0 67 -1 73 -26 89l-11 7c-6 4 -7 20 0 23c38 11 90 32 131 48c6 1 12 -3 14 -8c-2 -40 -3 -102 -3 -145v-317c0 -12 3 -14 22 -14c17 0 36 7 65 38l39 43c21 23 29 34 29 39s-4 9 -16 10l-27 3c-9 7 -9 25 2 30h29c44 0 103 2 156 8c9 -4 9 -22 2 -30l-18 -3
c-33 -6 -50 -14 -73 -34c-35 -31 -69 -60 -85 -77c-6 -7 -5 -14 0 -20c40 -56 107 -150 143 -184c19 -18 39 -25 57 -27l10 -1c6 -8 6 -25 -3 -29c-33 2 -70 3 -111 3c-40 0 -67 -1 -108 -3c-10 5 -11 22 -2 29l10 1c10 2 19 7 19 12s-3 12 -12 24l-82 115
c-12 17 -25 20 -31 20c-12 0 -15 -4 -15 -31v-48c0 -74 4 -85 38 -90l22 -3c7 -7 6 -25 -2 -29c-42 2 -76 3 -113 3c-32 0 -66 -1 -107 -3c-8 4 -9 22 -2 29l21 3c34 5 38 16 38 90z" />
    <glyph glyph-name="l" unicode="l" horiz-adv-x="258" 
d="M78 119v429c0 67 -1 73 -26 89l-11 7c-6 4 -7 20 0 23c39 11 91 32 131 48c6 1 12 -3 14 -8c-2 -40 -3 -102 -3 -145v-443c0 -74 4 -85 38 -90l22 -3c7 -7 6 -25 -2 -29c-41 2 -75 3 -112 3c-33 0 -67 -1 -108 -3c-8 4 -9 22 -2 29l21 3c34 5 38 16 38 90z" />
    <glyph glyph-name="m" unicode="m" horiz-adv-x="798" 
d="M88 119v147c0 45 0 57 -25 72l-12 7c-3 4 -3 18 1 23c44 12 98 36 130 54c7 0 11 -4 13 -8c-2 -19 -2 -38 -2 -46c0 -7 3 -9 9 -10c49 26 75 50 143 50c43 0 76 -23 90 -42c6 -9 12 -15 16 -15s10 3 22 10c47 29 81 47 128 47c84 0 122 -56 122 -134v-155
c0 -74 4 -85 38 -90l22 -3c9 -7 4 -25 0 -29c-43 2 -77 3 -114 3c-33 0 -67 -1 -103 -3c-8 4 -9 22 -2 29l16 3c34 6 38 16 38 90v136c0 53 -18 93 -81 93c-29 0 -55 -15 -67 -30c-10 -12 -12 -24 -12 -52v-147c0 -74 4 -86 38 -91l15 -2c7 -7 6 -25 -2 -29
c-35 2 -68 3 -105 3c-33 0 -67 -1 -100 -3c-8 4 -9 22 -2 29l13 2c34 5 38 17 38 91v136c0 53 -18 93 -76 93c-34 0 -60 -16 -71 -31c-12 -16 -13 -25 -13 -64v-134c0 -74 4 -86 38 -91l15 -2c7 -7 6 -25 -2 -29c-35 2 -69 3 -106 3c-33 0 -66 -1 -104 -3c-8 4 -9 22 -2 29
l18 3c34 6 38 16 38 90z" />
    <glyph glyph-name="n" unicode="n" horiz-adv-x="533" 
d="M193 253v-134c0 -74 4 -86 38 -91l15 -2c7 -7 6 -25 -2 -29c-35 2 -69 3 -106 3c-32 0 -66 -1 -108 -3c-8 4 -9 22 -2 29l22 3c34 5 38 16 38 90v147c0 45 0 57 -25 72l-12 7c-3 4 -3 18 1 23c43 12 98 36 130 54c7 0 11 -4 13 -8c-2 -19 -2 -38 -2 -46c0 -7 3 -9 9 -10
c47 26 75 50 137 50c81 0 119 -56 119 -134v-155c0 -74 4 -86 38 -90l23 -3c7 -7 6 -25 -2 -29c-42 2 -76 3 -113 3c-33 0 -67 -1 -102 -3c-8 4 -9 22 -2 29l15 2c34 5 38 17 38 91v138c0 51 -20 91 -80 91c-31 0 -56 -16 -66 -31c-13 -18 -14 -27 -14 -64z" />
    <glyph glyph-name="o" unicode="o" horiz-adv-x="492" 
d="M250 408c113 0 211 -76 211 -206c0 -142 -100 -216 -219 -216c-115 0 -211 73 -211 204c0 134 102 218 219 218zM149 205c0 -91 33 -179 105 -179c69 0 89 82 89 159c0 84 -29 183 -103 183c-51 0 -91 -52 -91 -163z" />
    <glyph glyph-name="p" unicode="p" horiz-adv-x="516" 
d="M76 -136v402c0 45 1 54 -25 71l-12 8c-4 6 -4 18 1 23c40 11 100 39 130 59c8 0 14 -4 16 -10c-3 -18 -5 -30 -5 -39c0 -6 3 -12 8 -13c13 6 72 43 124 43c109 0 172 -82 172 -185c0 -139 -98 -237 -245 -237c-12 0 -35 2 -44 4c-9 -2 -15 -8 -15 -28v-98
c0 -74 4 -85 39 -89l36 -4c7 -7 6 -25 -2 -29c-52 2 -91 3 -128 3c-33 0 -72 -1 -112 -3c-8 4 -9 22 -2 29l26 3c34 4 38 16 38 90zM181 262v-152c0 -31 11 -46 32 -64c13 -11 38 -20 53 -20c69 0 107 72 107 164c0 95 -49 160 -127 160c-23 0 -42 -8 -54 -20
c-8 -9 -11 -26 -11 -68z" />
    <glyph glyph-name="q" unicode="q" horiz-adv-x="503" 
d="M335 -130v98c0 32 -3 42 -11 43c-20 -13 -61 -25 -86 -25c-163 0 -207 124 -207 196c0 138 113 226 248 226c36 0 70 -7 86 -12c15 -5 25 -7 36 -7c10 0 19 5 30 15c7 1 15 -3 17 -8c-7 -24 -8 -58 -8 -121v-405c0 -74 4 -89 38 -95l36 -6c7 -5 6 -23 -2 -27
c-55 2 -89 3 -126 3c-33 0 -67 -1 -112 -3c-8 4 -9 22 -2 27l25 5c34 7 38 22 38 96zM335 66v184c0 38 -5 65 -18 84c-12 19 -32 34 -62 34c-52 0 -107 -49 -107 -153c0 -111 66 -176 144 -176c24 0 36 9 40 13c2 3 3 8 3 14z" />
    <glyph glyph-name="r" unicode="r" horiz-adv-x="349" 
d="M89 119v147c0 45 0 57 -25 72l-12 7c-3 4 -3 18 1 23c43 14 96 36 126 54c6 0 12 -3 14 -9c-1 -19 -2 -36 -2 -45c0 -7 4 -12 10 -12c31 22 64 52 98 52c35 0 55 -23 55 -49c0 -39 -29 -58 -56 -58c-10 0 -19 3 -27 8c-25 17 -42 19 -48 19c-23 0 -29 -23 -29 -72v-137
c0 -74 4 -85 39 -89l39 -4c7 -7 6 -25 -2 -29c-60 2 -94 3 -131 3c-33 0 -66 -1 -104 -3c-8 4 -9 22 -2 29l18 3c34 6 38 16 38 90z" />
    <glyph glyph-name="s" unicode="s" horiz-adv-x="346" 
d="M163 -14c-41 0 -82 8 -114 32c-10 19 -16 70 -14 113c6 8 21 9 28 2c18 -56 55 -109 108 -109c31 0 56 21 56 56c0 37 -33 61 -68 78c-52 25 -106 62 -106 126c-1 78 66 124 149 124c41 0 79 -12 93 -20c10 -21 15 -52 15 -97c-3 -8 -20 -11 -27 -5c-15 46 -47 84 -86 84
c-32 0 -56 -23 -56 -52s29 -50 67 -68c54 -26 111 -60 111 -139c0 -87 -77 -125 -156 -125z" />
    <glyph glyph-name="t" unicode="t" horiz-adv-x="321" 
d="M303 350h-95c-18 0 -19 -2 -19 -34v-154c0 -63 9 -119 73 -119c20 0 32 7 48 18c9 -1 15 -9 13 -20c-20 -28 -66 -55 -127 -55c-95 0 -112 55 -112 125v203c0 35 -2 36 -18 36h-35c-10 5 -12 21 -3 27c34 13 57 26 79 42c19 14 41 35 55 62c9 6 23 3 28 -5v-60
c0 -16 0 -19 19 -19h99c6 -3 8 -11 8 -21c-1 -12 -5 -21 -13 -26z" />
    <glyph glyph-name="u" unicode="u" horiz-adv-x="520" 
d="M445 314v-167c0 -56 1 -106 25 -106c14 0 29 3 43 7c8 -5 10 -26 -3 -34c-44 -5 -121 -18 -164 -38c-5 1 -8 5 -9 10c2 12 4 27 3 37c-1 8 -4 11 -10 11c-42 -25 -86 -48 -136 -48c-90 0 -119 50 -119 133v156c0 70 -4 78 -29 85l-14 4c-6 5 -6 23 2 26
c60 1 117 10 139 18c5 -1 9 -4 10 -9c-2 -12 -3 -36 -3 -85v-154c0 -59 11 -114 82 -114c23 0 49 9 66 25c10 10 12 19 12 56v151c0 64 -6 68 -44 80l-16 5c-7 5 -7 23 1 27c67 1 137 8 157 18c5 -1 9 -4 10 -9c-2 -19 -3 -48 -3 -85z" />
    <glyph glyph-name="v" unicode="v" horiz-adv-x="434" 
d="M369 283l-79 -174c-16 -36 -35 -83 -47 -117c-4 -4 -10 -6 -17 -6s-13 2 -18 6c-10 28 -26 67 -38 93c-22 49 -77 175 -96 217c-20 43 -31 56 -61 62l-19 4c-7 7 -6 24 2 29c35 -2 70 -3 105 -3c45 0 75 1 110 3c10 -4 11 -22 2 -29l-18 -3c-14 -2 -25 -5 -25 -11
s2 -17 8 -32c14 -37 65 -161 80 -191c24 50 48 111 74 174c10 25 14 38 14 45s-9 11 -21 13l-24 5c-8 8 -7 25 4 29c30 -2 55 -3 84 -3c26 0 51 1 73 3c9 -4 10 -22 2 -29l-20 -4c-30 -6 -44 -13 -75 -81z" />
    <glyph glyph-name="w" unicode="w" horiz-adv-x="684" 
d="M468 368l-18 -4c-17 -4 -25 -7 -25 -13c0 -5 1 -11 6 -24c18 -49 65 -151 84 -194c17 34 56 134 70 173c8 23 11 35 11 42c0 6 -7 11 -19 13l-34 7c-8 6 -6 25 2 29c34 -2 59 -3 82 -3s47 1 79 3c9 -4 10 -21 3 -29l-19 -5c-26 -7 -35 -13 -56 -62l-61 -139
c-22 -51 -48 -116 -68 -170c-4 -4 -10 -6 -17 -6s-13 2 -18 6c-36 88 -89 206 -119 272c-30 -64 -99 -216 -118 -272c-4 -4 -10 -6 -17 -6s-13 2 -18 6c-8 22 -29 75 -50 121c-20 44 -52 123 -94 215c-10 21 -18 29 -46 36l-17 4c-7 8 -5 25 3 29c36 -2 67 -3 106 -3
c38 0 72 1 99 3c8 -4 9 -24 2 -29l-17 -5c-15 -4 -24 -7 -24 -14c0 -6 4 -15 11 -32l26 -65c19 -48 42 -100 50 -119c10 20 26 57 36 80l28 66c12 29 12 39 10 53c-9 22 -21 25 -44 31l-19 5c-8 6 -7 25 3 29c26 -2 63 -3 97 -3s75 1 108 3c10 -4 11 -24 2 -29z" />
    <glyph glyph-name="x" unicode="x" horiz-adv-x="439" 
d="M210 368l-19 -5c-9 -2 -19 -4 -19 -9c0 -4 2 -10 8 -19c4 -6 32 -47 55 -77c19 28 44 63 53 80c3 4 6 11 6 16s-7 7 -17 10l-20 4c-9 7 -8 25 2 29c30 -2 60 -3 90 -3c29 0 58 1 81 3c10 -5 11 -22 2 -29l-27 -5c-40 -7 -54 -16 -82 -51l-47 -59c-9 -12 -15 -20 -15 -24
s5 -13 13 -24l78 -110c41 -58 48 -61 100 -69c6 -10 5 -24 -2 -29c-33 2 -73 3 -113 3c-43 0 -82 -1 -114 -3c-10 4 -11 22 -3 29l24 5c11 2 23 5 23 10s-3 11 -11 23c-9 13 -34 51 -60 86c-23 -31 -37 -54 -56 -85c-8 -14 -10 -20 -10 -25s7 -8 18 -10l23 -4
c8 -8 6 -25 -2 -29c-25 1 -53 3 -91 3c-34 0 -58 -1 -81 -3c-9 5 -11 24 -2 29c42 6 67 10 85 32c18 21 70 89 77 100c9 13 16 23 16 27s-7 15 -18 29l-81 108c-25 34 -36 39 -80 46c-8 6 -7 25 2 29c38 -2 62 -3 105 -3c37 0 73 1 106 3c10 -3 11 -24 3 -29z" />
    <glyph glyph-name="y" unicode="y" horiz-adv-x="448" 
d="M72 -249c-38 0 -55 24 -55 53c0 33 23 44 51 45l22 1c14 1 32 6 42 20c21 30 49 83 49 125c0 15 -2 36 -17 74l-81 210c-24 62 -31 77 -69 85l-20 4c-8 8 -8 25 3 29c33 -2 74 -3 111 -3c35 0 72 1 106 3c8 -4 9 -22 2 -29l-30 -6c-23 -5 -24 -9 -7 -53l44 -115
c19 -51 31 -75 34 -76c4 1 19 33 32 62l30 67c24 54 36 93 36 97c0 9 -4 14 -19 17l-34 7c-7 8 -6 24 2 29c36 -2 73 -3 95 -3c26 0 53 1 80 3c10 -3 10 -22 3 -29c-12 -3 -43 -8 -57 -22c-11 -11 -30 -39 -61 -101l-51 -102c-34 -68 -123 -246 -165 -338
c-17 -38 -43 -54 -76 -54z" />
    <glyph glyph-name="z" unicode="z" horiz-adv-x="390" 
d="M243 0h-90c-54 0 -93 -1 -121 -3c-5 2 -9 7 -7 13c17 23 62 94 89 142l96 169c9 15 13 23 13 28c0 4 -9 5 -22 5h-49c-30 0 -53 -2 -67 -14c-16 -13 -30 -42 -40 -60c-8 -4 -22 -3 -27 7c6 33 22 101 33 125c4 3 14 3 18 0c4 -18 15 -18 66 -18h165c27 0 46 1 61 3
c5 -2 7 -6 7 -12c-21 -29 -45 -66 -72 -113l-111 -194c-10 -17 -14 -26 -14 -31s10 -7 39 -7h33c34 0 63 5 85 24c17 15 30 38 40 60c7 6 24 3 27 -5c-5 -41 -24 -102 -37 -122c-36 2 -69 3 -115 3z" />
    <glyph glyph-name="braceleft" unicode="{" horiz-adv-x="320" 
d="M223 163c0 -69 -19 -139 -19 -205c0 -34 10 -80 84 -93c5 -6 4 -18 -2 -23c-61 0 -151 11 -151 128c0 69 16 142 16 209c0 47 -6 71 -88 77c-7 5 -7 19 0 24c82 6 88 30 88 77c0 67 -16 140 -16 209c0 117 90 128 151 128c6 -5 7 -17 2 -23c-74 -13 -84 -59 -84 -93
c0 -66 19 -136 19 -205c0 -55 -23 -90 -75 -103v-4c52 -13 75 -48 75 -103z" />
    <glyph glyph-name="bar" unicode="|" horiz-adv-x="255" 
d="M165 750v-1000h-75v1000h75z" />
    <glyph glyph-name="braceright" unicode="}" horiz-adv-x="320" 
d="M97 373c0 69 19 139 19 205c0 34 -10 80 -84 93c-5 6 -4 18 2 23c61 0 151 -11 151 -128c0 -69 -16 -142 -16 -209c0 -47 6 -71 88 -77c7 -5 7 -19 0 -24c-82 -6 -88 -30 -88 -77c0 -67 16 -140 16 -209c0 -117 -90 -128 -151 -128c-6 5 -7 17 -2 23c74 13 84 59 84 93
c0 66 -19 136 -19 205c0 55 23 90 75 103v4c-52 13 -75 48 -75 103z" />
    <glyph glyph-name="asciitilde" unicode="~" horiz-adv-x="510" 
d="M178 236h140c31 0 63 5 79 23c12 14 22 28 30 47c13 4 32 -1 41 -13c-11 -28 -39 -77 -59 -96c-19 -19 -36 -23 -73 -23h-134c-44 0 -66 -6 -87 -25c-15 -13 -25 -32 -35 -51c-14 -7 -32 1 -38 14c6 17 29 76 54 98c22 24 45 26 82 26z" />
    <glyph glyph-name="exclamdown" unicode="&#xa1;" horiz-adv-x="280" 
d="M156 175l44 -340c3 -26 5 -47 5 -64c0 -23 -16 -37 -64 -37s-65 14 -65 37c0 17 3 38 6 64l44 340c9 7 21 8 30 0zM141 394c37 0 64 -27 64 -64c0 -35 -27 -62 -64 -62c-38 0 -65 27 -65 62c0 37 27 64 65 64z" />
    <glyph glyph-name="cent" unicode="&#xa2;" horiz-adv-x="510" 
d="M255 179l37 308c-64 -2 -127 -56 -127 -153c0 -64 28 -126 90 -155zM331 481l-37 -314c10 -2 21 -3 33 -3c55 0 82 25 106 52c10 -1 18 -7 20 -15c-30 -68 -102 -93 -166 -94l-13 -103c-9 -9 -32 -8 -40 0l13 104c-112 11 -188 81 -188 198c0 107 79 212 238 220l10 86
c10 6 32 6 40 0l-10 -85c25 -1 51 -6 78 -14c13 -14 22 -34 22 -57s-11 -38 -18 -38c-6 0 -11 2 -19 10c-19 21 -40 44 -69 53z" />
    <glyph glyph-name="sterling" unicode="&#xa3;" horiz-adv-x="510" 
d="M-1 337h85c15 0 16 1 15 9c-1 13 -1 29 -1 40c0 153 110 254 241 254c23 0 46 -6 59 -15c8 -7 12 -18 12 -33c0 -30 -25 -57 -36 -57c-9 0 -14 1 -24 10c-43 35 -68 39 -88 39c-23 0 -52 -32 -52 -126c0 -36 2 -64 6 -106c1 -13 3 -15 21 -15h139c9 -10 9 -31 0 -40h-138
c-18 0 -22 -1 -22 -14c0 -90 -44 -143 -95 -173l1 -2c16 2 38 5 74 -1c23 -3 58 -17 99 -38c33 -17 71 -29 95 -29c29 0 32 14 16 69c-7 26 8 38 25 38c22 0 48 -14 48 -55c0 -51 -74 -132 -160 -132c-36 0 -67 12 -116 43c-40 25 -80 48 -112 48c-20 0 -30 -24 -32 -38
c-3 -14 -50 -27 -61 -27c-14 0 -19 6 -19 18c0 20 23 44 50 65c51 41 73 110 73 214c0 15 -1 10 -17 14h-86c-8 6 -8 30 0 40z" />
    <glyph glyph-name="fraction" unicode="&#x2044;" horiz-adv-x="100" 
d="M278 628c-139 -223 -277 -445 -414 -668c-20 -1 -36 11 -41 26c139 223 277 445 414 668c17 3 39 -9 41 -26z" />
    <glyph glyph-name="fraction" unicode="&#x2215;" horiz-adv-x="100" 
d="M278 628c-139 -223 -277 -445 -414 -668c-20 -1 -36 11 -41 26c139 223 277 445 414 668c17 3 39 -9 41 -26z" />
    <glyph glyph-name="yen" unicode="&#xa5;" horiz-adv-x="510" 
d="M459 319h-149v-75h149c8 -9 8 -29 0 -38h-149v-72c0 -83 4 -99 38 -103l38 -5c7 -5 6 -25 -2 -29c-61 2 -95 3 -132 3c-33 0 -58 -1 -118 -3c-8 4 -9 24 -2 29l38 5c34 4 38 20 38 103v72h-150c-7 10 -7 28 0 38h150v75h-150c-7 10 -7 29 0 38h139l-109 181
c-29 48 -34 56 -71 62l-20 3c-6 6 -5 25 2 28c41 -2 77 -3 115 -3c48 0 84 1 114 3c8 -3 9 -21 2 -28l-28 -9c-9 -2 -14 -5 -14 -13s4 -18 13 -33l47 -84c22 -40 39 -68 46 -79c7 9 18 31 38 70l49 94c9 17 11 31 11 37s-8 8 -22 11l-31 6c-6 6 -6 23 3 28
c32 -2 62 -3 93 -3c27 0 53 1 78 3c10 -3 8 -21 2 -28l-25 -4c-26 -4 -38 -21 -64 -66l-102 -176h135c8 -11 8 -28 0 -38z" />
    <glyph glyph-name="florin" unicode="&#x192;" horiz-adv-x="510" 
d="M95 427h85c11 55 23 95 44 137c25 51 97 133 187 133c53 0 76 -25 76 -47c0 -31 -27 -60 -54 -60c-11 0 -18 6 -25 18c-13 23 -29 41 -42 41c-28 0 -54 -104 -73 -222h111c8 -6 5 -33 -10 -40h-109c-11 -46 -19 -97 -28 -150c-34 -210 -64 -260 -115 -307
c-36 -33 -77 -52 -118 -52c-39 0 -61 30 -61 69c0 21 11 47 23 47c8 0 19 -8 28 -20c26 -27 44 -45 62 -45c19 0 22 16 42 138c11 69 34 197 55 320h-88c-7 5 -2 34 10 40z" />
    <glyph glyph-name="section" unicode="&#xa7;" horiz-adv-x="506" 
d="M175 158c-77 64 -138 134 -138 236c0 127 122 282 282 282c67 0 84 -35 84 -53c0 -29 -22 -42 -44 -42c-10 0 -21 8 -29 14c-34 24 -57 33 -78 33c-28 0 -49 -20 -49 -47c0 -35 17 -74 135 -163c77 -58 131 -129 131 -238c0 -136 -111 -304 -285 -304
c-52 0 -86 24 -86 58c0 25 20 42 43 42c16 0 24 -8 35 -16c34 -26 61 -33 79 -33c27 0 53 12 53 53c0 53 -69 125 -133 178zM232 232c90 -77 126 -142 122 -230c44 33 60 73 60 126c0 75 -42 143 -130 215c-104 85 -132 126 -132 218c-30 -23 -55 -62 -55 -107
c0 -41 2 -109 135 -222z" />
    <glyph glyph-name="currency" unicode="&#xa4;" horiz-adv-x="510" 
d="M256 469c-78 0 -145 -69 -145 -154c0 -88 69 -156 145 -156s145 69 145 156c0 85 -69 154 -145 154zM256 528c47 0 89 -14 125 -40l41 51c23 -7 46 -27 49 -48l-45 -45c29 -35 46 -82 46 -132s-17 -97 -46 -132l45 -45c-3 -21 -26 -41 -49 -48l-41 51
c-36 -26 -78 -40 -125 -40s-89 14 -125 40l-41 -51c-23 7 -46 27 -49 48l45 45c-29 35 -46 82 -46 132s17 97 46 132l-45 45c3 21 26 41 49 48l41 -51c36 26 78 40 125 40z" />
    <glyph glyph-name="quotesingle" unicode="'" horiz-adv-x="248" 
d="M124 700c33 0 51 -6 51 -28c0 -10 -1 -21 -6 -50l-30 -162c-9 -7 -21 -7 -30 0l-30 162c-5 29 -6 40 -6 50c0 22 18 28 51 28z" />
    <glyph glyph-name="quotedblleft" unicode="&#x201c;" horiz-adv-x="438" 
d="M331 453c-49 0 -91 48 -91 103c0 76 68 132 137 149c8 -6 10 -18 7 -26c-43 -18 -81 -47 -81 -91c0 -33 30 -49 54 -52c15 -2 31 -14 31 -36c0 -17 -12 -47 -57 -47zM141 453c-49 0 -91 48 -91 103c0 76 68 132 137 149c8 -6 10 -18 7 -26c-43 -18 -81 -47 -81 -91
c0 -33 30 -49 54 -52c15 -2 31 -14 31 -36c0 -17 -12 -47 -57 -47z" />
    <glyph glyph-name="guillemotleft" unicode="&#xab;" horiz-adv-x="421" 
d="M211 367l-72 -148c-5 -10 -4 -18 0 -26l72 -150c-3 -8 -8 -12 -18 -14c-45 53 -91 107 -140 160c-10 12 -11 21 0 33c49 53 95 106 140 159c8 -1 15 -5 18 -14zM376 367l-72 -148c-5 -10 -4 -18 0 -26l72 -150c-3 -8 -8 -12 -18 -14c-45 53 -91 107 -140 160
c-10 12 -11 21 0 33c49 53 95 106 140 159c8 -1 15 -5 18 -14z" />
    <glyph glyph-name="guilsinglleft" unicode="&#x2039;" horiz-adv-x="256" 
d="M139 193l72 -150c-3 -8 -8 -12 -18 -14c-45 53 -91 107 -140 160c-10 12 -11 21 0 33c49 53 95 106 140 159c8 -1 15 -5 18 -14l-72 -148c-5 -10 -4 -18 0 -26z" />
    <glyph glyph-name="guilsinglright" unicode="&#x203a;" horiz-adv-x="256" 
d="M45 43l72 150c4 8 5 16 0 26l-72 148c3 9 10 13 18 14c45 -53 91 -106 140 -159c11 -12 10 -21 0 -33c-49 -53 -95 -107 -140 -160c-10 2 -15 6 -18 14z" />
    <glyph glyph-name="endash" unicode="&#x2013;" horiz-adv-x="500" 
d="M0 236h500v-61h-500v61z" />
    <glyph glyph-name="dagger" unicode="&#x2020;" horiz-adv-x="486" 
d="M267 -127h-48v137c0 116 -19 185 -39 252c31 38 39 84 39 170c-58 0 -90 -32 -122 -32s-52 21 -52 50c0 28 20 49 52 49s64 -32 122 -32c0 87 -36 109 -36 148c0 34 20 61 60 61s60 -27 60 -61c0 -39 -36 -61 -36 -148c58 0 90 32 123 32c31 0 51 -21 51 -49
c0 -29 -20 -50 -51 -50c-33 0 -65 32 -123 32c0 -86 8 -132 39 -170c-20 -67 -39 -136 -39 -252v-137z" />
    <glyph glyph-name="daggerdbl" unicode="&#x2021;" horiz-adv-x="486" 
d="M243 -124c-38 0 -59 26 -59 58c0 36 35 68 36 167c-63 0 -98 -30 -128 -30c-31 0 -47 22 -47 47s16 47 47 47c30 0 65 -30 128 -30c-1 79 -9 124 -40 152c31 31 40 76 40 151c-63 0 -98 -30 -128 -30c-31 0 -47 22 -47 47s16 47 47 47c30 0 65 -30 128 -30
c-1 90 -36 118 -36 147c0 23 14 57 59 57s59 -34 59 -57c0 -29 -35 -57 -36 -147c63 0 94 30 127 30c31 0 48 -22 48 -47c0 -24 -17 -47 -48 -47c-33 0 -64 30 -127 30c0 -75 9 -120 40 -151c-31 -28 -39 -73 -40 -152c63 0 94 30 127 30c31 0 48 -22 48 -47
c0 -24 -17 -47 -48 -47c-33 0 -64 30 -127 30c1 -99 36 -131 36 -167c0 -32 -20 -58 -59 -58z" />
    <glyph glyph-name="periodcentered" unicode="&#xb7;" horiz-adv-x="255" 
d="M128 139c-38 0 -66 29 -66 66s28 66 66 66c37 0 65 -29 65 -66s-28 -66 -65 -66z" />
    <glyph glyph-name="periodcentered" unicode="&#x2219;" horiz-adv-x="255" 
d="M128 139c-38 0 -66 29 -66 66s28 66 66 66c37 0 65 -29 65 -66s-28 -66 -65 -66z" />
    <glyph glyph-name="paragraph" unicode="&#xb6;" horiz-adv-x="520" 
d="M387 452v-435c0 -134 -26 -222 -140 -222c-46 0 -98 22 -98 81c0 31 17 47 30 56c31 2 59 -17 65 -34c-8 -8 -13 -21 -13 -34c0 -18 14 -33 32 -33c24 0 72 19 72 125v143c0 28 -11 36 -27 36c-134 0 -243 82 -243 204c0 142 114 211 272 211c73 0 114 -2 141 -7
c10 -4 10 -21 1 -27l-39 -6c-51 -8 -53 -14 -53 -58z" />
    <glyph glyph-name="bullet" unicode="&#x2022;" horiz-adv-x="398" 
d="M199 485c83 0 149 -65 149 -149s-66 -148 -149 -148s-149 64 -149 148s66 149 149 149z" />
    <glyph glyph-name="quotesinglbase" unicode="&#x201a;" horiz-adv-x="248" 
d="M107 110c49 0 91 -48 91 -103c0 -76 -68 -132 -137 -149c-8 6 -10 18 -7 26c43 18 81 47 81 91c0 33 -30 49 -54 52c-15 2 -31 14 -31 36c0 17 12 47 57 47z" />
    <glyph glyph-name="quotedblbase" unicode="&#x201e;" horiz-adv-x="438" 
d="M297 110c49 0 91 -48 91 -103c0 -76 -68 -132 -137 -149c-8 6 -10 18 -7 26c43 18 81 47 81 91c0 33 -30 49 -54 52c-15 2 -31 14 -31 36c0 17 12 47 57 47zM107 110c49 0 91 -48 91 -103c0 -76 -68 -132 -137 -149c-8 6 -10 18 -7 26c43 18 81 47 81 91
c0 33 -30 49 -54 52c-15 2 -31 14 -31 36c0 17 12 47 57 47z" />
    <glyph glyph-name="quotedblright" unicode="&#x201d;" horiz-adv-x="438" 
d="M297 700c49 0 91 -48 91 -103c0 -76 -68 -132 -137 -149c-8 6 -10 18 -7 26c43 18 81 47 81 91c0 33 -30 49 -54 52c-15 2 -31 14 -31 36c0 17 12 47 57 47zM107 700c49 0 91 -48 91 -103c0 -76 -68 -132 -137 -149c-8 6 -10 18 -7 26c43 18 81 47 81 91
c0 33 -30 49 -54 52c-15 2 -31 14 -31 36c0 17 12 47 57 47z" />
    <glyph glyph-name="guillemotright" unicode="&#xbb;" horiz-adv-x="421" 
d="M117 219l-72 148c3 9 10 13 18 14c45 -53 91 -106 140 -159c11 -12 10 -21 0 -33c-49 -53 -95 -107 -140 -160c-10 2 -15 6 -18 14l72 150c4 8 5 16 0 26zM282 219l-72 148c3 9 10 13 18 14c45 -53 91 -106 140 -159c11 -12 10 -21 0 -33c-49 -53 -95 -107 -140 -160
c-10 2 -15 6 -18 14l72 150c4 8 5 16 0 26z" />
    <glyph glyph-name="ellipsis" unicode="&#x2026;" horiz-adv-x="1000" 
d="M500 -14c-38 0 -66 29 -66 66s28 66 66 66c37 0 65 -29 65 -66s-28 -66 -65 -66zM833 -14c-38 0 -66 29 -66 66s28 66 66 66c37 0 65 -29 65 -66s-28 -66 -65 -66zM167 -14c-38 0 -66 29 -66 66s28 66 66 66c37 0 65 -29 65 -66s-28 -66 -65 -66z" />
    <glyph glyph-name="perthousand" unicode="&#x2030;" horiz-adv-x="1174" 
d="M623 355c107 0 150 -105 150 -185c0 -78 -43 -184 -150 -184s-150 106 -150 184c0 80 43 185 150 185zM554 170c0 -49 11 -150 69 -150s69 101 69 150c0 50 -11 151 -69 151s-69 -101 -69 -151zM201 640c107 0 150 -105 150 -185c0 -78 -43 -184 -150 -184
s-150 106 -150 184c0 80 43 185 150 185zM132 455c0 -49 11 -150 69 -150s69 101 69 150c0 50 -11 151 -69 151s-69 -101 -69 -151zM973 355c107 0 150 -105 150 -185c0 -78 -43 -184 -150 -184s-150 106 -150 184c0 80 43 185 150 185zM904 170c0 -49 11 -150 69 -150
s69 101 69 150c0 50 -11 151 -69 151s-69 -101 -69 -151zM627 632l-406 -672c-16 -1 -30 9 -35 22l404 670c12 3 32 -8 37 -20z" />
    <glyph glyph-name="questiondown" unicode="&#xbf;" horiz-adv-x="330" 
d="M230 -266c-105 0 -185 119 -185 209c0 54 26 89 64 107l54 26c34 16 47 31 47 50c0 16 -2 31 -9 50c5 9 19 13 28 6c16 -23 43 -71 43 -110c0 -45 -36 -69 -69 -84l-56 -25c-44 -20 -49 -45 -49 -58c0 -56 59 -70 141 -70c13 0 47 -14 47 -51c0 -29 -22 -50 -56 -50z
M204 394c38 0 66 -29 66 -66s-28 -66 -66 -66c-37 0 -65 29 -65 66s28 66 65 66z" />
    <glyph glyph-name="grave" unicode="`" 
d="M200 452l-130 146c-13 18 -21 28 -21 39c0 13 8 20 31 32c16 6 28 12 39 12c13 0 23 -10 32 -32l75 -184c-3 -11 -13 -15 -26 -13z" />
    <glyph glyph-name="acute" unicode="&#xb4;" horiz-adv-x="360" 
d="M308 594l-142 -143c-13 -1 -24 5 -26 15l93 181c12 23 24 31 35 31s22 -5 41 -16s25 -20 25 -32s-13 -22 -26 -36z" />
    <glyph glyph-name="circumflex" unicode="&#x2c6;" 
d="M67 463l103 206c7 11 16 13 22 13c5 0 15 -1 21 -13l100 -200c-1 -11 -13 -18 -25 -18l-74 92c-12 15 -18 23 -24 23c-3 0 -11 -12 -26 -29l-74 -88c-12 -1 -21 6 -23 14z" />
    <glyph glyph-name="tilde" unicode="&#x2dc;" 
d="M163 579h55c24 0 44 2 58 13c11 8 19 19 24 31c5 2 19 1 23 -3c-7 -31 -28 -74 -42 -88c-17 -17 -29 -20 -53 -20h-61c-27 0 -48 -7 -59 -18c-10 -7 -21 -24 -30 -40c-9 -1 -18 0 -21 6c4 20 23 73 41 93c20 22 37 26 65 26z" />
    <glyph glyph-name="macron" unicode="&#xaf;" 
d="M309 512h-238c-10 14 -10 53 0 66h238c10 -13 10 -52 0 -66z" />
    <glyph glyph-name="macron" unicode="&#x2c9;" 
d="M309 512h-238c-10 14 -10 53 0 66h238c10 -13 10 -52 0 -66z" />
    <glyph glyph-name="breve" unicode="&#x2d8;" 
d="M190 485c-76 0 -123 52 -119 154c7 4 19 4 26 0c14 -54 52 -80 93 -80s79 26 94 80c6 4 18 4 25 0c3 -102 -50 -154 -119 -154z" />
    <glyph glyph-name="dotaccent" unicode="&#x2d9;" 
d="M190 490c-36 0 -61 26 -61 60s25 60 61 60s61 -26 61 -60s-25 -60 -61 -60z" />
    <glyph glyph-name="dieresis" unicode="&#xa8;" 
d="M105 490c-34 0 -59 19 -60 56c0 34 25 61 60 61c32 0 56 -28 56 -56c0 -37 -24 -61 -56 -61zM278 490c-33 0 -57 19 -58 56c-1 34 24 61 58 61s57 -28 57 -56c0 -37 -23 -61 -57 -61z" />
    <glyph glyph-name="ring" unicode="&#x2da;" 
d="M97 553c0 47 36 93 93 93s93 -46 93 -93c0 -49 -36 -95 -93 -95s-93 46 -93 95zM146 553c0 -35 16 -61 44 -61s44 26 44 61c0 33 -16 59 -44 59s-44 -26 -44 -59z" />
    <glyph glyph-name="cedilla" unicode="&#xb8;" 
d="M211 0h40l-34 -45c-8 -10 -5 -12 8 -19c32 -17 52 -38 52 -71c0 -48 -51 -80 -106 -80c-39 0 -63 14 -63 38c0 15 10 28 27 28c22 0 37 -32 55 -32c10 0 23 10 23 29c0 24 -33 47 -64 60l-3 6z" />
    <glyph glyph-name="hungarumlaut" unicode="&#x2dd;" 
d="M248 470l71 192c6 16 17 27 33 27c13 0 25 -6 38 -14c16 -10 25 -18 25 -27c0 -12 -9 -24 -27 -47l-114 -148c-13 -1 -25 3 -26 17zM70 470l71 192c6 16 17 27 30 27c16 0 28 -5 42 -14c15 -10 24 -18 24 -27c0 -12 -9 -24 -27 -47l-114 -148c-13 -1 -25 3 -26 17z" />
    <glyph glyph-name="ogonek" unicode="&#x2db;" 
d="M213 20h41c-50 -46 -82 -94 -82 -133c0 -32 20 -53 56 -53c18 0 30 3 43 13c7 -2 9 -8 9 -15c-22 -34 -58 -47 -92 -47c-64 0 -84 41 -84 78c0 47 38 102 109 157z" />
    <glyph glyph-name="caron" unicode="&#x2c7;" 
d="M169 467l-91 183c1 9 13 15 22 15l67 -82c12 -15 19 -22 24 -22c4 0 11 9 24 25l63 81c10 1 22 -5 24 -13l-95 -187c-5 -10 -13 -12 -19 -12c-4 0 -13 1 -19 12z" />
    <glyph glyph-name="emdash" unicode="&#x2014;" horiz-adv-x="1000" 
d="M0 236h1000v-61h-1000v61z" />
    <glyph glyph-name="AE" unicode="&#xc6;" horiz-adv-x="846" 
d="M389 144v142c0 32 -2 34 -41 34h-94c-32 0 -33 -3 -47 -31c-45 -91 -78 -158 -105 -221c-8 -19 -6 -31 15 -34l53 -8c6 -8 6 -24 -3 -29c-36 2 -74 3 -114 3c-32 0 -61 -1 -98 -3c-9 5 -10 21 -3 29l29 5c27 5 39 15 67 68c91 171 192 356 253 479c8 16 14 30 14 35
c0 6 -7 9 -18 11l-57 10c-9 6 -8 24 1 29c38 -2 83 -3 142 -3h252c64 0 122 1 135 3c4 -17 10 -96 16 -139c-4 -8 -24 -10 -32 -4c-16 58 -31 82 -63 91c-23 6 -53 9 -80 9h-67c-43 0 -43 -2 -43 -59v-170c0 -25 1 -26 24 -26h48c87 0 102 1 111 44l7 34c8 7 27 7 32 -1
c-1 -27 -3 -63 -3 -100c0 -38 2 -73 3 -105c-5 -7 -24 -7 -32 -1l-7 40c-7 42 -24 44 -111 44h-48c-23 0 -24 -2 -24 -27v-127c0 -51 2 -87 17 -104c12 -14 29 -21 113 -22c127 -1 149 27 184 108c9 7 26 4 32 -6c-6 -42 -28 -118 -42 -145c-44 2 -130 3 -247 3h-110
c-44 0 -105 -1 -150 -3c-8 4 -9 22 -2 29l37 4c47 5 56 8 56 114zM262 365h86c38 0 41 1 41 34v167c0 18 -1 46 -5 54h-4c-5 -6 -13 -19 -21 -34c-32 -62 -84 -163 -106 -205c-6 -11 -7 -16 9 -16z" />
    <glyph glyph-name="ordfeminine" unicode="&#xaa;" horiz-adv-x="354" 
d="M204 430l1 15c2 29 -10 60 -46 60c-26 0 -38 -11 -40 -32c-2 -14 -7 -24 -17 -30c-11 -7 -34 -13 -51 -13c-14 0 -19 8 -19 17s5 25 31 48c25 21 79 45 126 45c66 0 101 -26 101 -82c0 -28 -6 -82 -6 -122c0 -35 9 -55 31 -55c11 0 20 3 30 9c8 -1 14 -9 9 -18
c-15 -18 -54 -32 -79 -32c-17 0 -42 5 -57 19c-6 6 -13 10 -16 10s-9 -4 -21 -12c-13 -7 -38 -17 -61 -17c-60 0 -88 37 -88 71c0 32 10 51 59 67c37 12 67 21 88 29c22 8 25 16 25 23zM199 313l2 51c0 9 -2 16 -7 16c-8 0 -19 -2 -29 -5c-24 -7 -46 -21 -46 -48
c0 -21 14 -43 43 -43c28 0 36 16 37 29z" />
    <glyph glyph-name="Lslash" unicode="&#x141;" horiz-adv-x="566" 
d="M241 516v-150l112 73c15 -7 25 -23 21 -37l-133 -87v-150c0 -50 2 -86 17 -103c12 -14 28 -22 108 -22c111 0 127 5 173 108c10 5 26 2 31 -6c-8 -42 -30 -118 -42 -145c-42 2 -128 3 -240 3h-104c-51 0 -101 -1 -143 -3c-8 4 -11 24 -2 29l30 5c47 8 56 9 56 113v97
l-86 -56c-15 3 -23 26 -18 40l104 67v224c0 104 -9 107 -56 114l-28 4c-7 5 -7 25 2 29c50 -2 95 -3 141 -3c44 0 89 1 133 3c9 -4 10 -24 2 -29l-22 -4c-47 -8 -56 -10 -56 -114z" />
    <glyph glyph-name="Oslash" unicode="&#xd8;" horiz-adv-x="792" 
d="M563 523l-310 -423c37 -46 88 -76 155 -76c114 0 206 85 206 286c0 74 -16 153 -51 213zM227 139l310 423c-37 45 -87 74 -150 74c-100 0 -209 -73 -209 -286c0 -68 14 -147 49 -211zM671 668l-46 -62c82 -64 125 -167 125 -278c0 -197 -150 -344 -352 -344
c-76 0 -141 18 -194 49l-57 -77c-15 2 -32 12 -34 29l54 73c-81 63 -125 160 -125 263c0 204 148 355 358 355c73 0 136 -16 188 -45l49 65c17 -3 35 -12 34 -28z" />
    <glyph glyph-name="OE" unicode="&#x152;" horiz-adv-x="1016" 
d="M620 660h185c64 0 122 1 135 3c4 -17 10 -96 16 -139c-4 -8 -24 -10 -32 -4c-16 58 -31 82 -63 91c-23 6 -53 9 -80 9h-67c-43 0 -43 -2 -43 -59v-170c0 -25 1 -26 24 -26h48c87 0 102 1 111 44l7 34c8 7 27 7 32 -1c-1 -27 -3 -63 -3 -100c0 -38 2 -73 3 -105
c-5 -7 -24 -7 -32 -1l-7 40c-7 42 -24 44 -111 44h-48c-23 0 -24 -2 -24 -27v-127c0 -51 2 -87 17 -104c12 -14 29 -21 113 -22c127 -1 149 27 184 108c9 7 26 4 32 -6c-6 -42 -28 -118 -42 -145c-44 2 -130 3 -247 3h-104c-76 0 -127 -6 -179 -6c-268 0 -403 140 -403 327
c0 188 144 342 412 342c47 0 107 -3 166 -3zM555 108v438c0 51 -11 78 -102 78c-191 0 -275 -131 -275 -293c0 -155 85 -297 258 -297c33 0 67 7 89 19c25 14 30 34 30 55z" />
    <glyph glyph-name="ordmasculine" unicode="&#xba;" horiz-adv-x="387" 
d="M196 540c91 0 159 -56 159 -149c0 -100 -75 -151 -163 -151c-87 0 -160 50 -160 143c0 103 80 157 164 157zM129 405c0 -73 23 -133 68 -133s61 47 61 98c0 75 -17 138 -69 138c-35 0 -60 -34 -60 -103z" />
    <glyph glyph-name="ae" unicode="&#xe6;" horiz-adv-x="615" 
d="M247 234v34c0 47 -8 95 -63 95c-27 0 -50 -15 -55 -41c-3 -19 -6 -30 -16 -37c-12 -9 -44 -20 -64 -20c-10 0 -16 7 -16 15c0 15 6 34 39 65c29 29 103 63 156 63c35 0 83 -10 100 -47c43 33 86 47 136 47c88 0 137 -58 137 -112c0 -17 -7 -22 -30 -29l-208 -61
c-17 -5 -20 -9 -20 -15v-10c0 -75 66 -128 132 -128c48 0 82 16 108 52c10 2 20 -4 20 -14c-31 -69 -92 -105 -169 -105c-73 0 -120 31 -147 68l-34 -23c-45 -30 -85 -45 -119 -45c-71 0 -102 48 -102 94c0 35 14 71 82 94l114 39c16 5 19 9 19 21zM368 248l107 32
c27 8 33 15 33 23c0 27 -25 65 -68 65c-59 0 -97 -58 -97 -112v-6c0 -5 4 -8 25 -2zM247 85v73c0 12 -2 18 -8 18c-8 0 -24 -5 -46 -13c-31 -11 -56 -24 -56 -62c0 -27 17 -59 58 -59c23 0 52 15 52 43z" />
    <glyph glyph-name="dotlessi" unicode="&#x131;" horiz-adv-x="268" 
d="M193 292v-173c0 -74 4 -84 38 -90l18 -3c7 -7 6 -25 -2 -29c-37 2 -71 3 -108 3c-33 0 -67 -1 -105 -3c-8 4 -9 22 -2 29l18 3c34 6 38 16 38 90v147c0 45 0 57 -25 72l-12 7c-3 4 -3 18 1 23c52 15 102 37 130 54c6 -1 11 -3 14 -8c-2 -33 -3 -81 -3 -122z" />
    <glyph glyph-name="lslash" unicode="&#x142;" horiz-adv-x="275" 
d="M296 408l-104 -81v-208c0 -74 4 -85 38 -90l22 -3c7 -7 6 -25 -2 -29c-41 2 -75 3 -112 3c-33 0 -67 -1 -108 -3c-8 4 -9 22 -2 29l21 3c34 5 38 16 38 90v126l-74 -58c-12 6 -20 18 -18 36l92 72v253c0 67 -1 73 -26 89l-11 7c-6 4 -7 20 0 23c39 11 91 32 131 48
c6 1 12 -3 14 -8c-2 -40 -3 -102 -3 -145v-185l84 66c14 -3 24 -19 20 -35z" />
    <glyph glyph-name="oslash" unicode="&#xf8;" horiz-adv-x="496" 
d="M161 103l155 223c-17 26 -41 42 -73 42c-58 0 -98 -52 -98 -163c0 -36 5 -71 16 -102zM335 287l-154 -221c17 -25 42 -40 74 -40c76 0 96 82 96 159c0 35 -5 72 -16 102zM418 408l-30 -44c47 -35 77 -90 77 -160c0 -144 -100 -218 -220 -218c-38 0 -74 8 -104 23l-37 -53
c-11 -2 -29 11 -28 24l33 48c-48 33 -78 88 -78 162c0 135 102 218 221 218c38 0 74 -8 104 -24l31 45c13 2 30 -9 31 -21z" />
    <glyph glyph-name="oe" unicode="&#x153;" horiz-adv-x="730" 
d="M466 277h76c43 0 59 3 66 7c6 3 10 11 10 18c0 36 -23 68 -68 68c-67 0 -98 -65 -98 -86c0 -4 2 -7 14 -7zM638 237h-174c-19 0 -21 -1 -21 -13c0 -94 59 -162 155 -162c39 0 72 13 95 50c10 3 21 -7 22 -16c-34 -80 -108 -110 -167 -110c-69 0 -120 30 -153 70
c-34 -47 -89 -70 -156 -70c-112 0 -208 73 -208 204c0 135 102 218 221 218c66 0 117 -25 150 -72c34 42 92 72 155 72c79 0 155 -47 155 -135c0 -9 -1 -15 -5 -23c-6 -9 -29 -13 -69 -13zM243 368c-54 0 -94 -52 -94 -163c0 -91 32 -179 106 -179c72 0 92 82 92 159
c0 85 -29 183 -104 183z" />
    <glyph glyph-name="germandbls" unicode="&#xdf;" horiz-adv-x="555" 
d="M193 413v-294c0 -67 4 -84 46 -91l12 -2c7 -7 6 -25 -2 -29c-25 2 -64 3 -111 3c-32 0 -66 -1 -108 -3c-8 4 -9 22 -2 29l15 2c41 5 45 24 45 91v201c0 27 -1 30 -18 30h-36c-8 4 -10 17 -3 23l43 22c7 4 14 10 14 19c0 50 8 113 32 163c35 71 103 138 211 138
c116 0 168 -70 168 -140c0 -61 -29 -76 -69 -113l-18 -17c-26 -25 -36 -48 -36 -73c0 -37 36 -70 70 -100c36 -32 82 -76 82 -137c0 -102 -83 -149 -163 -149c-48 0 -89 10 -89 63c0 19 9 40 28 40c21 0 44 -63 87 -63c17 0 50 13 50 56c0 34 -26 63 -69 98
c-46 38 -83 79 -83 135c0 54 42 98 66 128s45 60 45 112c0 75 -43 120 -91 120c-71 0 -116 -105 -116 -262z" />
    <glyph glyph-name="onesuperior" unicode="&#xb9;" 
d="M148 405v186c0 29 0 51 -31 54l-30 3c-8 3 -9 21 -2 25c53 7 133 27 148 34c4 1 9 0 10 -3c-1 -22 -2 -66 -2 -105v-194c0 -54 3 -62 38 -65l24 -2c7 -5 6 -21 -1 -25c-27 1 -72 2 -107 2c-36 0 -81 -1 -108 -2c-7 4 -8 20 -1 25l20 2c39 4 42 11 42 65z" />
    <glyph glyph-name="logicalnot" unicode="&#xac;" horiz-adv-x="510" 
d="M373 82v167h-310v63h385v-230h-75z" />
    <glyph glyph-name="mu" unicode="&#xb5;" horiz-adv-x="522" 
d="M447 314v-167c0 -56 1 -107 25 -107c14 0 29 2 43 6c8 -5 10 -26 -1 -34c-36 -5 -111 -16 -166 -36c-5 1 -8 5 -9 10c2 12 4 27 3 37c-1 8 -4 11 -10 11c-42 -25 -86 -48 -135 -48c-18 0 -38 6 -47 12c-5 0 -12 -3 -12 -22v-55c0 -56 42 -102 42 -124
c0 -30 -46 -66 -82 -66c-17 0 -23 11 -23 31v513c0 70 -4 78 -29 85l-14 4c-6 5 -6 23 2 26c60 1 117 10 139 18c5 -1 9 -4 10 -9c-2 -12 -3 -36 -3 -85v-154c0 -59 11 -114 83 -114c24 0 50 9 67 25c10 10 12 19 12 56v151c0 64 -6 68 -44 80l-16 5c-7 5 -7 23 1 27
c67 1 137 8 157 18c5 -1 9 -4 10 -9c-2 -19 -3 -48 -3 -85z" />
    <glyph glyph-name="mu" unicode="&#x3bc;" horiz-adv-x="522" 
d="M447 314v-167c0 -56 1 -107 25 -107c14 0 29 2 43 6c8 -5 10 -26 -1 -34c-36 -5 -111 -16 -166 -36c-5 1 -8 5 -9 10c2 12 4 27 3 37c-1 8 -4 11 -10 11c-42 -25 -86 -48 -135 -48c-18 0 -38 6 -47 12c-5 0 -12 -3 -12 -22v-55c0 -56 42 -102 42 -124
c0 -30 -46 -66 -82 -66c-17 0 -23 11 -23 31v513c0 70 -4 78 -29 85l-14 4c-6 5 -6 23 2 26c60 1 117 10 139 18c5 -1 9 -4 10 -9c-2 -12 -3 -36 -3 -85v-154c0 -59 11 -114 83 -114c24 0 50 9 67 25c10 10 12 19 12 56v151c0 64 -6 68 -44 80l-16 5c-7 5 -7 23 1 27
c67 1 137 8 157 18c5 -1 9 -4 10 -9c-2 -19 -3 -48 -3 -85z" />
    <glyph glyph-name="trademark" unicode="&#x2122;" horiz-adv-x="610" 
d="M110 531v92c0 10 0 11 -11 11h-7c-21 0 -34 -9 -43 -33c-3 -7 -18 -5 -19 3c6 35 10 54 13 67c2 5 13 5 15 0c8 -10 10 -11 29 -11h121c13 0 17 0 28 11c3 5 13 5 14 0c-3 -17 -5 -48 -4 -70c-2 -8 -16 -8 -18 -2c-5 23 -13 35 -37 35h-13c-7 0 -7 -1 -7 -11v-95
c0 -29 1 -39 17 -42l15 -3c4 -3 3 -18 -1 -19c-21 1 -43 1 -68 1c-24 0 -38 0 -56 -1c-3 2 -3 15 0 19l15 3c15 3 17 16 17 45zM495 510l-2 93c0 6 0 10 -2 10c-1 0 -10 -20 -18 -40l-18 -42c-14 -32 -20 -46 -27 -67c-6 -2 -15 -4 -24 1c-3 15 -16 42 -22 57l-21 53
c-9 22 -20 43 -22 44c-1 -2 -2 -15 -4 -49c-1 -17 0 -44 0 -58c1 -21 4 -26 19 -28l9 -1c1 -3 1 -14 0 -19c-10 1 -23 1 -45 1c-16 0 -34 0 -45 -1c-3 2 -3 15 -1 19l6 1c18 3 23 10 24 23c4 35 8 77 8 106c0 19 -7 25 -23 27l-7 2c-8 2 -7 18 1 19c16 0 26 -1 38 -1
c16 0 28 0 63 1c0 -10 12 -35 21 -53l18 -35c5 -10 9 -15 12 -15c2 0 6 2 11 12l16 35c8 18 16 33 22 56c30 -1 38 -1 46 -1c13 0 36 0 47 1c6 -1 6 -17 1 -19l-9 -2c-16 -2 -18 -8 -18 -23c0 -26 1 -76 3 -102c1 -22 3 -25 13 -28l14 -4c6 -2 6 -17 0 -19
c-13 1 -26 1 -58 1c-25 0 -38 0 -52 -1c-3 2 -4 17 0 19l14 4c12 3 12 8 12 23z" />
    <glyph glyph-name="Eth" unicode="&#xd0;" horiz-adv-x="790" 
d="M125 144v178h-89c-8 10 -8 34 0 45h89v143c0 96 -1 110 -48 114l-21 2c-7 5 -7 23 1 28c72 6 152 9 250 9c95 0 163 -8 236 -34c120 -44 205 -150 205 -299c0 -111 -55 -225 -179 -288c-71 -36 -157 -48 -248 -48c-61 0 -108 6 -145 6c-38 0 -83 -1 -127 -3
c-8 4 -9 22 -2 29l22 3c47 6 56 9 56 115zM241 535v-168h139c8 -11 8 -35 0 -45h-139v-139c0 -97 7 -149 113 -149c178 0 258 126 258 295c0 198 -115 294 -282 294c-42 0 -74 -8 -81 -14s-8 -27 -8 -74z" />
    <glyph glyph-name="onehalf" unicode="&#xbd;" horiz-adv-x="860" 
d="M129 337v186c0 29 0 51 -31 54l-30 3c-8 3 -9 21 -2 25c53 7 133 27 148 34c4 1 9 0 10 -3c-1 -22 -2 -66 -2 -105v-194c0 -54 3 -62 38 -65l24 -2c7 -5 6 -21 -1 -25c-27 1 -72 2 -107 2c-36 0 -81 -1 -108 -2c-7 4 -8 20 -1 25l20 2c39 4 42 11 42 65zM628 628
c-139 -223 -277 -445 -414 -668c-20 -1 -36 11 -41 26c139 223 277 445 414 668c17 3 39 -9 41 -26zM633 68h68c38 0 61 3 79 34c8 4 18 2 23 -4c-8 -32 -25 -79 -37 -100c-26 1 -67 2 -102 2h-102c-36 0 -55 -1 -67 -2c-5 4 -7 10 -5 16c26 21 47 40 99 92
c42 41 84 99 84 162c0 43 -28 74 -66 74c-37 0 -64 -22 -85 -62c-10 -4 -23 3 -23 14c33 68 87 99 147 99c84 0 130 -47 130 -111c0 -49 -32 -90 -102 -147l-28 -23c-26 -21 -33 -28 -33 -33s3 -11 20 -11z" />
    <glyph glyph-name="plusminus" unicode="&#xb1;" horiz-adv-x="510" 
d="M448 63v-63h-386v63h386zM293 98h-75v141h-156v63h156v134h75v-134h155v-63h-155v-141z" />
    <glyph glyph-name="Thorn" unicode="&#xde;" horiz-adv-x="582" 
d="M235 527h89c142 0 227 -68 227 -177c0 -119 -108 -176 -217 -176h-22c-5 5 -6 18 -1 25c81 17 115 78 115 148c0 77 -41 140 -135 140c-56 0 -56 -7 -56 -39v-304c0 -106 9 -108 56 -114l34 -4c7 -7 6 -25 -2 -29c-56 2 -101 3 -145 3c-46 0 -91 -1 -135 -3
c-8 4 -9 22 -2 29l22 3c47 6 56 9 56 115v372c0 106 -9 107 -56 116l-22 4c-7 5 -6 23 2 27c44 -2 91 -3 135 -3s89 1 133 3c8 -4 9 -22 2 -27l-22 -4c-47 -8 -56 -10 -56 -105z" />
    <glyph glyph-name="onequarter" unicode="&#xbc;" horiz-adv-x="860" 
d="M149 337v186c0 29 0 51 -31 54l-30 3c-8 3 -9 21 -2 25c53 7 133 27 148 34c4 1 9 0 10 -3c-1 -22 -2 -66 -2 -105v-194c0 -54 3 -62 38 -65l24 -2c7 -5 6 -21 -1 -25c-27 1 -72 2 -107 2c-36 0 -81 -1 -108 -2c-7 4 -8 20 -1 25l20 2c39 4 42 11 42 65zM618 114h-149
c-5 4 -9 11 -7 19l207 280c6 8 11 13 20 13h26c11 0 15 -4 5 -17l-194 -248c-7 -9 -7 -14 6 -14h86c13 0 14 2 14 18v84c0 13 8 18 18 21c19 7 52 19 63 19c7 0 12 -4 12 -10v-114c0 -16 1 -18 15 -18h46c10 -5 10 -28 0 -33h-46c-14 0 -15 -2 -15 -18v-6
c0 -54 3 -59 38 -65l12 -2c7 -5 6 -21 -1 -25c-25 1 -60 2 -95 2c-36 0 -76 -1 -108 -2c-7 4 -8 20 -1 25l20 2c39 4 42 11 42 65v6c0 16 -1 18 -14 18zM653 628c-139 -223 -277 -445 -414 -668c-20 -1 -36 11 -41 26c139 223 277 445 414 668c17 3 39 -9 41 -26z" />
    <glyph glyph-name="divide" unicode="&#xf7;" horiz-adv-x="510" 
d="M253 21c-30 0 -54 24 -54 54c0 27 24 52 54 52c28 0 52 -25 52 -52c0 -30 -24 -54 -52 -54zM253 284c-30 0 -54 24 -54 54c0 27 24 52 54 52c28 0 52 -25 52 -52c0 -30 -24 -54 -52 -54zM448 237v-63h-385v63h385z" />
    <glyph glyph-name="brokenbar" unicode="&#xa6;" horiz-adv-x="255" 
d="M165 675v-350h-75v350h75zM165 175v-350h-75v350h75z" />
    <glyph glyph-name="degree" unicode="&#xb0;" horiz-adv-x="400" 
d="M200 640c77 0 141 -54 141 -136c0 -86 -64 -135 -141 -135s-141 49 -141 135c0 82 64 136 141 136zM200 599c-46 0 -77 -39 -77 -95c0 -55 31 -94 77 -94s77 39 77 94c0 56 -31 95 -77 95z" />
    <glyph glyph-name="thorn" unicode="&#xfe;" horiz-adv-x="522" 
d="M80 -136v664c0 67 -1 73 -26 89l-11 7c-6 4 -7 20 0 23c38 11 90 32 131 48c6 1 12 -3 14 -8c-2 -40 -3 -102 -3 -145v-164c0 -6 3 -12 8 -13c13 6 72 43 126 43c109 0 172 -82 172 -185c0 -139 -98 -237 -246 -237c-13 0 -36 2 -45 4c-9 -2 -15 -8 -15 -28v-98
c0 -74 4 -85 39 -89l36 -4c7 -7 6 -25 -2 -29c-52 2 -91 3 -128 3c-33 0 -72 -1 -112 -3c-8 4 -9 22 -2 29l26 3c34 4 38 16 38 90zM185 262v-153c0 -31 11 -47 31 -64c14 -11 39 -19 55 -19c70 0 107 72 107 164c0 94 -50 160 -128 160c-23 0 -42 -8 -54 -20
c-8 -9 -11 -26 -11 -68z" />
    <glyph glyph-name="threequarters" unicode="&#xbe;" horiz-adv-x="860" 
d="M117 208c-32 0 -70 11 -70 47c0 14 11 37 38 37c24 0 36 -23 43 -33c8 -11 16 -16 31 -16c31 0 85 39 85 109c0 50 -29 90 -72 90c-28 0 -49 -12 -66 -27c-11 6 -19 21 -14 31c40 16 130 45 130 102c0 27 -19 50 -50 50c-28 0 -57 -19 -79 -54c-10 -3 -19 4 -20 14
c26 53 78 82 136 82c67 0 106 -33 106 -75c0 -22 -11 -48 -78 -76c-7 -3 0 -9 8 -9c52 -1 104 -34 104 -99c0 -41 -24 -87 -79 -124c-54 -36 -116 -49 -153 -49zM667 628c-139 -223 -277 -445 -414 -668c-20 -1 -36 11 -41 26c139 223 277 445 414 668c17 3 39 -9 41 -26z
M633 114h-149c-5 4 -9 11 -7 19l207 280c6 8 11 13 20 13h26c11 0 15 -4 5 -17l-194 -248c-7 -9 -7 -14 6 -14h86c13 0 14 2 14 18v84c0 13 8 18 18 21c19 7 52 19 63 19c7 0 12 -4 12 -10v-114c0 -16 1 -18 15 -18h46c10 -5 10 -28 0 -33h-46c-14 0 -15 -2 -15 -18v-6
c0 -54 3 -59 38 -65l12 -2c7 -5 6 -21 -1 -25c-25 1 -60 2 -95 2c-36 0 -76 -1 -108 -2c-7 4 -8 20 -1 25l20 2c39 4 42 11 42 65v6c0 16 -1 18 -14 18z" />
    <glyph glyph-name="twosuperior" unicode="&#xb2;" 
d="M183 383h68c38 0 61 3 79 34c8 4 18 2 23 -4c-8 -32 -25 -79 -37 -100c-26 1 -67 2 -102 2h-102c-36 0 -55 -1 -67 -2c-5 4 -7 10 -5 16c26 21 47 40 99 92c42 41 84 99 84 162c0 43 -28 74 -66 74c-37 0 -64 -22 -85 -62c-10 -4 -23 3 -23 14c33 68 87 99 147 99
c84 0 130 -47 130 -111c0 -49 -32 -90 -102 -147l-28 -23c-26 -21 -33 -28 -33 -33s3 -11 20 -11z" />
    <glyph glyph-name="registered" unicode="&#xae;" horiz-adv-x="332" 
d="M119 515v59c0 14 -3 20 -13 21h-5c-1 4 -1 11 2 12c24 1 44 2 63 2c25 0 57 -5 57 -36c0 -15 -11 -25 -21 -29c-2 -1 -2 -3 0 -8c12 -21 21 -36 29 -41c4 -3 6 -5 10 -6c2 0 2 -7 0 -8c-6 -1 -10 -1 -16 -1c-18 0 -31 7 -42 22c-6 9 -10 17 -16 27c-2 4 -6 6 -10 6
c-3 0 -4 -3 -4 -5v-15c0 -16 0 -20 13 -22l4 -1c2 -1 2 -10 0 -11c-12 0 -21 1 -34 1s-23 -1 -33 -1c-3 1 -3 10 -2 11l5 1c13 3 13 5 13 22zM153 586v-32c0 -7 1 -7 11 -7c15 0 19 13 19 21c0 17 -7 26 -18 26s-12 -2 -12 -8zM166 677c75 0 136 -60 136 -133
s-61 -133 -136 -133s-136 60 -136 133s61 133 136 133zM166 654c-56 0 -104 -48 -104 -110c0 -61 48 -109 104 -109c57 0 104 48 104 109c0 62 -47 110 -104 110z" />
    <glyph glyph-name="minus" unicode="&#x2212;" horiz-adv-x="510" 
d="M448 237v-63h-385v63h385z" />
    <glyph glyph-name="eth" unicode="&#xf0;" horiz-adv-x="490" 
d="M246 26c66 0 98 56 98 189c0 58 -3 91 -16 115c-13 25 -42 38 -67 38c-63 0 -112 -65 -112 -164c0 -90 34 -178 97 -178zM458 634l-110 -53c78 -92 111 -217 111 -303c0 -192 -76 -292 -228 -292c-110 0 -200 75 -200 204c0 123 100 218 223 218c28 0 52 -4 76 -14
c-10 53 -28 100 -62 149l-140 -66c-12 4 -22 24 -18 36l134 64c-26 32 -58 58 -92 78c-32 19 -61 30 -93 33c-5 5 -4 23 3 27c64 -2 110 -15 147 -30c40 -16 80 -43 109 -72l121 59c12 -5 23 -25 19 -38z" />
    <glyph glyph-name="multiply" unicode="&#xd7;" horiz-adv-x="510" 
d="M441 338l-137 -139l137 -138l-48 -50l-138 138l-137 -138l-48 50l136 137l-136 137l48 50l137 -137l138 139z" />
    <glyph glyph-name="threesuperior" unicode="&#xb3;" 
d="M105 276c-32 0 -70 11 -70 47c0 14 11 37 38 37c24 0 36 -23 43 -33c8 -11 16 -16 31 -16c31 0 85 39 85 109c0 50 -29 90 -72 90c-28 0 -49 -12 -66 -27c-11 6 -19 21 -14 31c40 16 130 45 130 102c0 27 -19 50 -50 50c-28 0 -57 -19 -79 -54c-10 -3 -19 4 -20 14
c26 53 78 82 136 82c67 0 106 -33 106 -75c0 -22 -11 -48 -78 -76c-7 -3 0 -9 8 -9c52 -1 104 -34 104 -99c0 -41 -24 -87 -79 -124c-54 -36 -116 -49 -153 -49z" />
    <glyph glyph-name="copyright" unicode="&#xa9;" horiz-adv-x="800" 
d="M400 -16c-201 0 -350 155 -350 346s149 346 350 346s350 -155 350 -346s-149 -346 -350 -346zM400 633c-161 0 -288 -134 -288 -302c0 -170 127 -304 288 -304s288 134 288 304c0 168 -127 302 -288 302zM434 522c42 0 76 -7 118 -16c0 -17 3 -53 7 -93
c-5 -5 -16 -6 -23 -1c-8 35 -31 81 -102 81s-140 -53 -140 -160s71 -165 143 -165c67 0 93 44 111 79c7 5 19 5 23 -3c-4 -37 -19 -74 -26 -84c-6 -1 -13 -3 -20 -6c-12 -4 -51 -15 -90 -15c-51 0 -107 11 -145 37c-45 31 -80 81 -80 148c0 131 110 198 224 198z" />
    <glyph glyph-name="Aacute" unicode="&#xc1;" horiz-adv-x="627" 
d="M341 245h-133c-26 0 -25 0 -34 -27l-41 -120c-20 -59 -16 -61 21 -67l29 -5c7 -7 6 -25 -2 -29c-32 2 -65 2 -106 3c-33 0 -64 -1 -99 -3c-7 5 -8 20 -1 29l30 5c29 5 40 13 55 46c12 26 28 68 49 122l137 356c12 32 22 56 19 73c35 7 68 48 70 48c8 0 13 -3 17 -8
c16 -45 29 -92 45 -137l144 -419c23 -67 28 -73 79 -83l15 -3c8 -7 8 -24 1 -29c-41 2 -78 3 -130 3c-43 0 -87 -2 -122 -3c-8 5 -9 23 -3 29l22 3c36 5 41 11 26 53l-47 136c-9 27 -13 27 -41 27zM224 290h104c28 0 32 2 24 26l-42 120c-18 53 -23 72 -28 79h-2
c-4 -7 -13 -32 -30 -79l-42 -117c-10 -29 -8 -29 16 -29zM463 773l-194 -67c-8 2 -15 18 -13 28l162 118c15 11 24 16 31 16c10 0 20 -7 33 -28c10 -17 16 -37 14 -43c-4 -8 -14 -17 -33 -24z" />
    <glyph glyph-name="Acircumflex" unicode="&#xc2;" horiz-adv-x="627" 
d="M341 245h-133c-26 0 -25 0 -34 -27l-41 -120c-20 -59 -16 -61 21 -67l29 -5c7 -7 6 -25 -2 -29c-32 2 -65 2 -106 3c-33 0 -64 -1 -99 -3c-7 5 -8 20 -1 29l30 5c29 5 40 13 55 46c12 26 28 68 49 122l137 356c12 32 22 56 19 73c35 7 68 48 70 48c8 0 13 -3 17 -8
c16 -45 29 -92 45 -137l144 -419c23 -67 28 -73 79 -83l15 -3c8 -7 8 -24 1 -29c-41 2 -78 3 -130 3c-43 0 -87 -2 -122 -3c-8 5 -9 23 -3 29l22 3c36 5 41 11 26 53l-47 136c-9 27 -13 27 -41 27zM224 290h104c28 0 32 2 24 26l-42 120c-18 53 -23 72 -28 79h-2
c-4 -7 -13 -32 -30 -79l-42 -117c-10 -29 -8 -29 16 -29zM345 844l135 -127c0 -8 -9 -24 -15 -25l-127 65c-10 5 -25 4 -34 -1l-125 -64c-9 0 -18 17 -18 25l135 123c18 17 32 17 49 4z" />
    <glyph glyph-name="Adieresis" unicode="&#xc4;" horiz-adv-x="627" 
d="M341 245h-133c-26 0 -25 0 -34 -27l-41 -120c-20 -59 -16 -61 21 -67l29 -5c7 -7 6 -25 -2 -29c-32 2 -65 2 -106 3c-33 0 -64 -1 -99 -3c-7 5 -8 20 -1 29l30 5c29 5 40 13 55 46c12 26 28 68 49 122l137 356c12 32 22 56 19 73c35 7 68 48 70 48c8 0 13 -3 17 -8
c16 -45 29 -92 45 -137l144 -419c23 -67 28 -73 79 -83l15 -3c8 -7 8 -24 1 -29c-41 2 -78 3 -130 3c-43 0 -87 -2 -122 -3c-8 5 -9 23 -3 29l22 3c36 5 41 11 26 53l-47 136c-9 27 -13 27 -41 27zM224 290h104c28 0 32 2 24 26l-42 120c-18 53 -23 72 -28 79h-2
c-4 -7 -13 -32 -30 -79l-42 -117c-10 -29 -8 -29 16 -29zM232 705c-31 0 -57 18 -58 54c0 34 25 59 58 59c32 0 56 -26 56 -54c0 -36 -24 -59 -56 -59zM417 705c-31 0 -57 18 -58 54c0 34 25 59 58 59c32 0 56 -26 56 -54c0 -36 -24 -59 -56 -59z" />
    <glyph glyph-name="Agrave" unicode="&#xc0;" horiz-adv-x="627" 
d="M341 245h-133c-26 0 -25 0 -34 -27l-41 -120c-20 -59 -16 -61 21 -67l29 -5c7 -7 6 -25 -2 -29c-32 2 -65 2 -106 3c-33 0 -64 -1 -99 -3c-7 5 -8 20 -1 29l30 5c29 5 40 13 55 46c12 26 28 68 49 122l137 356c12 32 22 56 19 73c35 7 68 48 70 48c8 0 13 -3 17 -8
c16 -45 29 -92 45 -137l144 -419c23 -67 28 -73 79 -83l15 -3c8 -7 8 -24 1 -29c-41 2 -78 3 -130 3c-43 0 -87 -2 -122 -3c-8 5 -9 23 -3 29l22 3c36 5 41 11 26 53l-47 136c-9 27 -13 27 -41 27zM224 290h104c28 0 32 2 24 26l-42 120c-18 53 -23 72 -28 79h-2
c-4 -7 -13 -32 -30 -79l-42 -117c-10 -29 -8 -29 16 -29zM377 706l-194 67c-19 7 -29 16 -33 24c-2 6 4 26 14 43c13 21 23 28 33 28c7 0 16 -5 32 -16l161 -118c2 -9 -5 -26 -13 -28z" />
    <glyph glyph-name="Aring" unicode="&#xc5;" horiz-adv-x="627" 
d="M341 245h-133c-26 0 -25 0 -34 -27l-41 -120c-20 -59 -16 -61 21 -67l29 -5c7 -7 6 -25 -2 -29c-32 2 -65 2 -106 3c-33 0 -64 -1 -99 -3c-7 5 -8 20 -1 29l30 5c29 5 40 13 55 46c12 26 28 68 49 122l137 356c12 32 22 56 19 73c35 7 68 48 70 48c8 0 13 -3 17 -8
c16 -45 29 -92 45 -137l144 -419c23 -67 28 -73 79 -83l15 -3c8 -7 8 -24 1 -29c-41 2 -78 3 -130 3c-43 0 -87 -2 -122 -3c-8 5 -9 23 -3 29l22 3c36 5 41 11 26 53l-47 136c-9 27 -13 27 -41 27zM224 290h104c28 0 32 2 24 26l-42 120c-18 53 -23 72 -28 79h-2
c-4 -7 -13 -32 -30 -79l-42 -117c-10 -29 -8 -29 16 -29zM226 791c0 47 38 93 98 93s98 -46 98 -93c0 -49 -38 -95 -98 -95s-98 46 -98 95zM277 791c0 -35 17 -61 47 -61s47 26 47 61c0 33 -17 59 -47 59s-47 -26 -47 -59z" />
    <glyph glyph-name="Atilde" unicode="&#xc3;" horiz-adv-x="627" 
d="M341 245h-133c-26 0 -25 0 -34 -27l-41 -120c-20 -59 -16 -61 21 -67l29 -5c7 -7 6 -25 -2 -29c-32 2 -65 2 -106 3c-33 0 -64 -1 -99 -3c-7 5 -8 20 -1 29l30 5c29 5 40 13 55 46c12 26 28 68 49 122l137 356c12 32 22 56 19 73c35 7 68 48 70 48c8 0 13 -3 17 -8
c16 -45 29 -92 45 -137l144 -419c23 -67 28 -73 79 -83l15 -3c8 -7 8 -24 1 -29c-41 2 -78 3 -130 3c-43 0 -87 -2 -122 -3c-8 5 -9 23 -3 29l22 3c36 5 41 11 26 53l-47 136c-9 27 -13 27 -41 27zM224 290h104c28 0 32 2 24 26l-42 120c-18 53 -23 72 -28 79h-2
c-4 -7 -13 -32 -30 -79l-42 -117c-10 -29 -8 -29 16 -29zM294 807h57c25 0 45 4 60 15c11 7 20 20 26 32c4 2 19 1 24 -4c-9 -32 -30 -77 -44 -91c-18 -18 -31 -22 -56 -22h-63c-29 0 -51 -5 -62 -18c-11 -7 -22 -25 -30 -41c-10 -1 -19 0 -22 6c4 21 24 76 41 96
c21 23 40 27 69 27z" />
    <glyph glyph-name="Ccedilla" unicode="&#xc7;" horiz-adv-x="694" 
d="M346 -96l61 82c-86 3 -159 24 -223 65c-81 53 -142 144 -142 275c0 117 52 208 126 265c74 56 175 85 276 85c57 0 126 -10 173 -22c12 -3 19 -4 28 -6c2 -23 4 -82 14 -156c-7 -8 -25 -9 -32 -2c-17 63 -62 146 -194 146c-127 0 -255 -90 -255 -295
c0 -213 133 -317 262 -317c126 0 181 84 209 149c9 9 25 5 30 -4c-7 -67 -34 -133 -48 -152c-12 -2 -24 -6 -35 -9c-21 -7 -84 -22 -145 -23l-26 -35c-8 -11 -6 -13 9 -21c35 -19 57 -42 57 -79c0 -53 -56 -89 -117 -89c-44 0 -71 16 -71 42c0 17 12 31 30 31
c25 0 42 -35 62 -35c11 0 25 11 25 32c0 27 -37 52 -71 67z" />
    <glyph glyph-name="Eacute" unicode="&#xc9;" horiz-adv-x="580" 
d="M119 144v372c0 106 -9 110 -56 116l-16 2c-7 7 -6 25 2 29c38 -2 85 -3 129 -3h191c64 0 122 1 135 3c4 -17 10 -96 16 -139c-4 -8 -24 -10 -32 -4c-16 58 -31 82 -63 91c-23 6 -53 9 -80 9h-67c-43 0 -43 -2 -43 -59v-169c0 -26 1 -27 24 -27h48c87 0 102 1 111 44l7 34
c8 7 27 7 32 -1c-1 -27 -3 -63 -3 -100c0 -38 2 -73 3 -105c-5 -7 -24 -7 -32 -1l-7 40c-7 42 -24 44 -111 44h-48c-23 0 -24 -2 -24 -27v-127c0 -51 2 -87 17 -104c12 -14 29 -21 113 -22c127 -1 149 27 184 108c9 7 26 4 32 -6c-6 -42 -28 -118 -42 -145
c-44 2 -130 3 -247 3h-114c-44 0 -105 -1 -150 -3c-8 4 -9 22 -2 29l37 4c47 5 56 8 56 114zM459 773l-194 -67c-8 2 -15 18 -13 28l162 118c15 11 24 16 31 16c10 0 20 -7 33 -28c10 -17 16 -37 14 -43c-4 -8 -14 -17 -33 -24z" />
    <glyph glyph-name="Ecircumflex" unicode="&#xca;" horiz-adv-x="580" 
d="M119 144v372c0 106 -9 110 -56 116l-16 2c-7 7 -6 25 2 29c38 -2 85 -3 129 -3h191c64 0 122 1 135 3c4 -17 10 -96 16 -139c-4 -8 -24 -10 -32 -4c-16 58 -31 82 -63 91c-23 6 -53 9 -80 9h-67c-43 0 -43 -2 -43 -59v-169c0 -26 1 -27 24 -27h48c87 0 102 1 111 44l7 34
c8 7 27 7 32 -1c-1 -27 -3 -63 -3 -100c0 -38 2 -73 3 -105c-5 -7 -24 -7 -32 -1l-7 40c-7 42 -24 44 -111 44h-48c-23 0 -24 -2 -24 -27v-127c0 -51 2 -87 17 -104c12 -14 29 -21 113 -22c127 -1 149 27 184 108c9 7 26 4 32 -6c-6 -42 -28 -118 -42 -145
c-44 2 -130 3 -247 3h-114c-44 0 -105 -1 -150 -3c-8 4 -9 22 -2 29l37 4c47 5 56 8 56 114zM331 859l135 -127c0 -8 -8 -24 -15 -25l-126 65c-10 5 -26 5 -35 0l-125 -65c-9 0 -18 17 -18 25l137 127c15 14 32 14 47 0z" />
    <glyph glyph-name="Edieresis" unicode="&#xcb;" horiz-adv-x="580" 
d="M119 144v372c0 106 -9 110 -56 116l-16 2c-7 7 -6 25 2 29c38 -2 85 -3 129 -3h191c64 0 122 1 135 3c4 -17 10 -96 16 -139c-4 -8 -24 -10 -32 -4c-16 58 -31 82 -63 91c-23 6 -53 9 -80 9h-67c-43 0 -43 -2 -43 -59v-169c0 -26 1 -27 24 -27h48c87 0 102 1 111 44l7 34
c8 7 27 7 32 -1c-1 -27 -3 -63 -3 -100c0 -38 2 -73 3 -105c-5 -7 -24 -7 -32 -1l-7 40c-7 42 -24 44 -111 44h-48c-23 0 -24 -2 -24 -27v-127c0 -51 2 -87 17 -104c12 -14 29 -21 113 -22c127 -1 149 27 184 108c9 7 26 4 32 -6c-6 -42 -28 -118 -42 -145
c-44 2 -130 3 -247 3h-114c-44 0 -105 -1 -150 -3c-8 4 -9 22 -2 29l37 4c47 5 56 8 56 114zM220 705c-31 0 -57 18 -58 54c0 34 25 59 58 59c31 0 56 -26 56 -54c0 -36 -25 -59 -56 -59zM405 705c-31 0 -57 18 -58 54c0 34 25 59 58 59c32 0 56 -26 56 -54
c0 -36 -24 -59 -56 -59z" />
    <glyph glyph-name="Egrave" unicode="&#xc8;" horiz-adv-x="580" 
d="M119 144v372c0 106 -9 110 -56 116l-16 2c-7 7 -6 25 2 29c38 -2 85 -3 129 -3h191c64 0 122 1 135 3c4 -17 10 -96 16 -139c-4 -8 -24 -10 -32 -4c-16 58 -31 82 -63 91c-23 6 -53 9 -80 9h-67c-43 0 -43 -2 -43 -59v-169c0 -26 1 -27 24 -27h48c87 0 102 1 111 44l7 34
c8 7 27 7 32 -1c-1 -27 -3 -63 -3 -100c0 -38 2 -73 3 -105c-5 -7 -24 -7 -32 -1l-7 40c-7 42 -24 44 -111 44h-48c-23 0 -24 -2 -24 -27v-127c0 -51 2 -87 17 -104c12 -14 29 -21 113 -22c127 -1 149 27 184 108c9 7 26 4 32 -6c-6 -42 -28 -118 -42 -145
c-44 2 -130 3 -247 3h-114c-44 0 -105 -1 -150 -3c-8 4 -9 22 -2 29l37 4c47 5 56 8 56 114zM345 706l-194 67c-19 7 -29 16 -33 24c-2 6 4 26 14 43c13 21 23 28 33 28c7 0 16 -5 32 -16l161 -118c2 -9 -5 -26 -13 -28z" />
    <glyph glyph-name="Iacute" unicode="&#xcd;" horiz-adv-x="354" 
d="M235 516v-372c0 -106 9 -109 56 -115l22 -3c7 -7 6 -25 -2 -29c-44 2 -89 3 -133 3s-91 -1 -135 -3c-8 4 -9 22 -2 29l22 3c47 6 56 9 56 115v372c0 106 -9 109 -56 115l-22 3c-7 7 -6 25 2 29c44 -2 89 -3 135 -3c44 0 89 1 133 3c8 -4 9 -22 2 -29l-22 -3
c-47 -6 -56 -9 -56 -115zM326 773l-194 -67c-8 2 -15 18 -13 28l162 118c15 11 24 16 31 16c10 0 20 -7 33 -28c10 -17 16 -37 14 -43c-4 -8 -14 -17 -33 -24z" />
    <glyph glyph-name="Icircumflex" unicode="&#xce;" horiz-adv-x="354" 
d="M235 516v-372c0 -106 9 -109 56 -115l22 -3c7 -7 6 -25 -2 -29c-44 2 -89 3 -133 3s-91 -1 -135 -3c-8 4 -9 22 -2 29l22 3c47 6 56 9 56 115v372c0 106 -9 109 -56 115l-22 3c-7 7 -6 25 2 29c44 -2 89 -3 135 -3c44 0 89 1 133 3c8 -4 9 -22 2 -29l-22 -3
c-47 -6 -56 -9 -56 -115zM209 859l135 -127c0 -8 -8 -24 -15 -25l-126 65c-10 5 -26 5 -37 -1l-123 -64c-9 0 -18 17 -18 25l137 127c15 14 32 14 47 0z" />
    <glyph glyph-name="Idieresis" unicode="&#xcf;" horiz-adv-x="354" 
d="M235 516v-372c0 -106 9 -109 56 -115l22 -3c7 -7 6 -25 -2 -29c-44 2 -89 3 -133 3s-91 -1 -135 -3c-8 4 -9 22 -2 29l22 3c47 6 56 9 56 115v372c0 106 -9 109 -56 115l-22 3c-7 7 -6 25 2 29c44 -2 89 -3 135 -3c44 0 89 1 133 3c8 -4 9 -22 2 -29l-22 -3
c-47 -6 -56 -9 -56 -115zM95 705c-32 0 -57 18 -58 54c0 34 25 59 58 59c32 0 56 -26 56 -54c0 -36 -24 -59 -56 -59zM280 705c-31 0 -57 18 -58 54c0 34 25 59 58 59c32 0 56 -26 56 -54c0 -36 -24 -59 -56 -59z" />
    <glyph glyph-name="Igrave" unicode="&#xcc;" horiz-adv-x="354" 
d="M235 516v-372c0 -106 9 -109 56 -115l22 -3c7 -7 6 -25 -2 -29c-44 2 -89 3 -133 3s-91 -1 -135 -3c-8 4 -9 22 -2 29l22 3c47 6 56 9 56 115v372c0 106 -9 109 -56 115l-22 3c-7 7 -6 25 2 29c44 -2 89 -3 135 -3c44 0 89 1 133 3c8 -4 9 -22 2 -29l-22 -3
c-47 -6 -56 -9 -56 -115zM230 706l-194 67c-19 7 -29 16 -33 24c-2 6 4 26 14 43c13 21 23 28 33 28c7 0 16 -5 32 -16l161 -118c2 -9 -5 -26 -13 -28z" />
    <glyph glyph-name="Ntilde" unicode="&#xd1;" horiz-adv-x="780" 
d="M669 409v-239c0 -30 0 -153 3 -176c-8 -11 -22 -15 -34 -14c-16 21 -45 55 -117 137l-234 267c-64 74 -97 111 -114 126c-3 0 -3 -11 -3 -64v-195c0 -75 1 -167 18 -197c9 -15 26 -22 51 -25l22 -3c9 -7 8 -26 -2 -29c-37 2 -76 3 -114 3c-42 0 -69 -1 -104 -3
c-8 5 -10 22 -2 29l22 5c19 4 37 7 44 23c13 31 13 118 13 197v237c0 78 1 94 -33 123c-11 9 -39 17 -53 20l-15 3c-7 6 -6 26 4 29c38 -4 93 -3 118 -3c21 0 45 1 69 3c17 -43 126 -169 161 -207l100 -108c42 -46 135 -152 145 -158c3 3 3 8 3 24v195c0 75 -1 167 -19 197
c-9 15 -25 22 -50 25l-23 3c-9 7 -8 26 2 29c39 -2 76 -3 115 -3c43 0 69 1 105 3c8 -5 10 -22 2 -29l-23 -5c-19 -4 -36 -7 -43 -23c-14 -31 -14 -118 -14 -197zM375 807h57c25 0 45 4 60 15c11 7 20 20 26 32c4 2 19 1 24 -4c-9 -32 -30 -77 -44 -91
c-18 -18 -31 -22 -56 -22h-63c-29 0 -51 -5 -62 -18c-11 -7 -22 -25 -30 -41c-10 -1 -19 0 -22 6c4 21 24 76 41 96c21 23 40 27 69 27z" />
    <glyph glyph-name="Oacute" unicode="&#xd3;" horiz-adv-x="792" 
d="M400 676c231 0 350 -166 350 -348c0 -197 -150 -344 -352 -344c-226 0 -356 159 -356 337c0 204 148 355 358 355zM387 636c-100 0 -209 -73 -209 -286c0 -138 59 -326 230 -326c114 0 206 85 206 286c0 151 -68 326 -227 326zM535 773l-194 -67c-8 2 -15 18 -13 28
l162 118c15 11 24 16 31 16c10 0 20 -7 33 -28c10 -17 16 -37 14 -43c-4 -8 -14 -17 -33 -24z" />
    <glyph glyph-name="Ocircumflex" unicode="&#xd4;" horiz-adv-x="792" 
d="M400 676c231 0 350 -166 350 -348c0 -197 -150 -344 -352 -344c-226 0 -356 159 -356 337c0 204 148 355 358 355zM387 636c-100 0 -209 -73 -209 -286c0 -138 59 -326 230 -326c114 0 206 85 206 286c0 151 -68 326 -227 326zM432 859l135 -127c0 -8 -8 -24 -15 -25
l-126 64c-10 5 -26 5 -35 0l-125 -64c-9 0 -18 17 -18 25l137 127c15 14 32 14 47 0z" />
    <glyph glyph-name="Odieresis" unicode="&#xd6;" horiz-adv-x="792" 
d="M400 676c231 0 350 -166 350 -348c0 -197 -150 -344 -352 -344c-226 0 -356 159 -356 337c0 204 148 355 358 355zM387 636c-100 0 -209 -73 -209 -286c0 -138 59 -326 230 -326c114 0 206 85 206 286c0 151 -68 326 -227 326zM294 705c-31 0 -57 18 -58 54
c0 34 25 59 58 59c32 0 56 -26 56 -54c0 -36 -24 -59 -56 -59zM519 705c-31 0 -57 18 -58 54c0 34 25 59 58 59c32 0 56 -26 56 -54c0 -36 -24 -59 -56 -59z" />
    <glyph glyph-name="Ograve" unicode="&#xd2;" horiz-adv-x="792" 
d="M400 676c231 0 350 -166 350 -348c0 -197 -150 -344 -352 -344c-226 0 -356 159 -356 337c0 204 148 355 358 355zM387 636c-100 0 -209 -73 -209 -286c0 -138 59 -326 230 -326c114 0 206 85 206 286c0 151 -68 326 -227 326zM444 706l-194 67c-19 7 -29 16 -33 24
c-2 6 4 26 14 43c13 21 23 28 33 28c7 0 16 -5 32 -16l161 -118c2 -9 -5 -26 -13 -28z" />
    <glyph glyph-name="Otilde" unicode="&#xd5;" horiz-adv-x="792" 
d="M400 676c231 0 350 -166 350 -348c0 -197 -150 -344 -352 -344c-226 0 -356 159 -356 337c0 204 148 355 358 355zM387 636c-100 0 -209 -73 -209 -286c0 -138 59 -326 230 -326c114 0 206 85 206 286c0 151 -68 326 -227 326zM381 812h57c25 0 45 4 60 15
c11 7 20 20 26 32c4 2 19 1 24 -4c-9 -32 -30 -77 -44 -91c-18 -18 -31 -22 -56 -22h-63c-29 0 -51 -5 -62 -18c-11 -7 -22 -25 -30 -41c-10 -1 -19 0 -22 6c4 21 24 76 41 96c21 23 40 27 69 27z" />
    <glyph glyph-name="Scaron" unicode="&#x160;" horiz-adv-x="504" 
d="M231 -16c-92 0 -144 30 -164 42c-18 21 -31 90 -30 152c6 10 23 11 31 4c18 -51 72 -158 170 -158c76 0 119 46 119 107c0 57 -27 103 -102 145l-43 24c-75 42 -141 103 -141 193c0 99 74 183 220 183c52 0 90 -12 137 -21c11 -22 21 -88 21 -135c-5 -9 -23 -10 -32 -3
c-15 52 -50 119 -135 119c-80 0 -113 -52 -113 -105c0 -42 29 -87 95 -122l62 -33c65 -34 137 -96 137 -197c0 -114 -87 -195 -232 -195zM434 848l-136 -127c-16 -15 -31 -14 -46 0l-138 127c0 10 9 24 18 24l125 -68c9 -6 24 -7 34 0l127 68c6 -1 16 -14 16 -24z" />
    <glyph glyph-name="Uacute" unicode="&#xda;" horiz-adv-x="744" 
d="M113 262v254c0 106 -9 108 -56 116l-17 3c-7 7 -6 24 2 28c40 -2 85 -3 129 -3c45 0 90 1 134 3c8 -4 9 -21 2 -28l-22 -3c-47 -6 -56 -10 -56 -116v-229c0 -138 42 -254 181 -254c131 0 185 99 185 251v125c0 75 -1 168 -19 197c-9 15 -25 22 -50 26l-20 3
c-9 7 -8 25 2 28c34 -2 72 -3 111 -3c42 0 69 1 106 3c8 -5 10 -21 2 -28l-22 -5c-19 -4 -37 -8 -44 -24c-14 -30 -14 -118 -14 -197v-119c0 -91 -14 -175 -66 -231s-127 -75 -196 -75c-94 0 -160 20 -206 64c-45 43 -66 113 -66 214zM541 773l-194 -67c-8 2 -15 18 -13 28
l162 118c15 11 24 16 31 16c10 0 20 -7 33 -28c10 -17 16 -37 14 -43c-4 -8 -14 -17 -33 -24z" />
    <glyph glyph-name="Ucircumflex" unicode="&#xdb;" horiz-adv-x="744" 
d="M113 262v254c0 106 -9 108 -56 116l-17 3c-7 7 -6 24 2 28c40 -2 85 -3 129 -3c45 0 90 1 134 3c8 -4 9 -21 2 -28l-22 -3c-47 -6 -56 -10 -56 -116v-229c0 -138 42 -254 181 -254c131 0 185 99 185 251v125c0 75 -1 168 -19 197c-9 15 -25 22 -50 26l-20 3
c-9 7 -8 25 2 28c34 -2 72 -3 111 -3c42 0 69 1 106 3c8 -5 10 -21 2 -28l-22 -5c-19 -4 -37 -8 -44 -24c-14 -30 -14 -118 -14 -197v-119c0 -91 -14 -175 -66 -231s-127 -75 -196 -75c-94 0 -160 20 -206 64c-45 43 -66 113 -66 214zM425 859l135 -127c0 -8 -8 -24 -15 -25
l-126 69c-10 6 -26 5 -35 0l-125 -69c-9 0 -18 17 -18 25l137 127c15 14 32 14 47 0z" />
    <glyph glyph-name="Udieresis" unicode="&#xdc;" horiz-adv-x="744" 
d="M113 262v254c0 106 -9 108 -56 116l-17 3c-7 7 -6 24 2 28c40 -2 85 -3 129 -3c45 0 90 1 134 3c8 -4 9 -21 2 -28l-22 -3c-47 -6 -56 -10 -56 -116v-229c0 -138 42 -254 181 -254c131 0 185 99 185 251v125c0 75 -1 168 -19 197c-9 15 -25 22 -50 26l-20 3
c-9 7 -8 25 2 28c34 -2 72 -3 111 -3c42 0 69 1 106 3c8 -5 10 -21 2 -28l-22 -5c-19 -4 -37 -8 -44 -24c-14 -30 -14 -118 -14 -197v-119c0 -91 -14 -175 -66 -231s-127 -75 -196 -75c-94 0 -160 20 -206 64c-45 43 -66 113 -66 214zM298 705c-31 0 -57 18 -58 54
c0 34 25 59 58 59c32 0 56 -26 56 -54c0 -36 -24 -59 -56 -59zM503 705c-31 0 -57 18 -58 54c0 34 25 59 58 59c32 0 56 -26 56 -54c0 -36 -24 -59 -56 -59z" />
    <glyph glyph-name="Ugrave" unicode="&#xd9;" horiz-adv-x="744" 
d="M113 262v254c0 106 -9 108 -56 116l-17 3c-7 7 -6 24 2 28c40 -2 85 -3 129 -3c45 0 90 1 134 3c8 -4 9 -21 2 -28l-22 -3c-47 -6 -56 -10 -56 -116v-229c0 -138 42 -254 181 -254c131 0 185 99 185 251v125c0 75 -1 168 -19 197c-9 15 -25 22 -50 26l-20 3
c-9 7 -8 25 2 28c34 -2 72 -3 111 -3c42 0 69 1 106 3c8 -5 10 -21 2 -28l-22 -5c-19 -4 -37 -8 -44 -24c-14 -30 -14 -118 -14 -197v-119c0 -91 -14 -175 -66 -231s-127 -75 -196 -75c-94 0 -160 20 -206 64c-45 43 -66 113 -66 214zM465 706l-194 67c-19 7 -29 16 -33 24
c-2 6 4 26 14 43c13 21 23 28 33 28c7 0 16 -5 32 -16l161 -118c2 -9 -5 -26 -13 -28z" />
    <glyph glyph-name="Yacute" unicode="&#xdd;" horiz-adv-x="590" 
d="M241 144v59c0 56 -5 71 -32 124l-120 237c-22 43 -30 54 -75 64l-26 6c-6 7 -4 26 4 29c43 -2 85 -3 126 -3c44 0 105 1 128 3c8 -4 10 -22 2 -29l-30 -5c-16 -3 -21 -5 -21 -13s3 -19 18 -52c39 -86 76 -167 116 -240c41 76 78 146 117 221c17 34 27 56 27 67
c0 10 -9 13 -23 15l-30 7c-7 7 -7 24 3 29c44 -2 75 -3 105 -3c31 0 63 1 95 3c9 -5 9 -21 2 -29l-29 -6c-45 -9 -57 -27 -109 -115c-34 -57 -64 -112 -95 -168c-30 -52 -37 -73 -37 -141v-60c0 -106 9 -109 58 -114l38 -4c7 -7 6 -25 -2 -29c-62 2 -107 3 -151 3
c-46 0 -91 -1 -145 -3c-8 4 -9 22 -2 29l32 4c47 6 56 8 56 114zM464 773l-194 -67c-8 2 -15 18 -13 28l162 118c15 11 24 16 31 16c10 0 20 -7 33 -28c10 -17 16 -37 14 -43c-4 -8 -14 -17 -33 -24z" />
    <glyph glyph-name="Ydieresis" unicode="&#x178;" horiz-adv-x="590" 
d="M241 144v59c0 56 -5 71 -32 124l-120 237c-22 43 -30 54 -75 64l-26 6c-6 7 -4 26 4 29c43 -2 85 -3 126 -3c44 0 105 1 128 3c8 -4 10 -22 2 -29l-30 -5c-16 -3 -21 -5 -21 -13s3 -19 18 -52c39 -86 76 -167 116 -240c41 76 78 146 117 221c17 34 27 56 27 67
c0 10 -9 13 -23 15l-30 7c-7 7 -7 24 3 29c44 -2 75 -3 105 -3c31 0 63 1 95 3c9 -5 9 -21 2 -29l-29 -6c-45 -9 -57 -27 -109 -115c-34 -57 -64 -112 -95 -168c-30 -52 -37 -73 -37 -141v-60c0 -106 9 -109 58 -114l38 -4c7 -7 6 -25 -2 -29c-62 2 -107 3 -151 3
c-46 0 -91 -1 -145 -3c-8 4 -9 22 -2 29l32 4c47 6 56 8 56 114zM233 705c-31 0 -57 18 -58 54c0 34 25 59 58 59c32 0 56 -26 56 -54c0 -36 -24 -59 -56 -59zM418 705c-31 0 -57 18 -58 54c0 34 25 59 58 59c32 0 56 -26 56 -54c0 -36 -24 -59 -56 -59z" />
    <glyph glyph-name="Zcaron" unicode="&#x17d;" horiz-adv-x="638" 
d="M213 660h264c67 0 97 2 113 4c7 -2 10 -9 9 -16c-24 -23 -98 -133 -153 -216l-162 -244c-16 -25 -80 -119 -80 -131c0 -11 14 -14 32 -15c20 -1 43 -2 116 -2c92 0 142 5 173 23c28 17 52 52 73 106c9 6 29 2 32 -8c-9 -66 -31 -139 -48 -164c-55 2 -114 3 -185 3h-260
c-55 0 -87 -1 -105 -3c-5 2 -8 9 -6 15c15 19 70 89 114 155l220 332c40 61 69 105 69 114c0 7 -15 7 -34 7h-121c-76 0 -123 -9 -148 -34c-20 -20 -36 -51 -46 -76c-10 -7 -28 -3 -32 7c15 58 32 113 43 168c4 4 13 4 17 0c7 -23 26 -25 105 -25zM501 848l-136 -127
c-16 -15 -31 -14 -46 0l-138 127c0 10 9 24 18 24l125 -68c9 -6 24 -7 34 0l127 68c6 -1 16 -14 16 -24z" />
    <glyph glyph-name="aacute" unicode="&#xe1;" horiz-adv-x="420" 
d="M350 283l-7 -156c-3 -58 12 -88 48 -88c17 0 31 11 34 11c5 0 12 -11 9 -20c-20 -28 -69 -44 -100 -44c-25 0 -53 7 -72 28c-7 7 -11 12 -16 12s-12 -5 -27 -14c-19 -12 -49 -26 -85 -26c-68 0 -102 47 -102 97c0 36 14 69 83 93c35 12 73 26 110 40c20 7 23 16 23 26
l1 26c2 51 -12 95 -61 95c-28 0 -49 -15 -53 -44c-2 -19 -8 -29 -19 -36c-14 -9 -42 -18 -64 -18c-13 0 -19 7 -19 16c0 12 6 33 39 64c31 29 103 63 154 63c79 0 128 -37 124 -125zM243 89l2 72c0 11 -3 17 -8 17c-8 0 -26 -5 -44 -12c-28 -10 -54 -24 -54 -67
c0 -26 18 -58 56 -58c36 0 47 24 48 48zM323 584l-128 -143c-12 -1 -22 4 -24 14l85 182c11 23 22 31 31 31c11 0 21 -6 37 -16c17 -12 24 -20 24 -32s-11 -23 -25 -36z" />
    <glyph glyph-name="acircumflex" unicode="&#xe2;" horiz-adv-x="420" 
d="M350 283l-7 -156c-3 -58 12 -88 48 -88c17 0 31 11 34 11c5 0 12 -11 9 -20c-20 -28 -69 -44 -100 -44c-25 0 -53 7 -72 28c-7 7 -11 12 -16 12s-12 -5 -27 -14c-19 -12 -49 -26 -85 -26c-68 0 -102 47 -102 97c0 36 14 69 83 93c35 12 73 26 110 40c20 7 23 16 23 26
l1 26c2 51 -12 95 -61 95c-28 0 -49 -15 -53 -44c-2 -19 -8 -29 -19 -36c-14 -9 -42 -18 -64 -18c-13 0 -19 7 -19 16c0 12 6 33 39 64c31 29 103 63 154 63c79 0 128 -37 124 -125zM243 89l2 72c0 11 -3 17 -8 17c-8 0 -26 -5 -44 -12c-28 -10 -54 -24 -54 -67
c0 -26 18 -58 56 -58c36 0 47 24 48 48zM84 458l103 206c7 11 16 13 22 13c5 0 15 -1 21 -13l100 -200c-1 -11 -13 -18 -25 -18l-74 92c-12 15 -18 23 -24 23c-3 0 -11 -12 -26 -29l-74 -88c-12 -1 -21 6 -23 14z" />
    <glyph glyph-name="adieresis" unicode="&#xe4;" horiz-adv-x="420" 
d="M350 283l-7 -156c-3 -58 12 -88 48 -88c17 0 31 11 34 11c5 0 12 -11 9 -20c-20 -28 -69 -44 -100 -44c-25 0 -53 7 -72 28c-7 7 -11 12 -16 12s-12 -5 -27 -14c-19 -12 -49 -26 -85 -26c-68 0 -102 47 -102 97c0 36 14 69 83 93c35 12 73 26 110 40c20 7 23 16 23 26
l1 26c2 51 -12 95 -61 95c-28 0 -49 -15 -53 -44c-2 -19 -8 -29 -19 -36c-14 -9 -42 -18 -64 -18c-13 0 -19 7 -19 16c0 12 6 33 39 64c31 29 103 63 154 63c79 0 128 -37 124 -125zM243 89l2 72c0 11 -3 17 -8 17c-8 0 -26 -5 -44 -12c-28 -10 -54 -24 -54 -67
c0 -26 18 -58 56 -58c36 0 47 24 48 48zM119 485c-34 0 -59 19 -60 56c0 34 25 61 60 61c32 0 56 -28 56 -56c0 -37 -24 -61 -56 -61zM292 485c-33 0 -57 19 -58 56c-1 34 24 61 58 61s57 -28 57 -56c0 -37 -23 -61 -57 -61z" />
    <glyph glyph-name="agrave" unicode="&#xe0;" horiz-adv-x="420" 
d="M350 283l-7 -156c-3 -58 12 -88 48 -88c17 0 31 11 34 11c5 0 12 -11 9 -20c-20 -28 -69 -44 -100 -44c-25 0 -53 7 -72 28c-7 7 -11 12 -16 12s-12 -5 -27 -14c-19 -12 -49 -26 -85 -26c-68 0 -102 47 -102 97c0 36 14 69 83 93c35 12 73 26 110 40c20 7 23 16 23 26
l1 26c2 51 -12 95 -61 95c-28 0 -49 -15 -53 -44c-2 -19 -8 -29 -19 -36c-14 -9 -42 -18 -64 -18c-13 0 -19 7 -19 16c0 12 6 33 39 64c31 29 103 63 154 63c79 0 128 -37 124 -125zM243 89l2 72c0 11 -3 17 -8 17c-8 0 -26 -5 -44 -12c-28 -10 -54 -24 -54 -67
c0 -26 18 -58 56 -58c36 0 47 24 48 48zM225 447l-115 146c-13 16 -22 28 -22 39c0 13 8 20 24 31c14 7 26 13 36 13c12 0 21 -10 30 -32l72 -184c-3 -11 -13 -15 -25 -13z" />
    <glyph glyph-name="aring" unicode="&#xe5;" horiz-adv-x="420" 
d="M350 283l-7 -156c-3 -58 12 -88 48 -88c17 0 31 11 34 11c5 0 12 -11 9 -20c-20 -28 -69 -44 -100 -44c-25 0 -53 7 -72 28c-7 7 -11 12 -16 12s-12 -5 -27 -14c-19 -12 -49 -26 -85 -26c-68 0 -102 47 -102 97c0 36 14 69 83 93c35 12 73 26 110 40c20 7 23 16 23 26
l1 26c2 51 -12 95 -61 95c-28 0 -49 -15 -53 -44c-2 -19 -8 -29 -19 -36c-14 -9 -42 -18 -64 -18c-13 0 -19 7 -19 16c0 12 6 33 39 64c31 29 103 63 154 63c79 0 128 -37 124 -125zM243 89l2 72c0 11 -3 17 -8 17c-8 0 -26 -5 -44 -12c-28 -10 -54 -24 -54 -67
c0 -26 18 -58 56 -58c36 0 47 24 48 48zM117 556c0 47 36 93 93 93s93 -46 93 -93c0 -49 -36 -95 -93 -95s-93 46 -93 95zM166 556c0 -35 16 -61 44 -61s44 26 44 61c0 33 -16 59 -44 59s-44 -26 -44 -59z" />
    <glyph glyph-name="atilde" unicode="&#xe3;" horiz-adv-x="420" 
d="M350 283l-7 -156c-3 -58 12 -88 48 -88c17 0 31 11 34 11c5 0 12 -11 9 -20c-20 -28 -69 -44 -100 -44c-25 0 -53 7 -72 28c-7 7 -11 12 -16 12s-12 -5 -27 -14c-19 -12 -49 -26 -85 -26c-68 0 -102 47 -102 97c0 36 14 69 83 93c35 12 73 26 110 40c20 7 23 16 23 26
l1 26c2 51 -12 95 -61 95c-28 0 -49 -15 -53 -44c-2 -19 -8 -29 -19 -36c-14 -9 -42 -18 -64 -18c-13 0 -19 7 -19 16c0 12 6 33 39 64c31 29 103 63 154 63c79 0 128 -37 124 -125zM243 89l2 72c0 11 -3 17 -8 17c-8 0 -26 -5 -44 -12c-28 -10 -54 -24 -54 -67
c0 -26 18 -58 56 -58c36 0 47 24 48 48zM185 574h55c24 0 44 2 58 13c11 8 19 19 24 31c5 2 19 1 23 -3c-7 -31 -28 -74 -42 -88c-17 -17 -29 -20 -53 -20h-61c-27 0 -48 -7 -59 -18c-10 -7 -21 -24 -30 -40c-9 -1 -18 0 -21 6c4 20 23 73 41 93c20 22 37 26 65 26z" />
    <glyph glyph-name="ccedilla" unicode="&#xe7;" horiz-adv-x="402" 
d="M186 -86l55 73c-5 -1 -9 -1 -13 -1c-53 0 -105 21 -139 54c-35 34 -58 86 -58 144c0 117 85 224 246 224c29 0 58 -4 86 -14c13 -12 20 -28 20 -51c0 -32 -17 -47 -25 -47c-7 0 -12 2 -19 11c-22 29 -52 61 -91 61c-57 0 -116 -56 -116 -150c0 -81 52 -158 143 -158
c65 0 88 24 108 53c9 1 20 -6 21 -18c-25 -57 -71 -88 -117 -100l-30 -40c-8 -10 -5 -12 8 -19c32 -17 52 -38 52 -71c0 -48 -51 -80 -106 -80c-39 0 -63 14 -63 38c0 15 10 28 27 28c22 0 37 -32 55 -32c10 0 23 10 23 29c0 24 -33 47 -64 60z" />
    <glyph glyph-name="eacute" unicode="&#xe9;" horiz-adv-x="409" 
d="M318 237h-173c-19 0 -21 -1 -21 -13c0 -90 62 -162 151 -162c40 0 73 13 96 50c10 3 21 -7 22 -16c-34 -80 -108 -110 -169 -110c-116 0 -193 86 -193 200c0 113 77 222 211 222c74 0 150 -48 150 -135c0 -9 -1 -15 -5 -23c-6 -9 -29 -13 -69 -13zM146 277h91
c29 0 42 3 49 7c6 4 10 12 10 21c0 36 -23 65 -66 65c-67 0 -98 -65 -98 -86c0 -4 2 -7 14 -7zM347 589l-129 -143c-13 -1 -22 4 -24 15l85 181c11 23 22 32 31 32c11 0 21 -5 38 -16c17 -12 23 -20 23 -32s-12 -23 -24 -37z" />
    <glyph glyph-name="ecircumflex" unicode="&#xea;" horiz-adv-x="409" 
d="M318 237h-173c-19 0 -21 -1 -21 -13c0 -90 62 -162 151 -162c40 0 73 13 96 50c10 3 21 -7 22 -16c-34 -80 -108 -110 -169 -110c-116 0 -193 86 -193 200c0 113 77 222 211 222c74 0 150 -48 150 -135c0 -9 -1 -15 -5 -23c-6 -9 -29 -13 -69 -13zM146 277h91
c29 0 42 3 49 7c6 4 10 12 10 21c0 36 -23 65 -66 65c-67 0 -98 -65 -98 -86c0 -4 2 -7 14 -7zM108 453l99 196c6 11 14 13 21 13c4 0 12 -1 20 -13l95 -191c-1 -11 -12 -17 -24 -17l-70 87c-12 15 -18 22 -23 22c-4 0 -12 -10 -26 -27l-70 -84c-12 -1 -20 5 -22 14z" />
    <glyph glyph-name="edieresis" unicode="&#xeb;" horiz-adv-x="409" 
d="M318 237h-173c-19 0 -21 -1 -21 -13c0 -90 62 -162 151 -162c40 0 73 13 96 50c10 3 21 -7 22 -16c-34 -80 -108 -110 -169 -110c-116 0 -193 86 -193 200c0 113 77 222 211 222c74 0 150 -48 150 -135c0 -9 -1 -15 -5 -23c-6 -9 -29 -13 -69 -13zM146 277h91
c29 0 42 3 49 7c6 4 10 12 10 21c0 36 -23 65 -66 65c-67 0 -98 -65 -98 -86c0 -4 2 -7 14 -7zM139 485c-34 0 -59 19 -60 56c0 34 25 61 60 61c32 0 56 -28 56 -56c0 -37 -24 -61 -56 -61zM316 485c-33 0 -57 19 -58 56c-1 34 24 61 58 61s57 -28 57 -56
c0 -37 -23 -61 -57 -61z" />
    <glyph glyph-name="egrave" unicode="&#xe8;" horiz-adv-x="409" 
d="M318 237h-173c-19 0 -21 -1 -21 -13c0 -90 62 -162 151 -162c40 0 73 13 96 50c10 3 21 -7 22 -16c-34 -80 -108 -110 -169 -110c-116 0 -193 86 -193 200c0 113 77 222 211 222c74 0 150 -48 150 -135c0 -9 -1 -15 -5 -23c-6 -9 -29 -13 -69 -13zM146 277h91
c29 0 42 3 49 7c6 4 10 12 10 21c0 36 -23 65 -66 65c-67 0 -98 -65 -98 -86c0 -4 2 -7 14 -7zM240 447l-115 147c-13 17 -23 27 -23 39s8 19 25 30c13 8 25 14 35 14c13 0 22 -11 31 -33l72 -183c-3 -12 -12 -16 -25 -14z" />
    <glyph glyph-name="iacute" unicode="&#xed;" horiz-adv-x="268" 
d="M193 292v-173c0 -74 4 -84 38 -90l18 -3c7 -7 6 -25 -2 -29c-37 2 -71 3 -108 3c-33 0 -67 -1 -105 -3c-8 4 -9 22 -2 29l18 3c34 6 38 16 38 90v147c0 45 0 57 -25 72l-12 7c-3 4 -3 18 1 23c52 15 102 37 130 54c6 -1 11 -3 14 -8c-2 -33 -3 -81 -3 -122zM248 589
l-129 -143c-13 -1 -22 4 -24 15l85 181c11 23 22 32 31 32c11 0 21 -5 38 -16c17 -12 23 -20 23 -32s-12 -23 -24 -37z" />
    <glyph glyph-name="icircumflex" unicode="&#xee;" horiz-adv-x="268" 
d="M193 292v-173c0 -74 4 -84 38 -90l18 -3c7 -7 6 -25 -2 -29c-37 2 -71 3 -108 3c-33 0 -67 -1 -105 -3c-8 4 -9 22 -2 29l18 3c34 6 38 16 38 90v147c0 45 0 57 -25 72l-12 7c-3 4 -3 18 1 23c52 15 102 37 130 54c6 -1 11 -3 14 -8c-2 -33 -3 -81 -3 -122zM21 456
l99 196c6 11 14 13 21 13c4 0 12 -1 20 -13l95 -191c-1 -11 -12 -17 -24 -17l-70 83c-12 15 -18 22 -23 22c-4 0 -12 -10 -26 -27l-70 -80c-12 -1 -20 5 -22 14z" />
    <glyph glyph-name="idieresis" unicode="&#xef;" horiz-adv-x="268" 
d="M193 292v-173c0 -74 4 -84 38 -90l18 -3c7 -7 6 -25 -2 -29c-37 2 -71 3 -108 3c-33 0 -67 -1 -105 -3c-8 4 -9 22 -2 29l18 3c34 6 38 16 38 90v147c0 45 0 57 -25 72l-12 7c-3 4 -3 18 1 23c52 15 102 37 130 54c6 -1 11 -3 14 -8c-2 -33 -3 -81 -3 -122zM55 485
c-34 0 -59 19 -60 56c0 34 25 61 60 61c32 0 56 -28 56 -56c0 -37 -24 -61 -56 -61zM228 485c-33 0 -57 19 -58 56c-1 34 24 61 58 61s57 -28 57 -56c0 -37 -23 -61 -57 -61z" />
    <glyph glyph-name="igrave" unicode="&#xec;" horiz-adv-x="268" 
d="M193 292v-173c0 -74 4 -84 38 -90l18 -3c7 -7 6 -25 -2 -29c-37 2 -71 3 -108 3c-33 0 -67 -1 -105 -3c-8 4 -9 22 -2 29l18 3c34 6 38 16 38 90v147c0 45 0 57 -25 72l-12 7c-3 4 -3 18 1 23c52 15 102 37 130 54c6 -1 11 -3 14 -8c-2 -33 -3 -81 -3 -122zM144 452
l-115 147c-13 17 -23 27 -23 39s8 19 25 30c13 8 25 14 35 14c13 0 22 -11 31 -33l72 -183c-3 -12 -12 -16 -25 -14z" />
    <glyph glyph-name="ntilde" unicode="&#xf1;" horiz-adv-x="533" 
d="M193 253v-134c0 -74 4 -86 38 -91l15 -2c7 -7 6 -25 -2 -29c-35 2 -69 3 -106 3c-32 0 -66 -1 -108 -3c-8 4 -9 22 -2 29l22 3c34 5 38 16 38 90v147c0 45 0 57 -25 72l-12 7c-3 4 -3 18 1 23c43 12 98 36 130 54c7 0 11 -4 13 -8c-2 -19 -2 -38 -2 -46c0 -7 3 -9 9 -10
c47 26 75 50 137 50c81 0 119 -56 119 -134v-155c0 -74 4 -86 38 -90l23 -3c7 -7 6 -25 -2 -29c-42 2 -76 3 -113 3c-33 0 -67 -1 -102 -3c-8 4 -9 22 -2 29l15 2c34 5 38 17 38 91v138c0 51 -20 91 -80 91c-31 0 -56 -16 -66 -31c-13 -18 -14 -27 -14 -64zM246 578h54
c24 0 44 2 58 13c11 7 19 18 24 30c5 2 19 1 23 -3c-8 -31 -28 -74 -41 -87c-17 -17 -30 -20 -54 -20h-60c-27 0 -48 -7 -59 -17c-10 -8 -21 -24 -29 -41c-9 -1 -18 0 -21 7c4 19 23 72 40 91c20 22 37 27 65 27z" />
    <glyph glyph-name="oacute" unicode="&#xf3;" horiz-adv-x="492" 
d="M250 408c113 0 211 -76 211 -206c0 -142 -100 -216 -219 -216c-115 0 -211 73 -211 204c0 134 102 218 219 218zM149 205c0 -91 33 -179 105 -179c69 0 89 82 89 159c0 84 -29 183 -103 183c-51 0 -91 -52 -91 -163zM360 589l-129 -143c-13 -1 -22 4 -24 15l85 181
c11 23 22 32 31 32c11 0 21 -5 38 -16c17 -12 23 -20 23 -32s-12 -23 -24 -37z" />
    <glyph glyph-name="ocircumflex" unicode="&#xf4;" horiz-adv-x="492" 
d="M250 408c113 0 211 -76 211 -206c0 -142 -100 -216 -219 -216c-115 0 -211 73 -211 204c0 134 102 218 219 218zM149 205c0 -91 33 -179 105 -179c69 0 89 82 89 159c0 84 -29 183 -103 183c-51 0 -91 -52 -91 -163zM129 454l99 196c6 11 14 13 21 13c4 0 12 -1 20 -13
l95 -191c-1 -11 -12 -17 -24 -17l-70 82c-12 15 -18 22 -23 22c-4 0 -11 -11 -26 -27l-70 -79c-12 -1 -20 5 -22 14z" />
    <glyph glyph-name="odieresis" unicode="&#xf6;" horiz-adv-x="492" 
d="M250 408c113 0 211 -76 211 -206c0 -142 -100 -216 -219 -216c-115 0 -211 73 -211 204c0 134 102 218 219 218zM149 205c0 -91 33 -179 105 -179c69 0 89 82 89 159c0 84 -29 183 -103 183c-51 0 -91 -52 -91 -163zM159 485c-34 0 -59 19 -60 56c0 34 25 61 60 61
c32 0 56 -28 56 -56c0 -37 -24 -61 -56 -61zM342 485c-33 0 -57 19 -58 56c-1 34 24 61 58 61s57 -28 57 -56c0 -37 -23 -61 -57 -61z" />
    <glyph glyph-name="ograve" unicode="&#xf2;" horiz-adv-x="492" 
d="M250 408c113 0 211 -76 211 -206c0 -142 -100 -216 -219 -216c-115 0 -211 73 -211 204c0 134 102 218 219 218zM149 205c0 -91 33 -179 105 -179c69 0 89 82 89 159c0 84 -29 183 -103 183c-51 0 -91 -52 -91 -163zM256 447l-115 147c-13 17 -23 27 -23 39s8 19 25 30
c13 8 25 14 35 14c13 0 22 -11 31 -33l72 -183c-3 -12 -12 -16 -25 -14z" />
    <glyph glyph-name="otilde" unicode="&#xf5;" horiz-adv-x="492" 
d="M250 408c113 0 211 -76 211 -206c0 -142 -100 -216 -219 -216c-115 0 -211 73 -211 204c0 134 102 218 219 218zM149 205c0 -91 33 -179 105 -179c69 0 89 82 89 159c0 84 -29 183 -103 183c-51 0 -91 -52 -91 -163zM221 574h55c24 0 44 2 58 13c11 8 19 19 24 31
c5 2 19 1 23 -3c-7 -31 -28 -74 -42 -88c-17 -17 -29 -20 -53 -20h-61c-27 0 -48 -7 -59 -18c-10 -7 -21 -24 -30 -40c-9 -1 -18 0 -21 6c4 20 23 73 41 93c20 22 37 26 65 26z" />
    <glyph glyph-name="scaron" unicode="&#x161;" horiz-adv-x="346" 
d="M163 -14c-41 0 -82 8 -114 32c-10 19 -16 70 -14 113c6 8 21 9 28 2c18 -56 55 -109 108 -109c31 0 56 21 56 56c0 37 -33 61 -68 78c-52 25 -106 62 -106 126c-1 78 66 124 149 124c41 0 79 -12 93 -20c10 -21 15 -52 15 -97c-3 -8 -20 -11 -27 -5c-15 46 -47 84 -86 84
c-32 0 -56 -23 -56 -52s29 -50 67 -68c54 -26 111 -60 111 -139c0 -87 -77 -125 -156 -125zM166 460l-95 192c1 9 13 16 23 16l70 -87c12 -15 20 -23 25 -23s12 10 26 27l66 85c10 1 23 -6 25 -14l-100 -196c-5 -11 -13 -13 -20 -13c-4 0 -14 1 -20 13z" />
    <glyph glyph-name="uacute" unicode="&#xfa;" horiz-adv-x="520" 
d="M445 314v-167c0 -56 1 -106 25 -106c14 0 29 3 43 7c8 -5 10 -26 -3 -34c-44 -5 -121 -18 -164 -38c-5 1 -8 5 -9 10c2 12 4 27 3 37c-1 8 -4 11 -10 11c-42 -25 -86 -48 -136 -48c-90 0 -119 50 -119 133v156c0 70 -4 78 -29 85l-14 4c-6 5 -6 23 2 26
c60 1 117 10 139 18c5 -1 9 -4 10 -9c-2 -12 -3 -36 -3 -85v-154c0 -59 11 -114 82 -114c23 0 49 9 66 25c10 10 12 19 12 56v151c0 64 -6 68 -44 80l-16 5c-7 5 -7 23 1 27c67 1 137 8 157 18c5 -1 9 -4 10 -9c-2 -19 -3 -48 -3 -85zM369 590l-129 -143
c-13 -1 -22 4 -24 15l85 181c11 23 22 32 31 32c11 0 21 -5 38 -16c17 -12 23 -20 23 -32s-12 -23 -24 -37z" />
    <glyph glyph-name="ucircumflex" unicode="&#xfb;" horiz-adv-x="520" 
d="M445 314v-167c0 -56 1 -106 25 -106c14 0 29 3 43 7c8 -5 10 -26 -3 -34c-44 -5 -121 -18 -164 -38c-5 1 -8 5 -9 10c2 12 4 27 3 37c-1 8 -4 11 -10 11c-42 -25 -86 -48 -136 -48c-90 0 -119 50 -119 133v156c0 70 -4 78 -29 85l-14 4c-6 5 -6 23 2 26
c60 1 117 10 139 18c5 -1 9 -4 10 -9c-2 -12 -3 -36 -3 -85v-154c0 -59 11 -114 82 -114c23 0 49 9 66 25c10 10 12 19 12 56v151c0 64 -6 68 -44 80l-16 5c-7 5 -7 23 1 27c67 1 137 8 157 18c5 -1 9 -4 10 -9c-2 -19 -3 -48 -3 -85zM138 453l99 196c6 11 14 13 21 13
c4 0 12 -1 20 -13l95 -191c-1 -11 -12 -17 -24 -17l-70 87c-12 15 -18 22 -23 22c-4 0 -12 -10 -26 -27l-70 -84c-12 -1 -20 5 -22 14z" />
    <glyph glyph-name="udieresis" unicode="&#xfc;" horiz-adv-x="520" 
d="M445 314v-167c0 -56 1 -106 25 -106c14 0 29 3 43 7c8 -5 10 -26 -3 -34c-44 -5 -121 -18 -164 -38c-5 1 -8 5 -9 10c2 12 4 27 3 37c-1 8 -4 11 -10 11c-42 -25 -86 -48 -136 -48c-90 0 -119 50 -119 133v156c0 70 -4 78 -29 85l-14 4c-6 5 -6 23 2 26
c60 1 117 10 139 18c5 -1 9 -4 10 -9c-2 -12 -3 -36 -3 -85v-154c0 -59 11 -114 82 -114c23 0 49 9 66 25c10 10 12 19 12 56v151c0 64 -6 68 -44 80l-16 5c-7 5 -7 23 1 27c67 1 137 8 157 18c5 -1 9 -4 10 -9c-2 -19 -3 -48 -3 -85zM169 485c-34 0 -59 19 -60 56
c0 34 25 61 60 61c32 0 56 -28 56 -56c0 -37 -24 -61 -56 -61zM346 485c-33 0 -57 19 -58 56c-1 34 24 61 58 61s57 -28 57 -56c0 -37 -23 -61 -57 -61z" />
    <glyph glyph-name="ugrave" unicode="&#xf9;" horiz-adv-x="520" 
d="M445 314v-167c0 -56 1 -106 25 -106c14 0 29 3 43 7c8 -5 10 -26 -3 -34c-44 -5 -121 -18 -164 -38c-5 1 -8 5 -9 10c2 12 4 27 3 37c-1 8 -4 11 -10 11c-42 -25 -86 -48 -136 -48c-90 0 -119 50 -119 133v156c0 70 -4 78 -29 85l-14 4c-6 5 -6 23 2 26
c60 1 117 10 139 18c5 -1 9 -4 10 -9c-2 -12 -3 -36 -3 -85v-154c0 -59 11 -114 82 -114c23 0 49 9 66 25c10 10 12 19 12 56v151c0 64 -6 68 -44 80l-16 5c-7 5 -7 23 1 27c67 1 137 8 157 18c5 -1 9 -4 10 -9c-2 -19 -3 -48 -3 -85zM270 448l-115 147
c-13 17 -23 27 -23 39s8 19 25 30c13 8 25 14 35 14c13 0 22 -11 31 -33l72 -183c-3 -12 -12 -16 -25 -14z" />
    <glyph glyph-name="yacute" unicode="&#xfd;" horiz-adv-x="448" 
d="M72 -249c-38 0 -55 24 -55 53c0 33 23 44 51 45l22 1c14 1 32 6 42 20c21 30 49 83 49 125c0 15 -2 36 -17 74l-81 210c-24 62 -31 77 -69 85l-20 4c-8 8 -8 25 3 29c33 -2 74 -3 111 -3c35 0 72 1 106 3c8 -4 9 -22 2 -29l-30 -6c-23 -5 -24 -9 -7 -53l44 -115
c19 -51 31 -75 34 -76c4 1 19 33 32 62l30 67c24 54 36 93 36 97c0 9 -4 14 -19 17l-34 7c-7 8 -6 24 2 29c36 -2 73 -3 95 -3c26 0 53 1 80 3c10 -3 10 -22 3 -29c-12 -3 -43 -8 -57 -22c-11 -11 -30 -39 -61 -101l-51 -102c-34 -68 -123 -246 -165 -338
c-17 -38 -43 -54 -76 -54zM353 594l-129 -143c-13 -1 -22 4 -24 15l85 181c11 23 22 32 31 32c11 0 21 -5 38 -16c17 -12 23 -20 23 -32s-12 -23 -24 -37z" />
    <glyph glyph-name="ydieresis" unicode="&#xff;" horiz-adv-x="448" 
d="M72 -249c-38 0 -55 24 -55 53c0 33 23 44 51 45l22 1c14 1 32 6 42 20c21 30 49 83 49 125c0 15 -2 36 -17 74l-81 210c-24 62 -31 77 -69 85l-20 4c-8 8 -8 25 3 29c33 -2 74 -3 111 -3c35 0 72 1 106 3c8 -4 9 -22 2 -29l-30 -6c-23 -5 -24 -9 -7 -53l44 -115
c19 -51 31 -75 34 -76c4 1 19 33 32 62l30 67c24 54 36 93 36 97c0 9 -4 14 -19 17l-34 7c-7 8 -6 24 2 29c36 -2 73 -3 95 -3c26 0 53 1 80 3c10 -3 10 -22 3 -29c-12 -3 -43 -8 -57 -22c-11 -11 -30 -39 -61 -101l-51 -102c-34 -68 -123 -246 -165 -338
c-17 -38 -43 -54 -76 -54zM160 485c-34 0 -59 19 -60 56c0 34 25 61 60 61c32 0 56 -28 56 -56c0 -37 -24 -61 -56 -61zM338 485c-33 0 -57 19 -58 56c-1 34 24 61 58 61s57 -28 57 -56c0 -37 -23 -61 -57 -61z" />
    <glyph glyph-name="zcaron" unicode="&#x17e;" horiz-adv-x="390" 
d="M243 0h-90c-54 0 -93 -1 -121 -3c-5 2 -9 7 -7 13c17 23 62 94 89 142l96 169c9 15 13 23 13 28c0 4 -9 5 -22 5h-49c-30 0 -53 -2 -67 -14c-16 -13 -30 -42 -40 -60c-8 -4 -22 -3 -27 7c6 33 22 101 33 125c4 3 14 3 18 0c4 -18 15 -18 66 -18h165c27 0 46 1 61 3
c5 -2 7 -6 7 -12c-21 -29 -45 -66 -72 -113l-111 -194c-10 -17 -14 -26 -14 -31s10 -7 39 -7h33c34 0 63 5 85 24c17 15 30 38 40 60c7 6 24 3 27 -5c-5 -41 -24 -102 -37 -122c-36 2 -69 3 -115 3zM188 458l-95 192c1 9 13 16 23 16l70 -87c12 -15 20 -23 25 -23
s12 10 26 27l66 85c10 1 23 -6 25 -14l-100 -196c-5 -11 -13 -13 -20 -13c-4 0 -14 1 -20 13z" />
    <glyph glyph-name="exclamsmall" unicode="&#xf721;" horiz-adv-x="210" 
d="M105 448c42 0 65 -6 65 -32c0 -11 -4 -34 -14 -86l-34 -184c-9 -5 -25 -5 -34 0l-34 184c-10 52 -14 75 -14 86c0 26 23 32 65 32zM105 -14c-37 0 -61 27 -61 60c0 35 24 62 61 62c36 0 60 -27 60 -62c0 -33 -24 -60 -60 -60z" />
    <glyph glyph-name="Hungarumlautsmall" unicode="&#xf6f8;" 
d="M241 511l64 174c6 16 15 27 26 27c13 0 25 -6 38 -13c15 -10 22 -19 22 -29c0 -12 -8 -24 -25 -46l-100 -129c-12 -1 -24 3 -25 16zM89 512l63 173c6 16 16 27 26 27c13 0 26 -6 39 -13c14 -10 22 -19 22 -29c0 -12 -9 -23 -26 -46l-99 -129c-13 -1 -24 3 -25 17z" />
    <glyph glyph-name="dollaroldstyle" unicode="&#xf724;" horiz-adv-x="424" 
d="M230 169l-20 -145c57 2 86 30 86 71c0 31 -19 57 -66 74zM207 275l17 123c-59 -1 -85 -26 -85 -61c0 -34 29 -49 68 -62zM275 493l-8 -59c30 -3 59 -12 87 -19c7 -17 15 -54 15 -106c-5 -9 -22 -10 -28 -2c-13 41 -37 75 -80 86l-18 -129l16 -5c68 -21 129 -59 129 -137
c0 -85 -70 -134 -184 -136l-9 -62c-5 -10 -32 -10 -37 0l9 65c-52 5 -94 23 -107 33c-15 21 -25 81 -24 115c3 9 22 10 29 1c11 -42 48 -95 108 -110l21 153l-9 3c-74 25 -132 59 -132 121c0 80 65 128 176 131l8 57c5 12 35 12 38 0z" />
    <glyph glyph-name="dollarsuperior" unicode="&#xf6e4;" 
d="M208 467l-20 -124c49 1 72 27 72 59c0 30 -14 48 -52 65zM176 479l-20 7c-56 20 -102 49 -102 107c0 71 56 114 158 115l7 47c6 9 28 9 34 0l-7 -50c25 -2 52 -7 71 -13c5 -17 11 -47 11 -87c-4 -8 -19 -9 -26 -2c-8 24 -27 54 -62 66l-19 -121l16 -5
c62 -19 102 -60 102 -116c0 -70 -57 -115 -156 -117l-9 -57c-5 -9 -27 -9 -34 0l9 58c-42 4 -78 18 -89 26c-12 12 -20 55 -20 95c5 8 20 9 25 2c8 -30 39 -76 90 -88zM189 560l18 115h-5c-45 0 -73 -23 -73 -57c0 -26 18 -43 60 -58z" />
    <glyph glyph-name="ampersandsmall" unicode="&#xf726;" horiz-adv-x="616" 
d="M237 448c76 0 116 -52 116 -101s-37 -69 -73 -85c34 -19 81 -60 110 -97c9 12 20 29 28 44c21 40 32 68 32 78c0 8 -7 13 -24 17l-13 3c-9 6 -7 26 3 29h64c42 0 90 1 111 3c9 -5 10 -23 1 -29l-19 -3c-32 -5 -45 -12 -58 -27c-18 -20 -58 -85 -95 -135
c-9 -13 -10 -17 -2 -27c28 -37 52 -78 112 -78c30 0 55 15 67 23c10 -2 17 -9 13 -20c-18 -20 -58 -57 -137 -57c-52 0 -88 16 -96 29c-7 10 -22 36 -28 40c-31 -29 -79 -69 -149 -69c-91 0 -157 51 -157 127c0 91 83 124 112 139c-23 16 -45 46 -45 80c0 75 66 116 127 116
zM325 98c-40 58 -92 97 -115 110c-10 6 -20 14 -24 14c-6 0 -46 -26 -46 -81c0 -51 40 -97 102 -97c30 0 65 15 82 32c8 9 8 12 1 22zM189 360c0 -45 50 -75 56 -75c8 0 33 26 33 67c0 38 -18 62 -46 62c-25 0 -43 -25 -43 -54z" />
    <glyph glyph-name="Acutesmall" unicode="&#xf7b4;" 
d="M303 612l-139 -116c-14 -3 -21 5 -23 17l93 157c14 23 25 31 35 31c12 0 23 -4 35 -14c19 -18 24 -30 24 -39c0 -13 -10 -23 -25 -36z" />
    <glyph glyph-name="parenleftsuperior" unicode="&#x207d;" horiz-adv-x="228" 
d="M40 508c0 113 61 211 165 260c7 -1 16 -9 12 -18c-46 -51 -92 -131 -92 -242s46 -191 92 -242c4 -9 -5 -17 -12 -18c-104 49 -165 147 -165 260z" />
    <glyph glyph-name="parenrightsuperior" unicode="&#x207e;" horiz-adv-x="228" 
d="M188 508c0 -113 -61 -211 -165 -260c-7 1 -16 9 -12 18c46 51 92 131 92 242s-46 191 -92 242c-4 9 5 17 12 18c104 -49 165 -147 165 -260z" />
    <glyph glyph-name="twodotenleader" unicode="&#x2025;" horiz-adv-x="500" 
d="M126 -14c-38 0 -66 29 -66 66s28 66 66 66c37 0 65 -29 65 -66s-28 -66 -65 -66zM375 -14c-38 0 -66 29 -66 66s28 66 66 66c37 0 65 -29 65 -66s-28 -66 -65 -66z" />
    <glyph glyph-name="onedotenleader" unicode="&#x2024;" horiz-adv-x="500" 
d="M251 -14c-38 0 -66 29 -66 66s28 66 66 66c37 0 65 -29 65 -66s-28 -66 -65 -66z" />
    <glyph glyph-name="zerooldstyle" unicode="&#xf730;" horiz-adv-x="530" 
d="M265 436c129 0 225 -93 225 -225s-96 -225 -225 -225s-225 93 -225 225s96 225 225 225zM265 375c-83 0 -142 -74 -142 -164s59 -164 142 -164s142 74 142 164s-59 164 -142 164z" />
    <glyph glyph-name="oneoldstyle" unicode="&#xf731;" horiz-adv-x="363" 
d="M129 109v204c0 64 -2 74 -58 81l-17 2c-7 5 -6 27 3 29c35 -2 68 -3 124 -3c57 0 101 1 125 3c9 -2 10 -24 3 -29l-22 -3c-51 -7 -53 -16 -53 -80v-204c0 -64 2 -75 53 -80l32 -3c7 -5 6 -27 -3 -29c-40 2 -91 3 -135 3c-59 0 -102 -1 -134 -3c-9 2 -10 24 -3 29l24 3
c59 7 61 16 61 80z" />
    <glyph glyph-name="twooldstyle" unicode="&#xf732;" horiz-adv-x="472" 
d="M208 77h112c77 0 98 14 112 47c8 6 25 3 29 -7c-24 -47 -40 -99 -50 -120c-49 2 -87 3 -131 3h-129c-34 0 -74 -1 -100 -3c-8 4 -10 13 -7 20c38 24 64 46 118 99c48 46 89 100 89 156c0 54 -30 93 -85 93c-41 0 -73 -23 -105 -75c-11 0 -20 8 -21 19
c29 70 96 127 172 127c90 0 148 -46 148 -130c0 -57 -38 -104 -126 -181l-40 -35c-2 -8 3 -13 14 -13z" />
    <glyph glyph-name="threeoldstyle" unicode="&#xf733;" horiz-adv-x="390" 
d="M231 16c0 56 -23 130 -93 130c-21 0 -41 -13 -57 -26c-13 0 -22 21 -18 35c61 33 148 65 148 147c0 49 -30 74 -66 74c-29 0 -60 -22 -83 -58c-10 -2 -23 5 -23 17c24 53 83 101 157 101c61 0 121 -34 121 -104c0 -40 -26 -68 -87 -107c-11 -7 -11 -16 0 -19
c67 -17 110 -68 110 -138c0 -71 -41 -135 -100 -182c-57 -45 -126 -74 -174 -74c-30 0 -40 28 -40 44s10 18 18 18s30 -5 58 -5c92 0 129 68 129 147z" />
    <glyph glyph-name="fouroldstyle" unicode="&#xf734;" horiz-adv-x="494" 
d="M474 22h-83c-19 0 -20 -1 -20 -28v-173c-4 -6 -27 -7 -52 -7c-27 0 -45 1 -51 7v173c0 27 -1 28 -18 28h-225c-8 4 -13 14 -10 25l57 65c32 37 249 298 269 322c4 1 7 2 10 2c8 0 16 -4 20 -10v-323c0 -26 1 -28 20 -28h86c5 -5 8 -12 8 -22c0 -13 -4 -25 -11 -31z
M120 75h128c19 0 20 2 20 28v180h-3l-152 -192c-8 -10 -4 -16 7 -16z" />
    <glyph glyph-name="fiveoldstyle" unicode="&#xf735;" horiz-adv-x="392" 
d="M280 337l-122 -14c-37 -4 -44 -8 -44 -17c0 -14 12 -24 81 -65c84 -50 119 -110 119 -186c0 -145 -159 -231 -241 -253c-15 3 -19 19 -11 29c55 19 159 85 159 191c0 51 -34 99 -82 129c-40 25 -80 57 -80 100c0 57 44 141 72 150c22 7 44 10 68 13l106 13
c21 3 30 4 40 11c7 0 13 -4 13 -12c-8 -23 -28 -83 -78 -89z" />
    <glyph glyph-name="sixoldstyle" unicode="&#xf736;" horiz-adv-x="502" 
d="M50 198c0 96 40 211 139 301c113 102 246 129 300 137c7 -4 9 -19 5 -25c-57 -23 -120 -47 -188 -109c-90 -84 -140 -196 -140 -319c0 -90 38 -157 100 -157c51 0 85 43 85 119c0 50 -22 149 -98 149c-11 0 -17 0 -28 -3c-6 6 -7 18 -3 24c28 20 58 32 86 32
c90 0 149 -66 149 -162c0 -113 -88 -199 -206 -199c-133 0 -201 89 -201 212z" />
    <glyph glyph-name="sevenoldstyle" unicode="&#xf737;" horiz-adv-x="486" 
d="M170 422h163c55 0 113 0 132 3c6 -1 10 -7 9 -14c-25 -38 -51 -80 -106 -178l-241 -427c-2 -3 -7 -4 -13 -4c-12 0 -25 9 -29 22l258 459c14 25 19 37 19 46c0 7 -7 9 -28 9h-183c-60 0 -78 -12 -95 -51c-10 -7 -25 -2 -29 7c22 49 34 93 42 131c19 -2 45 -3 101 -3z" />
    <glyph glyph-name="eightoldstyle" unicode="&#xf738;" horiz-adv-x="453" 
d="M219 -14c-97 0 -171 48 -171 142c0 75 56 128 113 161c-54 38 -108 93 -108 168c0 98 78 164 184 164c90 0 166 -54 166 -149c0 -73 -67 -122 -114 -147c62 -46 111 -96 111 -186c0 -93 -77 -153 -181 -153zM196 267c-36 -23 -63 -73 -63 -135c0 -55 32 -106 94 -106
c52 0 83 39 83 87c0 67 -53 119 -114 154zM231 581c-56 0 -86 -50 -86 -96c0 -69 71 -114 114 -138c28 21 57 67 57 128c0 50 -26 106 -85 106z" />
    <glyph glyph-name="nineoldstyle" unicode="&#xf739;" horiz-adv-x="489" 
d="M245 436c136 0 199 -94 195 -220c-3 -99 -40 -208 -152 -305c-66 -58 -158 -95 -248 -109c-8 5 -10 20 -4 26c55 22 102 44 141 76c56 46 141 137 147 328c2 71 -22 164 -91 164c-46 0 -81 -41 -83 -115c-2 -76 36 -142 90 -142c15 0 22 1 30 2c8 -1 10 -15 6 -21
c-20 -18 -59 -33 -89 -33c-83 0 -144 66 -141 158c4 108 92 191 199 191z" />
    <glyph glyph-name="commasuperior" unicode="&#xf6e2;" horiz-adv-x="184" 
d="M86 441c36 1 75 -34 75 -88c0 -77 -54 -116 -125 -132c-13 3 -18 17 -9 28c31 7 78 28 78 63c0 38 -49 49 -54 52c-14 5 -19 17 -19 31c0 25 19 46 54 46z" />
    <glyph glyph-name="threequartersemdash" unicode="&#xf6de;" horiz-adv-x="750" 
d="M750 175h-750v61h750v-61z" />
    <glyph glyph-name="periodsuperior" unicode="&#xf6e8;" horiz-adv-x="184" 
d="M92 308c-31 0 -60 22 -60 59c0 35 26 63 60 63c36 0 60 -29 60 -63c0 -35 -24 -59 -60 -59z" />
    <glyph glyph-name="questionsmall" unicode="&#xf73f;" horiz-adv-x="281" 
d="M92 448c62 0 149 -53 149 -153c0 -37 -19 -58 -51 -70l-52 -20c-20 -8 -32 -14 -32 -28s3 -22 7 -33c-2 -11 -18 -12 -24 -6c-13 16 -37 54 -37 82c0 39 25 55 60 67l46 16c24 8 38 14 38 24c0 23 -24 35 -111 35c-14 0 -45 8 -45 41c0 24 15 45 52 45zM114 -14
c-37 0 -61 27 -61 60c0 35 24 62 61 62c36 0 60 -27 60 -62c0 -33 -24 -60 -60 -60z" />
    <glyph glyph-name="asuperior" unicode="&#xf6e9;" horiz-adv-x="354" 
d="M204 498l1 15c2 29 -10 60 -46 60c-26 0 -38 -11 -40 -32c-2 -14 -7 -24 -17 -30c-11 -7 -34 -13 -51 -13c-14 0 -19 8 -19 17s5 25 31 48c25 21 79 45 126 45c66 0 101 -26 101 -82c0 -28 -6 -82 -6 -122c0 -35 9 -55 31 -55c11 0 20 3 30 9c8 -1 14 -9 9 -18
c-15 -18 -54 -32 -79 -32c-17 0 -42 5 -57 19c-6 6 -13 10 -16 10s-9 -4 -21 -12c-13 -7 -38 -17 -61 -17c-60 0 -88 37 -88 71c0 32 10 51 59 67c37 12 67 21 88 29c22 8 25 16 25 23zM199 381l2 51c0 9 -2 16 -7 16c-8 0 -19 -2 -29 -5c-24 -7 -46 -21 -46 -48
c0 -21 14 -43 43 -43c28 0 36 16 37 29z" />
    <glyph glyph-name="bsuperior" unicode="&#xf6ea;" horiz-adv-x="412" 
d="M160 676v-70c0 -12 2 -16 8 -18c20 10 47 20 74 20c74 0 138 -57 138 -142c0 -100 -76 -158 -174 -158c-29 0 -60 7 -74 12c-12 5 -18 7 -24 7c-7 0 -20 -6 -25 -11c-5 0 -11 2 -15 7c1 7 2 31 2 68v280c0 28 0 36 -16 44l-13 7c-5 5 -5 17 0 22c33 7 71 23 109 39
c5 0 10 -2 13 -5c-2 -29 -3 -58 -3 -102zM160 524v-107c0 -19 6 -40 15 -53c9 -14 24 -24 41 -24c45 0 67 47 67 106c0 70 -35 118 -84 118c-15 0 -26 -4 -32 -8c-5 -4 -7 -15 -7 -32z" />
    <glyph glyph-name="centsuperior" unicode="&#xf6e0;" 
d="M196 389l43 260h-5c-69 0 -104 -73 -104 -132c0 -60 24 -108 66 -128zM271 641l-43 -263c9 -2 17 -3 26 -3c35 0 73 17 99 52c8 0 18 -5 18 -16c-23 -40 -69 -84 -152 -85l-11 -66c-7 -8 -28 -8 -33 0l11 69c-93 11 -150 80 -150 165c0 123 97 185 208 188l10 61
c7 9 27 9 34 0l-10 -62c21 -1 46 -5 64 -11c8 -6 15 -21 15 -40c0 -25 -10 -42 -19 -42c-5 0 -8 2 -10 4c-11 14 -29 35 -46 45c-4 2 -9 4 -11 4z" />
    <glyph glyph-name="dsuperior" unicode="&#xf6eb;" horiz-adv-x="412" 
d="M342 676v-243c0 -66 3 -82 18 -82c13 0 19 1 32 5c9 -6 9 -23 1 -30c-67 -4 -126 -25 -129 -25c-5 0 -11 4 -12 10l2 22c-1 5 -4 7 -7 5c-27 -15 -54 -30 -80 -30c-81 0 -135 62 -135 138c0 99 80 162 173 162c12 0 31 -2 39 -4c5 2 8 8 8 14v53c0 28 0 36 -16 44l-13 7
c-6 5 -5 17 0 22c33 8 79 23 109 39c5 0 9 -2 12 -5c-1 -29 -2 -58 -2 -102zM252 390v136c0 11 -3 18 -6 23c-9 15 -22 27 -41 27c-37 0 -75 -38 -75 -111c0 -46 23 -110 81 -110c11 0 22 3 31 8c9 6 10 14 10 27z" />
    <glyph glyph-name="esuperior" unicode="&#xf6ec;" horiz-adv-x="346" 
d="M284 479h-152c-18 0 -19 -2 -19 -12c0 -45 35 -101 107 -101c27 0 53 4 77 38c9 2 18 -1 20 -12c-32 -62 -78 -84 -132 -84c-104 1 -153 72 -153 145c0 85 66 155 158 155c80 0 124 -51 124 -105c0 -13 -4 -24 -30 -24zM142 511h51c12 0 24 2 28 5c4 4 5 11 5 21
c0 21 -17 39 -46 39c-38 0 -62 -35 -62 -54c0 -8 7 -11 24 -11z" />
    <glyph glyph-name="isuperior" unicode="&#xf6ed;" horiz-adv-x="235" 
d="M165 524v-123c0 -50 3 -57 29 -61l14 -2c8 -5 6 -22 -1 -25c-37 1 -63 2 -92 2c-26 0 -52 -1 -82 -2c-7 3 -9 21 -1 25l14 2c26 4 29 11 29 61v105c0 28 0 37 -19 47l-9 5c-6 5 -6 16 0 21c41 11 80 26 109 39c5 -1 9 -2 11 -6c-1 -24 -2 -58 -2 -88zM119 679
c-32 0 -54 22 -54 52s22 52 54 52c31 0 54 -22 54 -52s-23 -52 -54 -52z" />
    <glyph glyph-name="lsuperior" unicode="&#xf6ee;" horiz-adv-x="230" 
d="M70 400v263c0 44 -1 48 -20 60l-8 5c-7 5 -7 17 0 21c30 7 70 23 109 34c5 0 9 -2 11 -6c-2 -28 -2 -73 -2 -104v-273c0 -49 3 -57 29 -60l17 -2c8 -5 7 -22 -1 -25c-40 1 -66 2 -95 2c-26 0 -52 -1 -84 -2c-8 5 -9 20 -1 25l16 2c26 3 29 11 29 60z" />
    <glyph glyph-name="msuperior" unicode="&#xf6ef;" horiz-adv-x="639" 
d="M165 492v-91c0 -49 3 -58 22 -61l11 -2c7 -4 5 -22 -1 -25c-27 2 -54 2 -83 2c-25 0 -52 0 -84 -2c-9 3 -9 20 -2 25l17 2c27 3 30 12 30 61v105c0 28 0 37 -20 48l-9 5c-4 5 -4 15 1 20c34 9 77 26 110 39c5 0 8 -3 10 -6c-2 -13 -2 -27 -2 -33c0 -5 2 -6 7 -7
c32 18 65 36 102 36c39 0 67 -17 83 -45l17 11c30 19 65 34 99 34c66 0 96 -39 96 -96v-111c0 -49 3 -58 29 -61l18 -2c7 -3 6 -22 -1 -25c-34 2 -60 2 -89 2c-25 0 -52 0 -79 -2c-8 3 -9 20 -3 25l13 2c18 3 22 12 22 61v100c0 35 -17 59 -55 59c-23 0 -38 -12 -47 -21
c-6 -7 -10 -19 -10 -33v-105c0 -49 3 -57 25 -61l12 -2c7 -3 6 -22 -1 -25c-24 2 -50 2 -79 2c-25 0 -52 0 -79 -2c-8 3 -9 20 -3 25l13 2c18 3 22 12 22 61v100c0 35 -17 59 -55 59c-23 0 -38 -12 -47 -21c-9 -7 -10 -21 -10 -47z" />
    <glyph glyph-name="nsuperior" unicode="&#x207f;" horiz-adv-x="437" 
d="M165 492v-91c0 -49 3 -58 22 -61l11 -2c7 -4 5 -22 -1 -25c-27 2 -54 2 -83 2c-25 0 -52 0 -84 -2c-9 3 -9 20 -2 25l17 2c27 3 30 12 30 61v105c0 28 0 37 -20 48l-9 5c-4 5 -4 15 1 20c34 9 77 26 110 39c5 0 8 -3 10 -6c-2 -13 -2 -27 -2 -33c0 -5 2 -6 7 -7
c32 18 65 36 102 36c65 0 93 -40 93 -96v-111c0 -49 3 -58 29 -61l18 -2c7 -3 6 -22 -1 -25c-34 2 -60 2 -89 2c-25 0 -52 0 -79 -2c-8 3 -9 20 -3 25l13 2c18 3 22 12 22 61v100c0 35 -17 59 -55 59c-23 0 -38 -12 -47 -21c-9 -7 -10 -21 -10 -47z" />
    <glyph glyph-name="osuperior" unicode="&#xf6f0;" horiz-adv-x="387" 
d="M196 608c91 0 159 -56 159 -149c0 -100 -75 -151 -163 -151c-87 0 -160 50 -160 143c0 103 80 157 164 157zM129 473c0 -73 23 -133 68 -133s61 47 61 98c0 75 -17 138 -69 138c-35 0 -60 -34 -60 -103z" />
    <glyph glyph-name="rsuperior" unicode="&#xf6f1;" horiz-adv-x="296" 
d="M75 400v106c0 28 -1 36 -18 48l-11 8c-4 4 -3 14 1 17c41 10 83 26 106 39c5 0 9 -2 11 -7c-1 -13 -2 -26 -2 -32c0 -5 3 -9 8 -9c24 16 48 38 77 38c27 0 42 -18 42 -39c0 -30 -24 -43 -41 -43c-10 0 -17 4 -24 8c-19 12 -32 13 -37 13c-18 0 -22 -16 -22 -48v-99
c0 -49 3 -56 30 -59l30 -3c7 -4 6 -22 -1 -25c-47 1 -73 2 -102 2c-26 0 -52 -1 -89 -2c-7 3 -8 22 -1 25l14 2c26 4 29 11 29 60z" />
    <glyph glyph-name="ssuperior" unicode="&#xf6f2;" horiz-adv-x="298" 
d="M138 308c-44 0 -73 12 -91 26c-9 12 -14 45 -12 76c4 9 19 9 23 2c13 -39 41 -72 81 -72c28 0 41 16 41 37c0 20 -18 39 -51 50c-50 17 -85 47 -85 88c0 62 57 93 125 93c39 0 66 -11 75 -16c6 -16 11 -37 11 -70c-6 -8 -19 -10 -24 -3c-14 43 -41 57 -68 57
s-40 -16 -40 -34c0 -24 24 -33 58 -46c55 -21 82 -51 82 -94c0 -61 -53 -94 -125 -94z" />
    <glyph glyph-name="tsuperior" unicode="&#xf6f3;" horiz-adv-x="265" 
d="M245 562h-70c-14 0 -14 -2 -14 -25v-103c0 -41 10 -81 52 -81c16 0 25 5 38 13c7 -1 13 -11 10 -19c-16 -20 -52 -39 -99 -39c-73 0 -91 37 -91 85v143c0 25 -1 26 -14 26h-27c-8 3 -9 19 -2 23c27 9 48 19 65 30c15 10 32 25 43 44c7 5 21 3 25 -3v-43
c0 -12 0 -14 15 -14h73c5 -2 6 -8 6 -15c-1 -8 -4 -16 -10 -22z" />
    <glyph glyph-name="parenleftinferior" unicode="&#x208d;" horiz-adv-x="228" 
d="M40 29c0 113 61 211 165 260c7 -1 16 -9 12 -18c-46 -51 -92 -131 -92 -242s46 -191 92 -242c4 -9 -5 -17 -12 -18c-104 49 -165 147 -165 260z" />
    <glyph glyph-name="parenrightinferior" unicode="&#x208e;" horiz-adv-x="228" 
d="M188 29c0 -113 -61 -211 -165 -260c-7 1 -16 9 -12 18c46 51 92 131 92 242s-46 191 -92 242c-4 9 5 17 12 18c104 -49 165 -147 165 -260z" />
    <glyph glyph-name="Circumflexsmall" unicode="&#xf6f6;" 
d="M214 688l103 -182c-1 -10 -12 -18 -22 -18l-77 81c-14 14 -23 22 -30 24c-4 -2 -11 -13 -27 -29l-76 -78c-10 -1 -20 6 -22 15l106 187c7 13 16 15 24 15c4 0 13 -2 21 -15z" />
    <glyph glyph-name="hyphensuperior" unicode="&#xf6e6;" horiz-adv-x="290" 
d="M250 486h-209c-15 11 -15 50 0 58h209c14 -8 14 -47 0 -58z" />
    <glyph glyph-name="Gravesmall" unicode="&#xf760;" 
d="M200 496l-139 116c-15 13 -25 23 -25 36c0 9 6 21 24 38c11 10 23 15 36 15c9 0 20 -8 34 -31l93 -157c-2 -13 -9 -18 -23 -17z" />
    <glyph glyph-name="Asmall" unicode="&#xf761;" horiz-adv-x="490" 
d="M259 143h-94c-20 0 -21 0 -29 -21l-18 -48c-13 -35 -10 -42 11 -45l24 -3c7 -6 4 -25 -4 -29c-33 2 -58 3 -85 3c-29 0 -55 -1 -69 -3c-10 4 -11 25 -3 29l18 3c36 6 39 16 71 89l97 224c12 28 16 42 14 55c25 7 60 36 66 47c4 2 5 2 10 2c4 0 8 -5 12 -13
c4 -9 11 -30 47 -118l96 -237c17 -41 24 -47 60 -51l10 -1c8 -5 7 -27 -3 -29c-30 2 -63 3 -103 3c-38 0 -68 -1 -100 -3c-10 3 -12 22 -3 29l17 4c18 4 24 8 17 27l-23 65c-7 21 -9 21 -36 21zM184 181h53c31 0 34 1 25 23c-18 43 -37 93 -47 116c-16 -36 -26 -61 -49 -121
c-6 -16 -8 -18 18 -18z" />
    <glyph glyph-name="Bsmall" unicode="&#xf762;" horiz-adv-x="523" 
d="M99 113v201c0 61 3 79 -38 86l-12 2c-8 3 -9 26 2 29c35 3 110 6 194 6c51 0 99 -3 137 -17c39 -14 66 -46 66 -87c0 -47 -33 -75 -83 -88c-6 -2 -5 -7 1 -8c58 -12 114 -41 114 -116c0 -51 -28 -84 -69 -102c-40 -18 -95 -23 -157 -23c-35 0 -71 4 -98 4
c-40 0 -78 -1 -114 -3c-7 4 -9 23 -1 29l20 3c35 5 38 18 38 84zM207 199v-76c0 -62 4 -89 70 -89c40 0 86 26 86 81c0 69 -51 99 -114 99c-40 0 -42 0 -42 -15zM207 375v-109c0 -18 2 -18 41 -18c42 0 85 14 85 76c0 49 -42 75 -82 75c-43 0 -44 -6 -44 -24z" />
    <glyph glyph-name="Csmall" unicode="&#xf763;" horiz-adv-x="514" 
d="M38 209c0 81 35 142 85 180c50 39 121 59 193 59c48 0 95 -8 121 -15c15 -4 22 -5 26 -5c1 -19 3 -58 11 -119c-5 -7 -23 -8 -28 -1c-13 52 -47 102 -133 102c-85 0 -154 -68 -154 -190c0 -130 73 -196 163 -196c85 0 122 66 140 109c4 6 21 5 26 -2
c-5 -55 -23 -105 -33 -120c-8 -1 -17 -4 -24 -6c-20 -6 -69 -19 -121 -19c-62 0 -125 11 -178 46c-52 35 -94 98 -94 177z" />
    <glyph glyph-name="Dsmall" unicode="&#xf764;" horiz-adv-x="589" 
d="M99 113v201c0 62 3 78 -38 86l-10 2c-8 3 -9 26 2 29c62 4 120 6 189 6c73 0 132 -9 174 -24c86 -31 135 -103 135 -196c0 -87 -43 -151 -119 -190c-46 -24 -106 -33 -178 -33c-44 0 -93 6 -120 6c-20 0 -58 -1 -94 -3c-7 4 -9 23 -1 29l20 2c37 4 40 19 40 85zM207 351
v-222c0 -60 3 -97 72 -97c106 0 151 85 151 189c0 113 -74 178 -166 178c-56 0 -57 -4 -57 -48z" />
    <glyph glyph-name="Esmall" unicode="&#xf765;" horiz-adv-x="474" 
d="M207 345v-82c0 -17 1 -18 23 -18h37c55 0 64 1 72 31l6 24c6 6 23 5 28 -2c-1 -23 -3 -48 -3 -73c0 -27 2 -52 3 -75c-5 -7 -22 -8 -28 -2l-6 24c-8 30 -17 31 -72 31h-37c-22 0 -23 -1 -23 -20v-62c0 -30 2 -57 11 -68c9 -10 32 -15 94 -15c81 0 98 21 121 74
c7 3 21 3 28 -4c-9 -42 -21 -92 -30 -111c-63 2 -116 3 -170 3h-107c-40 0 -78 -1 -125 -3c-7 4 -9 23 -1 29l31 3c37 4 40 18 40 84v208c0 66 -3 79 -40 85l-12 2c-8 6 -6 25 1 29c28 -2 66 -3 106 -3h161c44 0 84 1 93 3c3 -12 8 -59 11 -104c-4 -8 -21 -9 -28 -3
c-6 17 -12 32 -18 42c-12 20 -38 24 -87 24h-53c-25 0 -26 -3 -26 -51z" />
    <glyph glyph-name="Fsmall" unicode="&#xf766;" horiz-adv-x="439" 
d="M207 345v-84c0 -17 1 -18 23 -18h42c55 0 64 1 72 31l6 24c6 6 23 5 28 -2c-1 -23 -3 -48 -3 -73c0 -27 2 -52 3 -75c-5 -7 -24 -8 -28 -2l-6 24c-8 30 -17 31 -72 31h-42c-22 0 -23 -1 -23 -20v-68c0 -66 3 -80 40 -84l27 -3c9 -6 7 -25 -1 -29c-43 2 -81 3 -119 3
c-35 0 -70 -1 -108 -3c-7 4 -9 23 -1 29l14 2c37 5 40 19 40 85v208c0 66 -3 78 -40 85l-10 2c-8 6 -6 25 1 29c26 -2 64 -3 104 -3h157c44 0 84 1 93 3c1 -12 2 -59 6 -104c-4 -8 -22 -9 -28 -3c-4 17 -9 32 -14 41c-13 21 -32 25 -86 25h-49c-25 0 -26 -3 -26 -51z" />
    <glyph glyph-name="Gsmall" unicode="&#xf767;" horiz-adv-x="544" 
d="M472 102v-34c0 -25 1 -35 21 -39c3 -5 2 -14 -2 -18c-48 -11 -124 -25 -179 -25c-86 0 -160 23 -211 71c-41 39 -63 98 -63 153c0 54 17 113 64 160c46 46 125 78 217 78c63 0 130 -17 149 -22c0 -20 3 -63 10 -114c-3 -8 -21 -10 -28 -3c-23 72 -68 101 -139 101
c-98 0 -152 -82 -152 -187c0 -125 72 -199 162 -199c40 0 46 5 46 34v42c0 38 -2 46 -46 53l-25 4c-8 5 -7 25 3 29c38 -2 75 -4 120 -4c33 0 62 2 96 4c10 -4 11 -24 2 -29l-15 -3c-29 -6 -30 -13 -30 -52z" />
    <glyph glyph-name="Hsmall" unicode="&#xf768;" horiz-adv-x="620" 
d="M243 247h134c32 0 36 0 36 23v51c0 66 -3 80 -40 85l-16 2c-8 6 -6 25 1 29c32 -2 70 -3 110 -3c38 0 76 1 108 3c7 -4 9 -23 1 -29l-16 -2c-37 -5 -40 -19 -40 -85v-208c0 -66 3 -81 40 -85l20 -2c8 -6 6 -25 -1 -29c-36 2 -74 3 -112 3c-40 0 -78 -1 -109 -3
c-7 4 -9 23 -1 29l15 2c37 5 40 19 40 85v69c0 22 -2 23 -36 23h-134c-34 0 -36 -1 -36 -23v-69c0 -66 3 -81 40 -85l20 -2c8 -6 6 -25 -1 -29c-36 2 -74 3 -112 3c-40 0 -78 -1 -108 -3c-7 4 -9 23 -1 29l14 2c37 5 40 19 40 85v208c0 66 -3 81 -40 85l-20 2
c-8 6 -6 25 1 29c36 -2 74 -3 114 -3c38 0 76 1 106 3c7 -4 9 -23 1 -29l-14 -2c-37 -5 -40 -19 -40 -85v-51c0 -23 4 -23 36 -23z" />
    <glyph glyph-name="Ismall" unicode="&#xf769;" horiz-adv-x="306" 
d="M207 321v-208c0 -66 3 -81 40 -85l20 -2c8 -6 6 -25 -1 -29c-36 2 -74 3 -112 3c-40 0 -78 -1 -114 -3c-7 4 -9 23 -1 29l20 2c37 4 40 19 40 85v208c0 66 -3 81 -40 85l-20 2c-8 6 -6 25 1 29c36 -2 74 -3 114 -3c38 0 76 1 112 3c7 -4 9 -23 1 -29l-20 -2
c-37 -4 -40 -19 -40 -85z" />
    <glyph glyph-name="Jsmall" unicode="&#xf76a;" horiz-adv-x="314" 
d="M225 321v-240c0 -57 -7 -98 -18 -127c-21 -57 -75 -98 -160 -98c-31 0 -62 9 -62 29c0 12 5 22 10 30c6 8 16 18 29 18c10 0 20 -5 33 -16c22 -17 29 -20 37 -20c11 0 15 21 17 41c2 26 6 73 6 139v244c0 66 -3 80 -40 84l-25 3c-8 6 -6 25 1 29c41 -2 79 -3 119 -3
c38 0 76 1 104 3c7 -4 9 -23 1 -29l-12 -2c-37 -6 -40 -19 -40 -85z" />
    <glyph glyph-name="Ksmall" unicode="&#xf76b;" horiz-adv-x="537" 
d="M207 321v-44c0 -20 0 -37 10 -37c24 0 38 12 60 36l71 79c6 7 26 33 26 40c0 5 -3 8 -13 10l-12 3c-9 5 -8 24 2 29c27 -2 56 -3 84 -3c25 0 62 1 84 3c9 -3 9 -22 2 -29c-13 -2 -30 -5 -50 -12c-27 -9 -59 -38 -101 -80l-31 -31c-10 -10 -13 -17 -13 -21
c0 -5 2 -12 27 -46c40 -55 90 -131 124 -165c17 -16 35 -22 56 -25l14 -2c5 -8 5 -23 -2 -29c-29 2 -62 3 -109 3c-38 0 -75 0 -113 -3c-8 4 -9 24 -1 29l14 3c17 4 20 11 16 18c-5 9 -27 41 -38 57l-38 54c-15 22 -31 51 -51 51c-18 0 -18 -5 -18 -36v-60
c0 -66 3 -81 40 -85l20 -2c8 -6 6 -25 -1 -29c-36 2 -74 3 -112 3c-40 0 -78 -1 -108 -3c-7 4 -9 23 -1 29l14 2c37 5 40 19 40 85v208c0 66 -3 81 -40 85l-17 2c-9 6 -8 25 3 29c31 -2 69 -3 109 -3c38 0 76 1 109 3c8 -4 9 -23 1 -29l-20 -3c-34 -5 -37 -18 -37 -84z" />
    <glyph glyph-name="Lsmall" unicode="&#xf76c;" horiz-adv-x="452" 
d="M207 321v-195c0 -31 2 -61 12 -73c8 -8 24 -15 79 -15c76 0 92 5 122 77c8 5 22 4 28 -4c-4 -37 -17 -89 -29 -114c-55 2 -116 3 -165 3h-100c-40 0 -78 -1 -114 -3c-7 4 -9 23 -1 29l20 2c37 4 40 19 40 85v208c0 66 -3 79 -40 84l-23 3c-8 6 -6 25 1 29
c39 -2 77 -3 117 -3c38 0 76 1 112 3c7 -4 9 -23 1 -29l-20 -2c-37 -4 -40 -19 -40 -85z" />
    <glyph glyph-name="Msmall" unicode="&#xf76d;" horiz-adv-x="700" 
d="M586 340c0 -71 1 -206 5 -255c3 -35 5 -52 33 -56l28 -4c6 -6 5 -24 -2 -28c-34 2 -68 3 -106 3c-39 0 -66 -1 -104 -3c-6 5 -7 23 -1 28l18 3c30 5 33 14 33 60l-1 245h-2c-23 -42 -43 -80 -80 -153l-19 -37c-22 -44 -53 -116 -65 -146c-5 -2 -8 -3 -13 -3s-9 1 -12 3
c-10 34 -40 99 -55 130c-34 68 -67 137 -97 206h-2c0 -42 -1 -73 -3 -101c-3 -40 -2 -99 -2 -138c0 -47 -1 -58 25 -63l29 -6c6 -6 5 -22 -1 -28c-29 2 -51 3 -77 3c-21 0 -49 -1 -88 -3c-7 4 -9 23 0 28c47 4 53 11 58 53c2 13 6 64 10 147c2 45 6 97 4 130
c-1 31 -10 46 -38 51l-17 3c-6 6 -5 25 2 28c34 -2 56 -3 92 -3c29 0 58 0 83 3c0 -49 28 -100 48 -142c25 -51 50 -103 74 -144c22 39 45 85 70 132c17 32 51 97 65 154c36 -3 59 -3 80 -3s57 1 88 3c8 -5 8 -19 3 -28l-15 -3c-46 -9 -48 -27 -48 -66z" />
    <glyph glyph-name="Nsmall" unicode="&#xf76e;" horiz-adv-x="566" 
d="M482 262v-150c0 -20 0 -101 2 -117c-3 -4 -14 -9 -19 -9c-3 0 -6 0 -10 1c-10 14 -28 36 -88 99l-152 162c-35 38 -60 66 -72 76c-2 -21 -2 -54 -2 -85v-67c0 -43 3 -76 4 -88c3 -39 10 -53 41 -56l23 -2c8 -6 8 -24 -2 -29c-34 2 -57 3 -86 3s-48 -1 -86 -3
c-9 4 -11 23 -2 29l23 3c28 4 34 18 37 54c1 13 3 46 3 89v135c0 57 -2 68 -12 80c-7 8 -36 16 -46 18l-9 3c-7 6 -5 26 3 29c38 -3 70 -3 98 -3c22 0 37 1 66 3c9 -23 29 -50 77 -102l91 -97c21 -22 60 -62 71 -71c2 8 2 16 2 38v57c0 43 -3 76 -4 88c-3 39 -10 52 -37 55
l-27 3c-8 6 -8 24 2 29c32 -2 55 -3 86 -3c29 0 48 1 86 3c9 -4 11 -23 2 -29l-23 -3c-28 -4 -35 -18 -37 -54c-1 -13 -3 -46 -3 -89z" />
    <glyph glyph-name="Osmall" unicode="&#xf76f;" horiz-adv-x="579" 
d="M293 -14c-163 0 -255 100 -255 223c0 135 103 239 255 239c165 0 248 -108 248 -227c0 -138 -102 -235 -248 -235zM159 230c0 -102 40 -206 137 -206c69 0 124 51 124 173c0 116 -43 213 -137 213c-57 0 -124 -48 -124 -180z" />
    <glyph glyph-name="Psmall" unicode="&#xf770;" horiz-adv-x="486" 
d="M99 113v196c0 81 -4 85 -38 91l-12 2c-8 3 -9 26 2 29c35 3 103 6 177 6c69 0 120 -6 160 -27c39 -20 68 -58 68 -112c0 -91 -86 -125 -169 -125h-26c-6 6 -7 17 -2 22c49 9 80 46 80 110c0 58 -41 94 -87 94c-39 0 -45 -1 -45 -28v-258c0 -66 3 -80 40 -84l25 -3
c8 -6 6 -25 -1 -29c-41 2 -79 3 -117 3c-40 0 -78 -1 -109 -3c-7 4 -9 23 -1 29l15 2c37 5 40 19 40 85z" />
    <glyph glyph-name="Qsmall" unicode="&#xf771;" horiz-adv-x="579" 
d="M293 448c165 0 248 -108 248 -227c0 -107 -61 -186 -154 -220c-5 -3 -3 -8 1 -12c38 -37 97 -82 136 -98c25 -10 47 -13 63 -13c19 0 33 4 44 8c7 -3 9 -12 7 -19c-21 -14 -64 -26 -109 -26c-53 0 -100 14 -142 36c-53 28 -96 66 -121 94c-11 12 -24 19 -46 23
c-89 14 -182 91 -182 215c0 135 103 239 255 239zM159 230c0 -102 40 -206 137 -206c69 0 124 51 124 173c0 116 -43 213 -137 213c-57 0 -124 -48 -124 -180z" />
    <glyph glyph-name="Rsmall" unicode="&#xf772;" horiz-adv-x="520" 
d="M99 113v196c0 81 -4 85 -38 91l-12 2c-8 3 -9 26 2 29c38 3 108 6 181 6c65 0 113 -5 151 -22c42 -20 69 -54 69 -103c0 -56 -39 -85 -77 -101c-8 -4 -9 -11 -1 -24c42 -71 82 -123 113 -147c18 -14 35 -20 48 -21c6 -3 6 -16 1 -19c-11 -5 -27 -7 -61 -7
c-63 0 -102 18 -142 72c-23 31 -49 76 -64 103c-11 18 -24 22 -43 22c-17 0 -19 -2 -19 -17v-60c0 -66 3 -81 40 -85l20 -2c8 -6 6 -25 -1 -29c-36 2 -74 3 -112 3c-40 0 -78 -1 -114 -3c-7 4 -9 23 -1 29l20 2c37 4 40 19 40 85zM207 375v-128c0 -12 2 -19 6 -22
s20 -4 44 -4c56 0 80 40 80 84c0 57 -37 94 -92 94c-34 0 -38 -1 -38 -24z" />
    <glyph glyph-name="Ssmall" unicode="&#xf773;" horiz-adv-x="419" 
d="M238 448c48 0 81 -11 107 -18c8 -21 15 -61 17 -102c-6 -9 -21 -11 -28 -4c-19 58 -54 86 -102 86c-42 0 -69 -25 -69 -60c0 -40 37 -61 80 -79c68 -28 133 -67 133 -152c1 -91 -83 -133 -180 -133c-58 0 -105 14 -132 36c-15 28 -20 71 -18 113c5 8 21 11 28 2
c18 -61 63 -113 130 -113c40 0 70 23 70 60c0 47 -35 75 -83 95c-64 26 -125 67 -125 139c0 83 71 130 172 130z" />
    <glyph glyph-name="Tsmall" unicode="&#xf774;" horiz-adv-x="482" 
d="M187 113v255c0 27 1 28 -23 28h-31c-26 0 -49 -2 -66 -19c-11 -12 -18 -24 -28 -48c-6 -7 -22 -4 -27 4c12 38 23 95 27 118c3 6 18 6 22 0c2 -15 15 -17 46 -17h290c34 0 44 1 51 19c5 4 20 4 22 -2c-5 -25 -10 -81 -10 -121c-4 -7 -21 -8 -27 -2c-3 21 -8 40 -22 52
c-12 11 -35 16 -71 16h-26c-17 0 -19 -1 -19 -28v-255c0 -66 3 -80 40 -84l27 -3c8 -6 6 -25 -1 -29c-43 2 -81 3 -119 3c-40 0 -78 -1 -125 -3c-7 4 -9 23 -1 29l31 3c37 4 40 18 40 84z" />
    <glyph glyph-name="Usmall" unicode="&#xf775;" horiz-adv-x="558" 
d="M51 406l-20 2c-8 6 -6 25 1 29c36 -2 74 -3 114 -3c38 0 76 1 112 3c7 -4 9 -23 1 -29l-20 -2c-37 -4 -40 -19 -40 -85v-141c0 -90 33 -154 114 -154c86 0 119 61 119 153v83c0 43 -3 76 -4 88c-3 39 -10 52 -37 55l-27 3c-8 6 -8 24 2 29c34 -2 57 -3 86 -3s48 1 86 3
c9 -4 11 -23 2 -29l-23 -3c-28 -4 -35 -18 -37 -54c-1 -13 -3 -46 -3 -89v-88c0 -64 -17 -115 -49 -145s-85 -45 -138 -45c-57 0 -112 9 -143 35c-36 29 -56 75 -56 150v152c0 66 -3 81 -40 85z" />
    <glyph glyph-name="Vsmall" unicode="&#xf776;" horiz-adv-x="490" 
d="M20 403l-22 5c-5 7 -4 25 3 29c33 -2 69 -3 111 -3c34 0 68 1 104 3c7 -5 9 -25 1 -29l-19 -4c-14 -3 -23 -6 -23 -11s1 -12 8 -31c18 -46 71 -181 94 -231c13 28 67 159 85 206c11 29 18 45 17 52c-1 8 -10 11 -25 14l-23 5c-7 7 -6 26 3 29c31 -2 55 -3 87 -3
c29 0 55 1 81 3c8 -5 8 -23 2 -29l-22 -4c-28 -5 -43 -19 -72 -83l-90 -197c-20 -44 -39 -94 -53 -131c-7 -4 -14 -7 -23 -7c-10 0 -17 3 -23 7c-11 30 -21 56 -39 100c-24 58 -82 195 -110 257c-16 36 -24 47 -52 53z" />
    <glyph glyph-name="Wsmall" unicode="&#xf777;" horiz-adv-x="729" 
d="M4 405l-14 3c-7 7 -7 25 3 29c37 -2 68 -3 93 -3c40 0 66 1 95 3c8 -3 9 -23 2 -29l-10 -2c-13 -3 -19 -5 -19 -11c0 -7 12 -32 34 -77c35 -71 62 -126 107 -210c7 12 20 35 32 60l10 21c5 10 9 19 9 22c0 4 -2 12 -7 22c-21 44 -43 87 -65 131c-17 33 -26 37 -43 41
l-14 3c-7 6 -6 26 3 29c36 -2 58 -3 85 -3c29 0 52 1 84 3c10 -5 10 -23 3 -29l-14 -4c-7 -2 -12 -6 -12 -11s2 -11 9 -26l11 -24l24 -49l25 50c13 26 22 43 22 50c0 4 -4 8 -12 10l-18 4c-9 7 -8 25 2 29c32 -2 48 -3 66 -3c19 0 42 1 64 3c11 -4 12 -23 5 -29l-16 -4
c-22 -5 -35 -12 -57 -46c-17 -26 -35 -58 -46 -79c-5 -9 -10 -21 -10 -25c0 -3 0 -8 5 -18l35 -75c13 -28 20 -40 26 -53c33 74 80 184 101 237c9 23 17 40 17 46s-6 11 -12 13l-14 4c-7 6 -7 25 3 29c33 -2 51 -3 73 -3c18 0 39 1 69 3c10 -4 11 -22 2 -29l-19 -4
c-38 -8 -54 -37 -77 -84c-48 -100 -77 -168 -123 -272c-12 -26 -21 -47 -24 -55c-7 -4 -14 -7 -23 -7c-10 0 -17 3 -23 7c-13 32 -67 144 -82 171c-27 -47 -63 -121 -85 -171c-7 -4 -14 -7 -23 -7c-10 0 -17 3 -23 7c-11 31 -39 85 -50 107c-44 87 -87 175 -133 263
c-14 27 -25 36 -51 42z" />
    <glyph glyph-name="Xsmall" unicode="&#xf778;" horiz-adv-x="539" 
d="M507 30l22 -4c8 -5 8 -25 -1 -29c-43 2 -73 3 -114 3c-37 0 -74 -1 -114 -3c-9 3 -14 22 -3 29l21 3c9 1 18 6 18 12c0 4 -2 10 -17 30c-13 18 -63 90 -75 103c-12 -15 -66 -95 -78 -117c-4 -6 -6 -12 -6 -15c0 -7 6 -11 17 -13l18 -3c9 -6 8 -26 -2 -29
c-38 2 -60 3 -86 3c-30 0 -57 -1 -89 -3c-9 3 -11 24 -2 29l18 3c37 6 59 22 82 49c21 23 55 66 88 114c6 9 12 16 12 20s-4 11 -10 19c-24 35 -75 101 -103 137c-18 24 -34 29 -66 36l-18 4c-8 7 -7 27 4 29c25 -2 68 -3 110 -3c59 0 86 1 111 3c10 -4 10 -23 3 -29l-9 -2
c-13 -3 -24 -6 -24 -13c0 -6 5 -15 12 -25c24 -32 44 -58 61 -81c24 31 43 59 57 79c5 8 15 23 15 28c0 4 -5 7 -18 10l-18 4c-7 5 -7 27 5 29c32 -2 60 -3 85 -3c27 0 51 1 78 3c10 -4 10 -23 3 -29l-24 -4c-24 -4 -40 -15 -53 -28c-16 -16 -57 -59 -89 -101
c-8 -11 -13 -18 -13 -22s3 -11 10 -21c55 -78 90 -126 113 -156c25 -33 47 -42 69 -46z" />
    <glyph glyph-name="Ysmall" unicode="&#xf779;" horiz-adv-x="461" 
d="M324 29l24 -3c8 -6 6 -25 -1 -29c-40 2 -78 3 -116 3c-40 0 -78 -1 -119 -3c-7 4 -9 23 -1 29l25 3c37 4 40 18 40 84v20c0 24 -9 48 -27 81l-76 135c-24 42 -32 52 -62 57l-12 2c-7 6 -7 25 3 29c37 -2 68 -3 98 -3c38 0 75 1 110 3c10 -4 10 -23 3 -29l-11 -2
c-20 -4 -28 -7 -28 -13s4 -17 14 -37c23 -46 52 -97 72 -135c18 30 37 65 66 119c17 31 25 47 25 52c0 7 -5 10 -21 13l-16 3c-10 8 -10 24 0 29c38 -2 58 -3 82 -3s48 1 76 3c8 -7 8 -22 2 -29l-18 -4c-34 -8 -45 -17 -80 -73l-54 -86c-23 -36 -38 -71 -38 -92v-40
c0 -66 3 -79 40 -84z" />
    <glyph glyph-name="Zsmall" unicode="&#xf77a;" horiz-adv-x="488" 
d="M264 396h-58c-57 0 -86 -7 -100 -25c-8 -11 -17 -28 -28 -49c-7 -3 -22 -1 -28 5c14 52 22 88 27 124c5 5 18 5 22 0c2 -15 22 -17 53 -17h221c38 0 64 1 79 3c5 -4 6 -11 5 -16c-15 -15 -52 -61 -77 -95l-143 -198c-28 -38 -48 -69 -48 -79c0 -6 4 -8 22 -9
c14 -1 39 -2 73 -2c76 0 107 4 129 18c13 9 27 31 39 67c8 7 25 5 28 -5c-9 -57 -21 -104 -32 -121c-36 2 -86 3 -154 3h-186c-33 0 -58 -1 -73 -3c-5 4 -6 13 -4 17c16 15 50 57 68 83l184 266c7 11 13 22 13 25c0 6 -11 8 -32 8z" />
    <glyph glyph-name="colonmonetary" unicode="&#x20a1;" horiz-adv-x="604" 
d="M380 588l-139 -499c16 -16 35 -26 55 -32l144 521c-17 6 -39 11 -60 10zM211 121l129 467c-97 -14 -176 -101 -179 -276c-1 -83 20 -150 50 -191zM474 560l-143 -516c11 -3 24 -4 38 -4c104 0 150 71 178 130c7 8 19 4 24 -4c-11 -59 -33 -119 -45 -137
c-10 -1 -20 -5 -29 -8c-17 -6 -74 -21 -129 -21c-16 0 -32 1 -49 2l-20 -72c-10 -10 -30 -10 -38 0l22 78c-22 3 -42 9 -60 17l-26 -95c-7 -10 -30 -10 -39 0l31 111c-11 5 -22 12 -32 19c-68 48 -116 136 -114 244c2 120 48 193 114 247c47 38 112 66 193 71l20 71
c11 11 30 11 38 0l-19 -69c21 0 43 -2 63 -5l20 74c9 11 31 11 38 0l-22 -80c20 -3 39 -10 59 -13c0 -22 5 -75 12 -139c-5 -7 -20 -8 -25 -1c-10 38 -25 77 -60 100z" />
    <glyph glyph-name="rupiah" unicode="&#xf6dd;" horiz-adv-x="1040" 
d="M214 546v-198c0 -30 0 -32 46 -32c94 0 137 45 137 136c0 73 -46 140 -128 140c-52 0 -55 -3 -55 -46zM614 21v228c0 42 1 50 -23 66l-12 8c-2 5 -2 16 1 21c43 10 99 36 127 55c7 0 13 -4 15 -9c-3 -17 -5 -28 -5 -37c0 -5 3 -11 8 -12c12 6 67 40 118 40
c102 0 161 -76 161 -173c0 -128 -91 -221 -230 -221c-13 0 -34 2 -43 4c-8 -2 -14 -8 -14 -27v-97c0 -67 4 -77 37 -81l33 -4c7 -6 6 -25 -2 -29c-48 2 -85 3 -119 3c-31 0 -68 -1 -110 -3c-7 4 -8 23 -2 29l25 3c31 4 35 15 35 82v124c-9 -1 -23 -1 -40 -1
c-91 0 -139 39 -192 126c-26 42 -53 93 -81 137c-11 17 -28 26 -54 26c-32 0 -33 -1 -33 -21v-122c0 -98 9 -100 54 -107l20 -3c7 -6 6 -25 -2 -29c-42 2 -84 3 -126 3s-82 -1 -123 -3c-8 4 -9 23 -2 29l20 3c45 7 54 9 54 107v348c0 92 -1 100 -46 106l-24 3
c-7 6 -7 24 1 29c61 5 130 8 219 8c69 0 133 -6 181 -32c45 -24 76 -65 76 -136c0 -85 -71 -132 -117 -152c-4 -6 1 -15 6 -23c77 -122 119 -206 174 -250c10 -8 23 -13 35 -16zM717 245v-143c0 -29 10 -44 29 -60c13 -10 37 -17 52 -17c68 0 98 67 98 150
c0 88 -47 150 -118 150c-22 0 -39 -7 -51 -18c-7 -9 -10 -25 -10 -62z" />
    <glyph glyph-name="Tildesmall" unicode="&#xf6fe;" 
d="M163 609h55c24 0 44 2 58 13c11 8 19 19 24 31c5 2 19 1 23 -3c-7 -31 -28 -74 -42 -88c-17 -17 -29 -20 -53 -20h-61c-27 0 -48 -7 -59 -18c-10 -7 -21 -24 -30 -40c-9 -1 -18 0 -21 6c4 20 23 73 41 93c20 22 37 26 65 26z" />
    <glyph glyph-name="exclamdownsmall" unicode="&#xf7a1;" horiz-adv-x="210" 
d="M105 -14c-42 0 -65 6 -65 32c0 11 4 34 14 86l34 184c9 5 25 5 34 0l34 -184c10 -52 14 -75 14 -86c0 -26 -23 -32 -65 -32zM105 448c37 0 61 -27 61 -60c0 -35 -24 -62 -61 -62c-36 0 -60 27 -60 62c0 33 24 60 60 60z" />
    <glyph glyph-name="centoldstyle" unicode="&#xf7a2;" horiz-adv-x="430" 
d="M225 84l39 280h-4c-74 0 -108 -83 -108 -141c0 -65 27 -116 73 -139zM299 359l-39 -286c8 -1 15 -2 23 -2c46 0 79 15 106 53c10 0 21 -5 20 -15c-20 -42 -76 -91 -157 -93l-11 -82c-6 -11 -31 -11 -37 0l12 85c-103 11 -166 82 -166 177c0 131 96 200 219 204l10 73
c9 10 32 10 36 0l-10 -74c28 0 56 -5 74 -13c8 -6 19 -24 19 -49c0 -23 -12 -42 -22 -42c-5 0 -10 2 -12 5c-11 17 -44 56 -65 59z" />
    <glyph glyph-name="Lslashsmall" unicode="&#xf6f9;" horiz-adv-x="458" 
d="M315 279l-102 -60v-93c0 -31 2 -61 12 -73c8 -8 24 -15 79 -15c76 0 92 5 122 77c8 5 22 4 28 -4c-4 -37 -17 -89 -29 -114c-55 2 -116 3 -165 3h-100c-40 0 -78 -1 -114 -3c-7 4 -9 23 -1 29l20 2c37 4 40 19 40 85v43l-70 -41c-9 4 -17 22 -14 36l84 49v121
c0 66 -3 79 -40 84l-23 3c-8 6 -6 25 1 29c39 -2 77 -3 117 -3c38 0 76 1 112 3c7 -4 9 -23 1 -29l-20 -2c-37 -4 -40 -19 -40 -85v-58l88 52c11 -4 19 -21 14 -36z" />
    <glyph glyph-name="Scaronsmall" unicode="&#xf6fd;" horiz-adv-x="419" 
d="M238 448c48 0 81 -11 107 -18c8 -21 15 -61 17 -102c-6 -9 -21 -11 -28 -4c-19 58 -54 86 -102 86c-42 0 -69 -25 -69 -60c0 -40 37 -61 80 -79c68 -28 133 -67 133 -152c1 -91 -83 -133 -180 -133c-58 0 -105 14 -132 36c-15 28 -20 71 -18 113c5 8 21 11 28 2
c18 -61 63 -113 130 -113c40 0 70 23 70 60c0 47 -35 75 -83 95c-64 26 -125 67 -125 139c0 83 71 130 172 130zM200 514l-103 183c1 11 11 18 22 18l77 -81c13 -14 23 -22 28 -23c5 1 13 12 29 28l76 78c10 1 20 -6 22 -16l-107 -187c-7 -12 -16 -14 -23 -14
c-4 0 -14 2 -21 14z" />
    <glyph glyph-name="Zcaronsmall" unicode="&#xf6ff;" horiz-adv-x="488" 
d="M264 396h-58c-57 0 -86 -7 -100 -25c-8 -11 -17 -28 -28 -49c-7 -3 -22 -1 -28 5c14 52 22 88 27 124c5 5 18 5 22 0c2 -15 22 -17 53 -17h221c38 0 64 1 79 3c5 -4 6 -11 5 -16c-15 -15 -52 -61 -77 -95l-143 -198c-28 -38 -48 -69 -48 -79c0 -6 4 -8 22 -9
c14 -1 39 -2 73 -2c76 0 107 4 129 18c13 9 27 31 39 67c8 7 25 5 28 -5c-9 -57 -21 -104 -32 -121c-36 2 -86 3 -154 3h-186c-33 0 -58 -1 -73 -3c-5 4 -6 13 -4 17c16 15 50 57 68 83l184 266c7 11 13 22 13 25c0 6 -11 8 -32 8zM246 514l-103 183c1 11 11 18 22 18
l77 -81c13 -14 23 -22 28 -23c5 1 13 12 29 28l76 78c10 1 20 -6 22 -16l-107 -187c-7 -12 -16 -14 -23 -14c-4 0 -14 2 -21 14z" />
    <glyph glyph-name="Dieresissmall" unicode="&#xf7a8;" 
d="M99 521c-33 0 -56 18 -57 54c0 33 23 58 57 58c31 0 54 -26 54 -54c0 -35 -23 -58 -54 -58zM284 521c-33 0 -56 18 -57 54c0 33 23 58 57 58c32 0 54 -26 54 -54c0 -35 -22 -58 -54 -58z" />
    <glyph glyph-name="Brevesmall" unicode="&#xf6f4;" 
d="M190 507c-71 0 -117 48 -112 145c6 5 17 5 24 0c13 -48 50 -76 88 -76c39 0 75 28 88 76c7 5 18 5 24 0c4 -97 -47 -145 -112 -145z" />
    <glyph glyph-name="Caronsmall" unicode="&#xf6f5;" 
d="M167 514l-104 183c1 11 11 18 22 18l77 -81c13 -14 23 -22 29 -23c4 1 12 12 28 28l76 78c10 1 20 -6 22 -16l-106 -187c-7 -12 -17 -14 -24 -14c-4 0 -13 2 -20 14z" />
    <glyph glyph-name="Dotaccentsmall" unicode="&#xf6f7;" 
d="M191 517c-35 0 -60 20 -61 59c0 36 25 62 61 62c35 0 60 -28 60 -58c0 -38 -25 -63 -60 -63z" />
    <glyph glyph-name="Macronsmall" unicode="&#xf7af;" 
d="M308 536h-235c-10 13 -10 51 0 63h235c10 -12 10 -50 0 -63z" />
    <glyph glyph-name="figuredash" unicode="&#x2012;" horiz-adv-x="510" 
d="M473 285h-436v61h436v-61z" />
    <glyph glyph-name="hypheninferior" unicode="&#xf6e5;" horiz-adv-x="290" 
d="M250 7h-209c-15 11 -15 50 0 58h209c14 -8 14 -47 0 -58z" />
    <glyph glyph-name="Ogoneksmall" unicode="&#xf6fb;" 
d="M213 10h41c-50 -46 -82 -94 -82 -133c0 -32 20 -53 56 -53c18 0 30 3 43 13c7 -2 9 -8 9 -15c-22 -34 -58 -47 -92 -47c-64 0 -84 41 -84 78c0 47 38 102 109 157z" />
    <glyph glyph-name="Ringsmall" unicode="&#xf6fc;" 
d="M97 573c0 47 36 93 93 93s93 -46 93 -93c0 -49 -36 -95 -93 -95s-93 46 -93 95zM146 573c0 -35 16 -61 44 -61s44 26 44 61c0 33 -16 59 -44 59s-44 -26 -44 -59z" />
    <glyph glyph-name="Cedillasmall" unicode="&#xf7b8;" 
d="M211 0h40l-34 -45c-8 -10 -5 -12 8 -19c32 -17 52 -38 52 -71c0 -48 -51 -80 -106 -80c-39 0 -63 14 -63 38c0 15 10 28 27 28c22 0 37 -32 55 -32c10 0 23 10 23 29c0 24 -33 47 -64 60l-3 6z" />
    <glyph glyph-name="questiondownsmall" unicode="&#xf7bf;" horiz-adv-x="281" 
d="M189 -14c-62 0 -149 53 -149 153c0 37 19 58 51 70l52 20c20 8 32 14 32 28s-3 22 -7 33c2 11 18 12 24 6c13 -16 37 -54 37 -82c0 -39 -25 -55 -60 -67l-46 -16c-24 -8 -38 -14 -38 -24c0 -23 24 -35 111 -35c14 0 45 -8 45 -41c0 -24 -15 -45 -52 -45zM167 448
c37 0 61 -27 61 -60c0 -35 -24 -62 -61 -62c-36 0 -60 27 -60 62c0 33 24 60 60 60z" />
    <glyph glyph-name="oneeighth" unicode="&#x215b;" horiz-adv-x="860" 
d="M660 393c82 0 133 -40 133 -101c0 -38 -36 -67 -74 -81c46 -25 86 -59 86 -113c0 -59 -48 -105 -155 -105c-75 0 -144 34 -144 101c0 46 37 80 84 95c-43 20 -72 54 -72 94c0 64 52 110 142 110zM624 170c-23 -20 -33 -46 -33 -75c0 -37 24 -72 69 -72c28 0 53 20 53 53
c0 46 -42 76 -89 94zM656 363c-27 0 -53 -22 -53 -54c0 -31 24 -55 84 -80c19 17 29 44 29 71c0 38 -25 63 -60 63zM125 337v186c0 29 0 51 -31 54l-30 3c-8 3 -9 21 -2 25c53 7 133 27 148 34c4 1 9 0 10 -3c-1 -22 -2 -66 -2 -105v-194c0 -54 3 -62 38 -65l24 -2
c7 -5 6 -21 -1 -25c-27 1 -72 2 -107 2c-36 0 -81 -1 -108 -2c-7 4 -8 20 -1 25l20 2c39 4 42 11 42 65zM633 628c-139 -223 -277 -445 -414 -668c-20 -1 -36 11 -41 26c139 223 277 445 414 668c17 3 39 -9 41 -26z" />
    <glyph glyph-name="threeeighths" unicode="&#x215c;" horiz-adv-x="860" 
d="M664 393c82 0 133 -40 133 -101c0 -38 -36 -67 -74 -81c46 -25 86 -59 86 -113c0 -59 -48 -105 -155 -105c-75 0 -144 34 -144 101c0 46 37 80 84 95c-43 20 -72 54 -72 94c0 64 52 110 142 110zM628 170c-23 -20 -33 -46 -33 -75c0 -37 24 -72 69 -72c28 0 53 20 53 53
c0 46 -42 76 -89 94zM660 363c-27 0 -53 -22 -53 -54c0 -31 24 -55 84 -80c19 17 29 44 29 71c0 38 -25 63 -60 63zM103 208c-32 0 -70 11 -70 47c0 14 11 37 38 37c24 0 36 -23 43 -33c8 -11 16 -16 31 -16c31 0 85 39 85 109c0 50 -29 90 -72 90c-28 0 -49 -12 -66 -27
c-11 6 -19 21 -14 31c40 16 130 45 130 102c0 27 -19 50 -50 50c-28 0 -57 -19 -79 -54c-10 -3 -19 4 -20 14c26 53 78 82 136 82c67 0 106 -33 106 -75c0 -22 -11 -48 -78 -76c-7 -3 0 -9 8 -9c52 -1 104 -34 104 -99c0 -41 -24 -87 -79 -124c-54 -36 -116 -49 -153 -49z
M641 628c-139 -223 -277 -445 -414 -668c-20 -1 -36 11 -41 26c139 223 277 445 414 668c17 3 39 -9 41 -26z" />
    <glyph glyph-name="fiveeighths" unicode="&#x215d;" horiz-adv-x="860" 
d="M664 393c82 0 133 -40 133 -101c0 -38 -36 -67 -74 -81c46 -25 86 -59 86 -113c0 -59 -48 -105 -155 -105c-75 0 -144 34 -144 101c0 46 37 80 84 95c-43 20 -72 54 -72 94c0 64 52 110 142 110zM628 170c-23 -20 -33 -46 -33 -75c0 -37 24 -72 69 -72c28 0 53 20 53 53
c0 46 -42 76 -89 94zM660 363c-27 0 -53 -22 -53 -54c0 -31 24 -55 84 -80c19 17 29 44 29 71c0 38 -25 63 -60 63zM59 465l40 141c4 13 10 15 29 17l173 20c5 -1 9 -4 10 -9c-7 -22 -22 -46 -39 -64l-149 -16c-8 -1 -12 -6 -14 -15l-2 -8c-4 -15 3 -18 12 -18
c33 -1 92 -9 133 -27c40 -18 74 -53 74 -106c0 -124 -153 -167 -268 -170c-11 4 -16 24 -5 31c69 2 184 29 186 108c3 86 -99 92 -160 96c-20 1 -24 7 -20 20zM637 628c-139 -223 -277 -445 -414 -668c-20 -1 -36 11 -41 26c139 223 277 445 414 668c17 3 39 -9 41 -26z" />
    <glyph glyph-name="seveneighths" unicode="&#x215e;" horiz-adv-x="860" 
d="M659 393c82 0 133 -40 133 -101c0 -38 -36 -67 -74 -81c46 -25 86 -59 86 -113c0 -59 -48 -105 -155 -105c-75 0 -144 34 -144 101c0 46 37 80 84 95c-43 20 -72 54 -72 94c0 64 52 110 142 110zM623 170c-23 -20 -33 -46 -33 -75c0 -37 24 -72 69 -72c28 0 53 20 53 53
c0 46 -42 76 -89 94zM655 363c-27 0 -53 -22 -53 -54c0 -31 24 -55 84 -80c19 17 29 44 29 71c0 38 -25 63 -60 63zM154 633h129c42 0 88 0 97 2c4 -1 7 -5 6 -10c-16 -23 -39 -56 -66 -101l-191 -312c-16 -2 -32 5 -31 19l177 291c9 15 14 26 14 34c0 7 -7 9 -18 9h-116
c-45 0 -59 -1 -75 -34c-5 -7 -21 -4 -23 4c13 38 23 77 27 100c14 -1 34 -2 70 -2zM621 628c-139 -223 -277 -445 -414 -668c-20 -1 -36 11 -41 26c139 223 277 445 414 668c17 3 39 -9 41 -26z" />
    <glyph glyph-name="onethird" unicode="&#x2153;" horiz-adv-x="860" 
d="M121 337v186c0 29 0 51 -31 54l-30 3c-8 3 -9 21 -2 25c53 7 133 27 148 34c4 1 9 0 10 -3c-1 -22 -2 -66 -2 -105v-194c0 -54 3 -62 38 -65l24 -2c7 -5 6 -21 -1 -25c-27 1 -72 2 -107 2c-36 0 -81 -1 -108 -2c-7 4 -8 20 -1 25l20 2c39 4 42 11 42 65zM650 628
c-139 -223 -277 -445 -414 -668c-20 -1 -36 11 -41 26c139 223 277 445 414 668c17 3 39 -9 41 -26zM580 -39c-32 0 -70 11 -70 47c0 14 11 37 38 37c24 0 36 -23 43 -33c8 -11 16 -16 31 -16c31 0 85 39 85 109c0 50 -29 90 -72 90c-28 0 -49 -12 -66 -27
c-11 6 -19 21 -14 31c40 16 130 45 130 102c0 27 -19 50 -50 50c-28 0 -57 -19 -79 -54c-10 -3 -19 4 -20 14c26 53 78 82 136 82c67 0 106 -33 106 -75c0 -22 -11 -48 -78 -76c-7 -3 0 -9 8 -9c52 -1 104 -34 104 -99c0 -41 -24 -87 -79 -124c-54 -36 -116 -49 -153 -49z
" />
    <glyph glyph-name="twothirds" unicode="&#x2154;" horiz-adv-x="860" 
d="M183 315h68c38 0 61 3 79 34c8 4 18 2 23 -4c-8 -32 -25 -79 -37 -100c-26 1 -67 2 -102 2h-102c-36 0 -55 -1 -67 -2c-5 4 -7 10 -5 16c26 21 47 40 99 92c42 41 84 99 84 162c0 43 -28 74 -66 74c-37 0 -64 -22 -85 -62c-10 -4 -23 3 -23 14c33 68 87 99 147 99
c84 0 130 -47 130 -111c0 -49 -32 -90 -102 -147l-28 -23c-26 -21 -33 -28 -33 -33s3 -11 20 -11zM680 628c-139 -223 -277 -445 -414 -668c-20 -1 -36 11 -41 26c139 223 277 445 414 668c17 3 39 -9 41 -26zM595 -39c-32 0 -70 11 -70 47c0 14 11 37 38 37
c24 0 36 -23 43 -33c8 -11 16 -16 31 -16c31 0 85 39 85 109c0 50 -29 90 -72 90c-28 0 -49 -12 -66 -27c-11 6 -19 21 -14 31c40 16 130 45 130 102c0 27 -19 50 -50 50c-28 0 -57 -19 -79 -54c-10 -3 -19 4 -20 14c26 53 78 82 136 82c67 0 106 -33 106 -75
c0 -22 -11 -48 -78 -76c-7 -3 0 -9 8 -9c52 -1 104 -34 104 -99c0 -41 -24 -87 -79 -124c-54 -36 -116 -49 -153 -49z" />
    <glyph glyph-name="zerosuperior" unicode="&#x2070;" 
d="M190 708c107 0 154 -105 154 -199c0 -100 -47 -201 -154 -201s-154 101 -154 201c0 94 47 199 154 199zM135 509c0 -54 7 -171 55 -171c49 0 55 117 55 171c0 53 -6 169 -55 169c-48 0 -55 -116 -55 -169z" />
    <glyph glyph-name="foursuperior" unicode="&#x2074;" 
d="M183 429h-149c-5 4 -9 11 -7 19l207 280c6 8 11 13 20 13h26c11 0 15 -4 5 -17l-194 -248c-7 -9 -7 -14 6 -14h86c13 0 14 2 14 18v84c0 13 8 18 18 21c19 7 52 19 63 19c7 0 12 -4 12 -10v-114c0 -16 1 -18 15 -18h46c10 -5 10 -28 0 -33h-46c-14 0 -15 -2 -15 -18v-6
c0 -54 3 -59 38 -65l12 -2c7 -5 6 -21 -1 -25c-25 1 -60 2 -95 2c-36 0 -76 -1 -108 -2c-7 4 -8 20 -1 25l20 2c39 4 42 11 42 65v6c0 16 -1 18 -14 18z" />
    <glyph glyph-name="fivesuperior" unicode="&#x2075;" 
d="M63 533l40 141c4 13 10 15 29 17l173 20c5 -1 9 -4 10 -9c-7 -22 -22 -46 -39 -64l-149 -16c-8 -1 -12 -6 -14 -15l-2 -8c-4 -15 3 -18 12 -18c33 -1 92 -9 133 -27c40 -18 74 -53 74 -106c0 -124 -153 -167 -268 -170c-11 4 -16 24 -5 31c69 2 184 29 186 108
c3 86 -99 92 -160 96c-20 1 -24 7 -20 20z" />
    <glyph glyph-name="sixsuperior" unicode="&#x2076;" 
d="M134 478c0 -66 21 -140 71 -140c41 0 52 39 52 71c0 43 -18 111 -70 111c-8 0 -17 -1 -23 -3c-5 3 -7 9 -5 14c14 13 41 28 72 28c77 0 118 -58 118 -115c0 -81 -61 -136 -156 -136c-103 0 -158 72 -158 158c0 73 31 134 84 182c50 45 134 81 214 83c7 -4 8 -16 3 -24
c-73 -17 -121 -47 -152 -84c-35 -40 -50 -88 -50 -145z" />
    <glyph glyph-name="sevensuperior" unicode="&#x2077;" 
d="M122 701h129c42 0 88 0 97 2c4 -1 7 -5 6 -10c-16 -23 -39 -56 -66 -101l-191 -312c-16 -2 -32 5 -31 19l177 291c9 15 14 26 14 34c0 7 -7 9 -18 9h-116c-45 0 -59 -1 -75 -34c-5 -7 -21 -4 -23 4c13 38 23 77 27 100c14 -1 34 -2 70 -2z" />
    <glyph glyph-name="eightsuperior" unicode="&#x2078;" 
d="M195 708c82 0 133 -40 133 -101c0 -38 -36 -67 -74 -81c46 -25 86 -59 86 -113c0 -59 -48 -105 -155 -105c-75 0 -144 34 -144 101c0 46 37 80 84 95c-43 20 -72 54 -72 94c0 64 52 110 142 110zM159 485c-23 -20 -33 -46 -33 -75c0 -37 24 -72 69 -72c28 0 53 20 53 53
c0 46 -42 76 -89 94zM191 678c-27 0 -53 -22 -53 -54c0 -31 24 -55 84 -80c19 17 29 44 29 71c0 38 -25 63 -60 63z" />
    <glyph glyph-name="ninesuperior" unicode="&#x2079;" 
d="M54 280c-9 5 -10 19 -4 25c129 30 194 127 194 240c0 46 -15 133 -67 133c-34 0 -51 -33 -51 -76c0 -59 27 -103 68 -103c8 0 12 1 18 2c4 -4 5 -9 4 -15c-11 -13 -38 -24 -65 -24c-65 0 -117 41 -117 111c0 77 67 135 153 135c99 0 156 -72 156 -167
c0 -67 -31 -129 -89 -177c-56 -46 -146 -83 -200 -84z" />
    <glyph glyph-name="zeroinferior" unicode="&#x2080;" 
d="M190 229c107 0 154 -105 154 -199c0 -100 -47 -201 -154 -201s-154 101 -154 201c0 94 47 199 154 199zM135 30c0 -54 7 -171 55 -171c49 0 55 117 55 171c0 53 -6 169 -55 169c-48 0 -55 -116 -55 -169z" />
    <glyph glyph-name="oneinferior" unicode="&#x2081;" 
d="M148 -74v186c0 29 0 51 -31 54l-30 3c-8 3 -9 21 -2 25c53 7 133 27 148 34c4 1 9 0 10 -3c-1 -22 -2 -66 -2 -105v-194c0 -54 3 -62 38 -65l24 -2c7 -5 6 -21 -1 -25c-27 1 -72 2 -107 2c-36 0 -81 -1 -108 -2c-7 4 -8 20 -1 25l20 2c39 4 42 11 42 65z" />
    <glyph glyph-name="twoinferior" unicode="&#x2082;" 
d="M183 -96h68c38 0 61 3 79 34c8 4 18 2 23 -4c-8 -32 -25 -79 -37 -100c-26 1 -67 2 -102 2h-102c-36 0 -55 -1 -67 -2c-5 4 -7 10 -5 16c26 21 47 40 99 92c42 41 84 99 84 162c0 43 -28 74 -66 74c-37 0 -64 -22 -85 -62c-10 -4 -23 3 -23 14c33 68 87 99 147 99
c84 0 130 -47 130 -111c0 -49 -32 -90 -102 -147l-28 -23c-26 -21 -33 -28 -33 -33s3 -11 20 -11z" />
    <glyph glyph-name="threeinferior" unicode="&#x2083;" 
d="M105 -203c-32 0 -70 11 -70 47c0 14 11 37 38 37c24 0 36 -23 43 -33c8 -11 16 -16 31 -16c31 0 85 39 85 109c0 50 -29 90 -72 90c-28 0 -49 -12 -66 -27c-11 6 -19 21 -14 31c40 16 130 45 130 102c0 27 -19 50 -50 50c-28 0 -57 -19 -79 -54c-10 -3 -19 4 -20 14
c26 53 78 82 136 82c67 0 106 -33 106 -75c0 -22 -11 -48 -78 -76c-7 -3 0 -9 8 -9c52 -1 104 -34 104 -99c0 -41 -24 -87 -79 -124c-54 -36 -116 -49 -153 -49z" />
    <glyph glyph-name="fourinferior" unicode="&#x2084;" 
d="M183 -50h-149c-5 4 -9 11 -7 19l207 280c6 8 11 13 20 13h26c11 0 15 -4 5 -17l-194 -248c-7 -9 -7 -14 6 -14h86c13 0 14 2 14 18v84c0 13 8 18 18 21c19 7 52 19 63 19c7 0 12 -4 12 -10v-114c0 -16 1 -18 15 -18h46c10 -5 10 -28 0 -33h-46c-14 0 -15 -2 -15 -18v-6
c0 -54 3 -59 38 -65l12 -2c7 -5 6 -21 -1 -25c-25 1 -60 2 -95 2c-36 0 -76 -1 -108 -2c-7 4 -8 20 -1 25l20 2c39 4 42 11 42 65v6c0 16 -1 18 -14 18z" />
    <glyph glyph-name="fiveinferior" unicode="&#x2085;" 
d="M63 54l40 141c4 13 10 15 29 17l173 20c5 -1 9 -4 10 -9c-7 -22 -22 -46 -39 -64l-149 -16c-8 -1 -12 -6 -14 -15l-2 -8c-4 -15 3 -18 12 -18c33 -1 92 -9 133 -27c40 -18 74 -53 74 -106c0 -124 -153 -167 -268 -170c-11 4 -16 24 -5 31c69 2 184 29 186 108
c3 86 -99 92 -160 96c-20 1 -24 7 -20 20z" />
    <glyph glyph-name="sixinferior" unicode="&#x2086;" 
d="M134 -1c0 -66 21 -140 71 -140c41 0 52 39 52 71c0 43 -18 111 -70 111c-8 0 -17 -1 -23 -3c-5 3 -7 9 -5 14c14 13 41 28 72 28c77 0 118 -58 118 -115c0 -81 -61 -136 -156 -136c-103 0 -158 72 -158 158c0 73 31 134 84 182c50 45 134 81 214 83c7 -4 8 -16 3 -24
c-73 -17 -121 -47 -152 -84c-35 -40 -50 -88 -50 -145z" />
    <glyph glyph-name="seveninferior" unicode="&#x2087;" 
d="M122 222h129c42 0 88 0 97 2c4 -1 7 -5 6 -10c-16 -23 -39 -56 -66 -101l-191 -312c-16 -2 -32 5 -31 19l177 291c9 15 14 26 14 34c0 7 -7 9 -18 9h-116c-45 0 -59 -1 -75 -34c-5 -7 -21 -4 -23 4c13 38 23 77 27 100c14 -1 34 -2 70 -2z" />
    <glyph glyph-name="eightinferior" unicode="&#x2088;" 
d="M195 229c82 0 133 -40 133 -101c0 -38 -36 -67 -74 -81c46 -25 86 -59 86 -113c0 -59 -48 -105 -155 -105c-75 0 -144 34 -144 101c0 46 37 80 84 95c-43 20 -72 54 -72 94c0 64 52 110 142 110zM159 6c-23 -20 -33 -46 -33 -75c0 -37 24 -72 69 -72c28 0 53 20 53 53
c0 46 -42 76 -89 94zM191 199c-27 0 -53 -22 -53 -54c0 -31 24 -55 84 -80c19 17 29 44 29 71c0 38 -25 63 -60 63z" />
    <glyph glyph-name="nineinferior" unicode="&#x2089;" 
d="M54 -199c-9 5 -10 19 -4 25c129 30 194 127 194 240c0 46 -15 133 -67 133c-34 0 -51 -33 -51 -76c0 -59 27 -103 68 -103c8 0 12 1 18 2c4 -4 5 -9 4 -15c-11 -13 -38 -24 -65 -24c-65 0 -117 41 -117 111c0 77 67 135 153 135c99 0 156 -72 156 -167
c0 -67 -31 -129 -89 -177c-56 -46 -146 -83 -200 -84z" />
    <glyph glyph-name="centinferior" unicode="&#xf6df;" 
d="M196 -90l43 260h-5c-69 0 -104 -73 -104 -132c0 -60 24 -108 66 -128zM271 162l-43 -263c9 -2 17 -3 26 -3c35 0 73 17 99 52c8 0 18 -5 18 -16c-23 -40 -69 -84 -152 -85l-11 -66c-7 -8 -28 -8 -33 0l11 69c-93 11 -150 80 -150 165c0 123 97 185 208 188l10 61
c7 9 27 9 34 0l-10 -62c21 -1 46 -5 64 -11c8 -6 15 -21 15 -40c0 -25 -10 -42 -19 -42c-5 0 -8 2 -10 4c-11 14 -29 35 -46 45c-4 2 -9 4 -11 4z" />
    <glyph glyph-name="dollarinferior" unicode="&#xf6e3;" 
d="M208 -12l-20 -124c49 1 72 27 72 59c0 30 -14 48 -52 65zM176 0l-20 7c-56 20 -102 49 -102 107c0 71 56 114 158 115l7 47c6 9 28 9 34 0l-7 -50c25 -2 52 -7 71 -13c5 -17 11 -47 11 -87c-4 -8 -19 -9 -26 -2c-8 24 -27 54 -62 66l-19 -121l16 -5
c62 -19 102 -60 102 -116c0 -70 -57 -115 -156 -117l-9 -57c-5 -9 -27 -9 -34 0l9 58c-42 4 -78 18 -89 26c-12 12 -20 55 -20 95c5 8 20 9 25 2c8 -30 39 -76 90 -88zM189 81l18 115h-5c-45 0 -73 -23 -73 -57c0 -26 18 -43 60 -58z" />
    <glyph glyph-name="periodinferior" unicode="&#xf6e7;" horiz-adv-x="184" 
d="M92 -171c-31 0 -60 22 -60 59c0 35 26 63 60 63c36 0 60 -29 60 -63c0 -35 -24 -59 -60 -59z" />
    <glyph glyph-name="commainferior" unicode="&#xf6e1;" horiz-adv-x="184" 
d="M86 -38c36 1 75 -34 75 -88c0 -77 -54 -116 -125 -132c-13 3 -18 17 -9 28c31 7 78 28 78 63c0 38 -49 49 -54 52c-14 5 -19 17 -19 31c0 25 19 46 54 46z" />
    <glyph glyph-name="Agravesmall" unicode="&#xf7e0;" horiz-adv-x="490" 
d="M259 143h-94c-20 0 -21 0 -29 -21l-18 -48c-13 -35 -10 -42 11 -45l24 -3c7 -6 4 -25 -4 -29c-33 2 -58 3 -85 3c-29 0 -55 -1 -69 -3c-10 4 -11 25 -3 29l18 3c36 6 39 16 71 89l97 224c12 28 16 42 14 55c25 7 60 36 66 47c4 2 4 2 10 2c4 0 8 -5 12 -13
c4 -9 11 -30 47 -118l96 -237c17 -41 24 -47 60 -51l10 -1c8 -5 7 -27 -3 -29c-30 2 -63 3 -103 3c-38 0 -68 -1 -100 -3c-10 3 -12 22 -3 29l17 4c18 4 24 8 17 27l-23 65c-7 21 -9 21 -36 21zM184 181h53c31 0 34 1 25 23c-18 43 -37 93 -47 116c-16 -36 -26 -61 -49 -121
c-6 -16 -8 -18 18 -18zM265 496l-139 116c-15 13 -25 23 -25 36c0 9 6 21 24 38c11 10 23 15 36 15c9 0 20 -8 34 -31l93 -157c-2 -13 -9 -18 -23 -17z" />
    <glyph glyph-name="Aacutesmall" unicode="&#xf7e1;" horiz-adv-x="490" 
d="M259 143h-94c-20 0 -21 0 -29 -21l-18 -48c-13 -35 -10 -42 11 -45l24 -3c7 -6 4 -25 -4 -29c-33 2 -58 3 -85 3c-29 0 -55 -1 -69 -3c-10 4 -11 25 -3 29l18 3c36 6 39 16 71 89l97 224c12 28 16 42 14 55c25 7 60 36 66 47c4 2 4 2 10 2c4 0 8 -5 12 -13
c4 -9 11 -30 47 -118l96 -237c17 -41 24 -47 60 -51l10 -1c8 -5 7 -27 -3 -29c-30 2 -63 3 -103 3c-38 0 -68 -1 -100 -3c-10 3 -12 22 -3 29l17 4c18 4 24 8 17 27l-23 65c-7 21 -9 21 -36 21zM184 181h53c31 0 34 1 25 23c-18 43 -37 93 -47 116c-16 -36 -26 -61 -49 -121
c-6 -16 -8 -18 18 -18zM357 612l-139 -116c-14 -3 -21 4 -23 17l92 157c14 24 26 31 36 31c12 0 23 -5 35 -15c18 -17 24 -29 24 -38c0 -13 -10 -23 -25 -36z" />
    <glyph glyph-name="Acircumflexsmall" unicode="&#xf7e2;" horiz-adv-x="490" 
d="M259 143h-94c-20 0 -21 0 -29 -21l-18 -48c-13 -35 -10 -42 11 -45l24 -3c7 -6 4 -25 -4 -29c-33 2 -58 3 -85 3c-29 0 -55 -1 -69 -3c-10 4 -11 25 -3 29l18 3c36 6 39 16 71 89l97 224c12 28 16 42 14 55c25 7 60 36 66 47c4 2 4 2 10 2c4 0 8 -5 12 -13
c4 -9 11 -30 47 -118l96 -237c17 -41 24 -47 60 -51l10 -1c8 -5 7 -27 -3 -29c-30 2 -63 3 -103 3c-38 0 -68 -1 -100 -3c-10 3 -12 22 -3 29l17 4c18 4 24 8 17 27l-23 65c-7 21 -9 21 -36 21zM184 181h53c31 0 34 1 25 23c-18 43 -37 93 -47 116c-16 -36 -26 -61 -49 -121
c-6 -16 -8 -18 18 -18zM269 688l103 -182c-1 -10 -12 -18 -22 -18l-77 80c-14 15 -23 22 -30 25c-4 -3 -12 -13 -27 -29l-76 -78c-10 -1 -20 5 -22 15l106 187c7 12 16 15 24 15c4 0 14 -2 21 -15z" />
    <glyph glyph-name="Atildesmall" unicode="&#xf7e3;" horiz-adv-x="490" 
d="M259 143h-94c-20 0 -21 0 -29 -21l-18 -48c-13 -35 -10 -42 11 -45l24 -3c7 -6 4 -25 -4 -29c-33 2 -58 3 -85 3c-29 0 -55 -1 -69 -3c-10 4 -11 25 -3 29l18 3c36 6 39 16 71 89l97 224c12 28 16 42 14 55c25 7 60 36 66 47c4 2 4 2 10 2c4 0 8 -5 12 -13
c4 -9 11 -30 47 -118l96 -237c17 -41 24 -47 60 -51l10 -1c8 -5 7 -27 -3 -29c-30 2 -63 3 -103 3c-38 0 -68 -1 -100 -3c-10 3 -12 22 -3 29l17 4c18 4 24 8 17 27l-23 65c-7 21 -9 21 -36 21zM184 181h53c31 0 34 1 25 23c-18 43 -37 93 -47 116c-16 -36 -26 -61 -49 -121
c-6 -16 -8 -18 18 -18zM221 609h55c24 0 44 2 58 13c11 8 19 19 24 31c5 2 19 1 23 -3c-7 -31 -28 -74 -42 -88c-17 -17 -29 -20 -53 -20h-61c-27 0 -48 -7 -59 -18c-10 -7 -21 -24 -30 -40c-9 -1 -18 0 -21 6c4 20 23 73 41 93c20 22 37 26 65 26z" />
    <glyph glyph-name="Adieresissmall" unicode="&#xf7e4;" horiz-adv-x="490" 
d="M259 143h-94c-20 0 -21 0 -29 -21l-18 -48c-13 -35 -10 -42 11 -45l24 -3c7 -6 4 -25 -4 -29c-33 2 -58 3 -85 3c-29 0 -55 -1 -69 -3c-10 4 -11 25 -3 29l18 3c36 6 39 16 71 89l97 224c12 28 16 42 14 55c25 7 60 36 66 47c4 2 4 2 10 2c4 0 8 -5 12 -13
c4 -9 11 -30 47 -118l96 -237c17 -41 24 -47 60 -51l10 -1c8 -5 7 -27 -3 -29c-30 2 -63 3 -103 3c-38 0 -68 -1 -100 -3c-10 3 -12 22 -3 29l17 4c18 4 24 8 17 27l-23 65c-7 21 -9 21 -36 21zM184 181h53c31 0 34 1 25 23c-18 43 -37 93 -47 116c-16 -36 -26 -61 -49 -121
c-6 -16 -8 -18 18 -18zM154 521c-33 0 -56 18 -57 54c0 32 23 57 57 57c30 0 54 -26 54 -53c0 -35 -24 -58 -54 -58zM339 521c-33 0 -56 18 -57 54c0 32 23 57 57 57c32 0 54 -26 54 -53c0 -35 -22 -58 -54 -58z" />
    <glyph glyph-name="Aringsmall" unicode="&#xf7e5;" horiz-adv-x="490" 
d="M259 143h-94c-20 0 -21 0 -29 -21l-18 -48c-13 -35 -10 -42 11 -45l24 -3c7 -6 4 -25 -4 -29c-33 2 -58 3 -85 3c-29 0 -55 -1 -69 -3c-10 4 -11 25 -3 29l18 3c36 6 39 16 71 89l97 224c12 28 16 42 14 55c25 7 60 36 66 47c4 2 4 2 10 2c4 0 8 -5 12 -13
c4 -9 11 -30 47 -118l96 -237c17 -41 24 -47 60 -51l10 -1c8 -5 7 -27 -3 -29c-30 2 -63 3 -103 3c-38 0 -68 -1 -100 -3c-10 3 -12 22 -3 29l17 4c18 4 24 8 17 27l-23 65c-7 21 -9 21 -36 21zM184 181h53c31 0 34 1 25 23c-18 43 -37 93 -47 116c-16 -36 -26 -61 -49 -121
c-6 -16 -8 -18 18 -18zM152 573c0 47 36 93 93 93s93 -46 93 -93c0 -49 -36 -95 -93 -95s-93 46 -93 95zM201 573c0 -35 16 -61 44 -61s44 26 44 61c0 33 -16 59 -44 59s-44 -26 -44 -59z" />
    <glyph glyph-name="AEsmall" unicode="&#xf7e6;" horiz-adv-x="662" 
d="M276 434h227c44 0 84 1 93 3c3 -12 8 -59 11 -104c-4 -8 -21 -9 -28 -3c-6 17 -12 32 -18 42c-12 20 -38 24 -87 24h-53c-25 0 -26 -3 -26 -51v-82c0 -17 1 -18 23 -18h37c55 0 64 1 72 31l6 24c6 6 23 5 28 -2c-1 -23 -3 -48 -3 -73c0 -27 2 -52 3 -75
c-5 -7 -22 -8 -28 -2l-6 24c-8 30 -17 31 -72 31h-37c-22 0 -23 -1 -23 -20v-62c0 -30 2 -57 11 -68c9 -10 32 -15 94 -15c81 0 98 21 121 74c7 3 21 3 28 -4c-9 -42 -21 -92 -30 -111c-63 2 -116 3 -170 3h-107c-40 0 -78 -1 -125 -3c-7 4 -9 23 -1 29l31 3
c37 4 40 18 40 84v66c0 24 -2 24 -28 24h-61c-26 0 -27 0 -34 -12c-31 -57 -54 -106 -67 -134c-4 -10 -6 -21 9 -24l39 -7c7 -6 8 -25 -1 -29c-35 2 -61 3 -92 3c-24 0 -44 -1 -82 -3c-8 7 -8 23 -3 29l28 6c15 3 33 11 46 33c65 113 131 232 172 315c4 9 6 16 -6 19l-39 9
c-8 5 -7 25 2 29c47 -2 75 -3 106 -3zM215 245h46c24 0 26 2 26 24v96c0 12 0 32 -3 37h-6c-5 -5 -9 -11 -23 -37l-51 -99c-10 -19 -10 -21 11 -21z" />
    <glyph glyph-name="Ccedillasmall" unicode="&#xf7e7;" horiz-adv-x="514" 
d="M230 -86l55 73c-55 3 -107 15 -153 45c-52 35 -94 98 -94 177c0 81 35 142 85 180c50 39 121 59 193 59c48 0 95 -8 121 -15c15 -4 22 -5 26 -5c1 -19 3 -58 11 -119c-5 -7 -23 -8 -28 -1c-13 52 -47 102 -133 102c-85 0 -154 -68 -154 -190c0 -130 73 -196 163 -196
c85 0 122 66 140 109c4 6 21 5 26 -2c-5 -55 -23 -105 -33 -120c-8 -1 -17 -4 -24 -6c-18 -5 -60 -17 -106 -18l-24 -32c-8 -10 -5 -12 8 -19c32 -17 52 -38 52 -71c0 -48 -51 -80 -106 -80c-39 0 -63 14 -63 38c0 15 10 28 27 28c22 0 37 -32 55 -32c10 0 23 10 23 29
c0 24 -33 47 -64 60z" />
    <glyph glyph-name="Egravesmall" unicode="&#xf7e8;" horiz-adv-x="474" 
d="M207 345v-82c0 -17 1 -18 23 -18h37c55 0 64 1 72 31l6 24c6 6 23 5 28 -2c-1 -23 -3 -48 -3 -73c0 -27 2 -52 3 -75c-5 -7 -22 -8 -28 -2l-6 24c-8 30 -17 31 -72 31h-37c-22 0 -23 -1 -23 -20v-62c0 -30 2 -57 11 -68c9 -10 32 -15 94 -15c81 0 98 21 121 74
c7 3 21 3 28 -4c-9 -42 -21 -92 -30 -111c-63 2 -116 3 -170 3h-107c-40 0 -78 -1 -125 -3c-7 4 -9 23 -1 29l31 3c37 4 40 18 40 84v208c0 66 -3 79 -40 85l-12 2c-8 6 -6 25 1 29c28 -2 66 -3 106 -3h161c44 0 84 1 93 3c3 -12 8 -59 11 -104c-4 -8 -21 -9 -28 -3
c-6 17 -12 32 -18 42c-12 20 -38 24 -87 24h-53c-25 0 -26 -3 -26 -51zM262 496l-139 116c-15 13 -25 23 -25 36c0 9 6 21 24 38c11 10 23 15 36 15c9 0 20 -8 34 -31l93 -157c-2 -13 -9 -18 -23 -17z" />
    <glyph glyph-name="Eacutesmall" unicode="&#xf7e9;" horiz-adv-x="474" 
d="M207 345v-82c0 -17 1 -18 23 -18h37c55 0 64 1 72 31l6 24c6 6 23 5 28 -2c-1 -23 -3 -48 -3 -73c0 -27 2 -52 3 -75c-5 -7 -22 -8 -28 -2l-6 24c-8 30 -17 31 -72 31h-37c-22 0 -23 -1 -23 -20v-62c0 -30 2 -57 11 -68c9 -10 32 -15 94 -15c81 0 98 21 121 74
c7 3 21 3 28 -4c-9 -42 -21 -92 -30 -111c-63 2 -116 3 -170 3h-107c-40 0 -78 -1 -125 -3c-7 4 -9 23 -1 29l31 3c37 4 40 18 40 84v208c0 66 -3 79 -40 85l-12 2c-8 6 -6 25 1 29c28 -2 66 -3 106 -3h161c44 0 84 1 93 3c3 -12 8 -59 11 -104c-4 -8 -21 -9 -28 -3
c-6 17 -12 32 -18 42c-12 20 -38 24 -87 24h-53c-25 0 -26 -3 -26 -51zM359 612l-139 -116c-14 -3 -21 4 -23 17l92 157c14 24 26 31 36 31c12 0 23 -5 35 -15c18 -17 24 -29 24 -38c0 -13 -10 -23 -25 -36z" />
    <glyph glyph-name="Ecircumflexsmall" unicode="&#xf7ea;" horiz-adv-x="474" 
d="M207 345v-82c0 -17 1 -18 23 -18h37c55 0 64 1 72 31l6 24c6 6 23 5 28 -2c-1 -23 -3 -48 -3 -73c0 -27 2 -52 3 -75c-5 -7 -22 -8 -28 -2l-6 24c-8 30 -17 31 -72 31h-37c-22 0 -23 -1 -23 -20v-62c0 -30 2 -57 11 -68c9 -10 32 -15 94 -15c81 0 98 21 121 74
c7 3 21 3 28 -4c-9 -42 -21 -92 -30 -111c-63 2 -116 3 -170 3h-107c-40 0 -78 -1 -125 -3c-7 4 -9 23 -1 29l31 3c37 4 40 18 40 84v208c0 66 -3 79 -40 85l-12 2c-8 6 -6 25 1 29c28 -2 66 -3 106 -3h161c44 0 84 1 93 3c3 -12 8 -59 11 -104c-4 -8 -21 -9 -28 -3
c-6 17 -12 32 -18 42c-12 20 -38 24 -87 24h-53c-25 0 -26 -3 -26 -51zM279 688l103 -182c-1 -10 -12 -18 -22 -18l-77 81c-14 14 -23 22 -30 24c-4 -2 -11 -13 -27 -29l-76 -78c-10 -1 -20 6 -22 15l106 187c7 13 16 15 24 15c4 0 13 -2 21 -15z" />
    <glyph glyph-name="Edieresissmall" unicode="&#xf7eb;" horiz-adv-x="474" 
d="M207 345v-82c0 -17 1 -18 23 -18h37c55 0 64 1 72 31l6 24c6 6 23 5 28 -2c-1 -23 -3 -48 -3 -73c0 -27 2 -52 3 -75c-5 -7 -22 -8 -28 -2l-6 24c-8 30 -17 31 -72 31h-37c-22 0 -23 -1 -23 -20v-62c0 -30 2 -57 11 -68c9 -10 32 -15 94 -15c81 0 98 21 121 74
c7 3 21 3 28 -4c-9 -42 -21 -92 -30 -111c-63 2 -116 3 -170 3h-107c-40 0 -78 -1 -125 -3c-7 4 -9 23 -1 29l31 3c37 4 40 18 40 84v208c0 66 -3 79 -40 85l-12 2c-8 6 -6 25 1 29c28 -2 66 -3 106 -3h161c44 0 84 1 93 3c3 -12 8 -59 11 -104c-4 -8 -21 -9 -28 -3
c-6 17 -12 32 -18 42c-12 20 -38 24 -87 24h-53c-25 0 -26 -3 -26 -51zM156 521c-33 0 -56 18 -57 54c0 32 23 57 57 57c30 0 54 -26 54 -53c0 -35 -24 -58 -54 -58zM321 521c-33 0 -56 18 -57 54c0 32 23 57 57 57c32 0 54 -26 54 -53c0 -35 -22 -58 -54 -58z" />
    <glyph glyph-name="Igravesmall" unicode="&#xf7ec;" horiz-adv-x="306" 
d="M207 321v-208c0 -66 3 -81 40 -85l20 -2c8 -6 6 -25 -1 -29c-36 2 -74 3 -112 3c-40 0 -78 -1 -114 -3c-7 4 -9 23 -1 29l20 2c37 4 40 19 40 85v208c0 66 -3 81 -40 85l-20 2c-8 6 -6 25 1 29c36 -2 74 -3 114 -3c38 0 76 1 112 3c7 -4 9 -23 1 -29l-20 -2
c-37 -4 -40 -19 -40 -85zM163 496l-139 116c-15 13 -25 23 -25 36c0 9 6 21 24 38c11 10 23 15 36 15c9 0 20 -8 34 -31l93 -157c-2 -13 -9 -18 -23 -17z" />
    <glyph glyph-name="Iacutesmall" unicode="&#xf7ed;" horiz-adv-x="306" 
d="M207 321v-208c0 -66 3 -81 40 -85l20 -2c8 -6 6 -25 -1 -29c-36 2 -74 3 -112 3c-40 0 -78 -1 -114 -3c-7 4 -9 23 -1 29l20 2c37 4 40 19 40 85v208c0 66 -3 81 -40 85l-20 2c-8 6 -6 25 1 29c36 -2 74 -3 114 -3c38 0 76 1 112 3c7 -4 9 -23 1 -29l-20 -2
c-37 -4 -40 -19 -40 -85zM265 612l-139 -116c-14 -3 -21 4 -23 17l92 157c14 24 26 31 36 31c12 0 23 -5 35 -15c18 -17 24 -29 24 -38c0 -13 -10 -23 -25 -36z" />
    <glyph glyph-name="Icircumflexsmall" unicode="&#xf7ee;" horiz-adv-x="306" 
d="M207 321v-208c0 -66 3 -81 40 -85l20 -2c8 -6 6 -25 -1 -29c-36 2 -74 3 -112 3c-40 0 -78 -1 -114 -3c-7 4 -9 23 -1 29l20 2c37 4 40 19 40 85v208c0 66 -3 81 -40 85l-20 2c-8 6 -6 25 1 29c36 -2 74 -3 114 -3c38 0 76 1 112 3c7 -4 9 -23 1 -29l-20 -2
c-37 -4 -40 -19 -40 -85zM183 688l103 -182c-1 -10 -12 -18 -22 -18l-77 81c-14 14 -23 22 -30 24c-4 -2 -11 -13 -27 -29l-76 -78c-10 -1 -20 6 -22 15l106 187c7 13 16 15 24 15c4 0 13 -2 21 -15z" />
    <glyph glyph-name="Idieresissmall" unicode="&#xf7ef;" horiz-adv-x="306" 
d="M207 321v-208c0 -66 3 -81 40 -85l20 -2c8 -6 6 -25 -1 -29c-36 2 -74 3 -112 3c-40 0 -78 -1 -114 -3c-7 4 -9 23 -1 29l20 2c37 4 40 19 40 85v208c0 66 -3 81 -40 85l-20 2c-8 6 -6 25 1 29c36 -2 74 -3 114 -3c38 0 76 1 112 3c7 -4 9 -23 1 -29l-20 -2
c-37 -4 -40 -19 -40 -85zM72 521c-35 0 -59 19 -60 57c0 33 24 60 60 60c32 0 57 -28 57 -56c0 -37 -25 -61 -57 -61zM237 521c-35 0 -59 19 -60 57c0 33 24 60 60 60c34 0 57 -28 57 -56c0 -37 -23 -61 -57 -61z" />
    <glyph glyph-name="Ethsmall" unicode="&#xf7f0;" horiz-adv-x="595" 
d="M105 113v92h-69c-9 8 -9 29 0 36h69v73c0 62 3 78 -38 86l-10 2c-8 3 -9 26 2 29c62 4 120 6 189 6c73 0 132 -9 174 -24c86 -31 135 -103 135 -198c0 -79 -41 -149 -116 -189c-45 -23 -101 -32 -173 -32c-48 0 -101 6 -128 6c-20 0 -58 -1 -94 -3c-7 4 -9 23 -1 29l20 2
c37 4 40 19 40 85zM213 205v-76c0 -60 3 -97 72 -97c106 0 151 85 151 189c0 109 -76 178 -169 178c-53 0 -54 -4 -54 -48v-110h88c7 -7 7 -28 0 -36h-88z" />
    <glyph glyph-name="Ntildesmall" unicode="&#xf7f1;" horiz-adv-x="566" 
d="M482 262v-150c0 -20 0 -101 2 -117c-3 -4 -14 -9 -19 -9c-3 0 -6 0 -10 1c-10 14 -28 36 -88 99l-152 162c-35 38 -60 66 -72 76c-2 -21 -2 -54 -2 -85v-67c0 -43 3 -76 4 -88c3 -39 10 -53 41 -56l23 -2c8 -6 8 -24 -2 -29c-34 2 -57 3 -86 3s-48 -1 -86 -3
c-9 4 -11 23 -2 29l23 3c28 4 34 18 37 54c1 13 3 46 3 89v135c0 57 -2 68 -12 80c-7 8 -36 16 -46 18l-9 3c-7 6 -5 26 3 29c38 -3 70 -3 98 -3c22 0 37 1 66 3c9 -23 29 -50 77 -102l91 -97c21 -22 60 -62 71 -71c2 8 2 16 2 38v57c0 43 -3 76 -4 88c-3 39 -10 52 -37 55
l-27 3c-8 6 -8 24 2 29c32 -2 55 -3 86 -3c29 0 48 1 86 3c9 -4 11 -23 2 -29l-23 -3c-28 -4 -35 -18 -37 -54c-1 -13 -3 -46 -3 -89zM275 609h55c24 0 44 2 58 13c11 8 19 19 24 31c5 2 19 1 23 -3c-7 -31 -28 -74 -42 -88c-17 -17 -29 -20 -53 -20h-61
c-27 0 -48 -7 -59 -18c-10 -7 -21 -24 -30 -40c-9 -1 -18 0 -21 6c4 20 23 73 41 93c20 22 37 26 65 26z" />
    <glyph glyph-name="Ogravesmall" unicode="&#xf7f2;" horiz-adv-x="579" 
d="M293 -14c-163 0 -255 100 -255 223c0 135 103 239 255 239c165 0 248 -108 248 -227c0 -138 -102 -235 -248 -235zM159 230c0 -102 40 -206 137 -206c69 0 124 51 124 173c0 116 -43 213 -137 213c-57 0 -124 -48 -124 -180zM300 496l-139 116c-15 13 -25 23 -25 36
c0 9 6 21 24 38c11 10 23 15 36 15c9 0 20 -8 34 -31l93 -157c-2 -13 -9 -18 -23 -17z" />
    <glyph glyph-name="Oacutesmall" unicode="&#xf7f3;" horiz-adv-x="579" 
d="M293 -14c-163 0 -255 100 -255 223c0 135 103 239 255 239c165 0 248 -108 248 -227c0 -138 -102 -235 -248 -235zM159 230c0 -102 40 -206 137 -206c69 0 124 51 124 173c0 116 -43 213 -137 213c-57 0 -124 -48 -124 -180zM402 612l-139 -116c-14 -3 -21 4 -23 17
l92 157c14 24 26 31 36 31c12 0 23 -5 35 -15c18 -17 24 -29 24 -38c0 -13 -10 -23 -25 -36z" />
    <glyph glyph-name="Ocircumflexsmall" unicode="&#xf7f4;" horiz-adv-x="579" 
d="M293 -14c-163 0 -255 100 -255 223c0 135 103 239 255 239c165 0 248 -108 248 -227c0 -138 -102 -235 -248 -235zM159 230c0 -102 40 -206 137 -206c69 0 124 51 124 173c0 116 -43 213 -137 213c-57 0 -124 -48 -124 -180zM310 688l103 -182c-1 -10 -12 -18 -22 -18
l-78 79c-13 13 -22 18 -29 21c-4 -3 -12 -11 -26 -25l-77 -77c-10 -1 -20 5 -22 15l106 187c7 12 16 15 24 15c4 0 14 -2 21 -15z" />
    <glyph glyph-name="Otildesmall" unicode="&#xf7f5;" horiz-adv-x="579" 
d="M293 -14c-163 0 -255 100 -255 223c0 135 103 239 255 239c165 0 248 -108 248 -227c0 -138 -102 -235 -248 -235zM159 230c0 -102 40 -206 137 -206c69 0 124 51 124 173c0 116 -43 213 -137 213c-57 0 -124 -48 -124 -180zM265 609h55c24 0 44 2 58 13
c11 8 19 19 24 31c5 2 19 1 23 -3c-7 -31 -28 -74 -42 -88c-17 -17 -29 -20 -53 -20h-61c-27 0 -48 -7 -59 -18c-10 -7 -21 -24 -30 -40c-9 -1 -18 0 -21 6c4 20 23 73 41 93c20 22 37 26 65 26z" />
    <glyph glyph-name="Odieresissmall" unicode="&#xf7f6;" horiz-adv-x="579" 
d="M293 -14c-163 0 -255 100 -255 223c0 135 103 239 255 239c165 0 248 -108 248 -227c0 -138 -102 -235 -248 -235zM159 230c0 -102 40 -206 137 -206c69 0 124 51 124 173c0 116 -43 213 -137 213c-57 0 -124 -48 -124 -180zM209 521c-31 0 -53 17 -54 51
c0 31 22 55 54 55c29 0 51 -25 51 -51c0 -33 -22 -55 -51 -55zM374 521c-31 0 -53 17 -54 51c0 31 22 55 54 55c30 0 51 -25 51 -51c0 -33 -21 -55 -51 -55z" />
    <glyph glyph-name="OEsmall" unicode="&#xf6fa;" horiz-adv-x="773" 
d="M479 434h135c44 0 84 1 93 3c3 -12 8 -59 11 -104c-4 -8 -21 -9 -28 -3c-6 17 -12 32 -18 42c-12 20 -38 24 -87 24h-53c-25 0 -26 -3 -26 -51v-82c0 -17 1 -18 23 -18h37c55 0 64 1 72 31l6 24c6 6 23 5 28 -2c-1 -23 -3 -48 -3 -73c0 -27 2 -52 3 -75
c-5 -7 -22 -8 -28 -2l-6 24c-8 30 -17 31 -72 31h-37c-22 0 -23 -1 -23 -20v-62c0 -30 2 -57 11 -68c9 -10 32 -15 94 -15c81 0 98 21 121 74c7 3 21 3 28 -4c-9 -42 -21 -92 -30 -111c-63 2 -116 3 -170 3h-101c-26 0 -48 -1 -71 -3c-22 -1 -44 -3 -71 -3
c-195 0 -279 98 -279 215c0 126 96 231 288 231c52 0 100 -6 153 -6zM398 74v296c0 23 -36 31 -68 31c-120 0 -171 -84 -171 -183c0 -110 62 -186 171 -186c16 0 35 2 49 8c16 7 19 20 19 34z" />
    <glyph glyph-name="Oslashsmall" unicode="&#xf7f8;" horiz-adv-x="579" 
d="M180 113l198 247c-22 31 -53 50 -95 50c-57 0 -124 -48 -124 -180c0 -41 6 -82 21 -117zM398 322l-198 -247c22 -31 53 -51 96 -51c69 0 124 51 124 173c0 46 -7 89 -22 125zM498 447l-39 -49c55 -43 82 -108 82 -177c0 -138 -102 -235 -248 -235c-55 0 -101 11 -139 32
l-49 -61c-14 0 -27 12 -29 26l45 56c-55 41 -83 102 -83 170c0 135 103 239 255 239c53 0 98 -11 133 -29l43 54c14 -1 29 -11 29 -26z" />
    <glyph glyph-name="Ugravesmall" unicode="&#xf7f9;" horiz-adv-x="558" 
d="M51 406l-20 2c-8 6 -6 25 1 29c36 -2 74 -3 114 -3c38 0 76 1 112 3c7 -4 9 -23 1 -29l-20 -2c-37 -4 -40 -19 -40 -85v-141c0 -90 33 -154 114 -154c86 0 119 61 119 153v83c0 43 -3 76 -4 88c-3 39 -10 52 -37 55l-27 3c-8 6 -8 24 2 29c34 -2 57 -3 86 -3s48 1 86 3
c9 -4 11 -23 2 -29l-23 -3c-28 -4 -35 -18 -37 -54c-1 -13 -3 -46 -3 -89v-88c0 -64 -17 -115 -49 -145s-85 -45 -138 -45c-57 0 -112 9 -143 35c-36 29 -56 75 -56 150v152c0 66 -3 81 -40 85zM329 496l-139 116c-15 13 -25 23 -25 36c0 9 6 21 24 38c11 10 23 15 36 15
c9 0 20 -8 34 -31l93 -157c-2 -13 -9 -18 -23 -17z" />
    <glyph glyph-name="Uacutesmall" unicode="&#xf7fa;" horiz-adv-x="558" 
d="M51 406l-20 2c-8 6 -6 25 1 29c36 -2 74 -3 114 -3c38 0 76 1 112 3c7 -4 9 -23 1 -29l-20 -2c-37 -4 -40 -19 -40 -85v-141c0 -90 33 -154 114 -154c86 0 119 61 119 153v83c0 43 -3 76 -4 88c-3 39 -10 52 -37 55l-27 3c-8 6 -8 24 2 29c34 -2 57 -3 86 -3s48 1 86 3
c9 -4 11 -23 2 -29l-23 -3c-28 -4 -35 -18 -37 -54c-1 -13 -3 -46 -3 -89v-88c0 -64 -17 -115 -49 -145s-85 -45 -138 -45c-57 0 -112 9 -143 35c-36 29 -56 75 -56 150v152c0 66 -3 81 -40 85zM415 612l-139 -116c-14 -3 -21 4 -23 17l92 157c14 24 26 31 36 31
c12 0 23 -5 35 -15c18 -17 24 -29 24 -38c0 -13 -10 -23 -25 -36z" />
    <glyph glyph-name="Ucircumflexsmall" unicode="&#xf7fb;" horiz-adv-x="558" 
d="M51 406l-20 2c-8 6 -6 25 1 29c36 -2 74 -3 114 -3c38 0 76 1 112 3c7 -4 9 -23 1 -29l-20 -2c-37 -4 -40 -19 -40 -85v-141c0 -90 33 -154 114 -154c86 0 119 61 119 153v83c0 43 -3 76 -4 88c-3 39 -10 52 -37 55l-27 3c-8 6 -8 24 2 29c34 -2 57 -3 86 -3s48 1 86 3
c9 -4 11 -23 2 -29l-23 -3c-28 -4 -35 -18 -37 -54c-1 -13 -3 -46 -3 -89v-88c0 -64 -17 -115 -49 -145s-85 -45 -138 -45c-57 0 -112 9 -143 35c-36 29 -56 75 -56 150v152c0 66 -3 81 -40 85zM317 688l103 -182c-1 -10 -12 -18 -22 -18l-77 81c-14 14 -23 22 -30 24
c-4 -2 -11 -13 -27 -29l-76 -78c-10 -1 -20 6 -22 15l106 187c7 13 16 15 24 15c4 0 13 -2 21 -15z" />
    <glyph glyph-name="Udieresissmall" unicode="&#xf7fc;" horiz-adv-x="558" 
d="M51 406l-20 2c-8 6 -6 25 1 29c36 -2 74 -3 114 -3c38 0 76 1 112 3c7 -4 9 -23 1 -29l-20 -2c-37 -4 -40 -19 -40 -85v-141c0 -90 33 -154 114 -154c86 0 119 61 119 153v83c0 43 -3 76 -4 88c-3 39 -10 52 -37 55l-27 3c-8 6 -8 24 2 29c34 -2 57 -3 86 -3s48 1 86 3
c9 -4 11 -23 2 -29l-23 -3c-28 -4 -35 -18 -37 -54c-1 -13 -3 -46 -3 -89v-88c0 -64 -17 -115 -49 -145s-85 -45 -138 -45c-57 0 -112 9 -143 35c-36 29 -56 75 -56 150v152c0 66 -3 81 -40 85zM201 521c-33 0 -56 18 -57 54c0 32 23 57 57 57c30 0 54 -26 54 -53
c0 -35 -24 -58 -54 -58zM390 521c-33 0 -56 18 -57 54c0 32 23 57 57 57c32 0 54 -26 54 -53c0 -35 -22 -58 -54 -58z" />
    <glyph glyph-name="Yacutesmall" unicode="&#xf7fd;" horiz-adv-x="461" 
d="M324 29l24 -3c8 -6 6 -25 -1 -29c-40 2 -78 3 -116 3c-40 0 -78 -1 -119 -3c-7 4 -9 23 -1 29l25 3c37 4 40 18 40 84v20c0 24 -9 48 -27 81l-76 135c-24 42 -32 52 -62 57l-12 2c-7 6 -7 25 3 29c37 -2 68 -3 98 -3c38 0 75 1 110 3c10 -4 10 -23 3 -29l-11 -2
c-20 -4 -28 -7 -28 -13s4 -17 14 -37c23 -46 52 -97 72 -135c18 30 37 65 66 119c17 31 25 47 25 52c0 7 -5 10 -21 13l-16 3c-10 8 -10 24 0 29c38 -2 58 -3 82 -3s48 1 76 3c8 -7 8 -22 2 -29l-18 -4c-34 -8 -45 -17 -80 -73l-54 -86c-23 -36 -38 -71 -38 -92v-40
c0 -66 3 -79 40 -84zM363 612l-139 -116c-14 -3 -21 4 -23 17l92 157c14 24 26 31 36 31c12 0 23 -5 35 -15c18 -17 24 -29 24 -38c0 -13 -10 -23 -25 -36z" />
    <glyph glyph-name="Thornsmall" unicode="&#xf7fe;" horiz-adv-x="486" 
d="M99 113v208c0 66 -3 81 -40 85l-20 2c-8 6 -6 25 1 29c38 -2 76 -3 116 -3c38 0 76 1 112 3c7 -4 9 -23 1 -29l-21 -3c-11 -2 -25 -5 -32 -13c-7 -10 -9 -30 -9 -48h82c44 0 76 -6 99 -15c27 -10 71 -38 71 -102c0 -52 -34 -79 -62 -93c-33 -17 -100 -23 -131 -22
c-5 5 -5 16 -2 21c41 10 80 28 80 90c0 52 -42 83 -92 83c-43 0 -45 -6 -45 -38v-155c0 -66 3 -81 40 -85l20 -2c8 -6 6 -25 -1 -29c-36 2 -74 3 -112 3c-40 0 -78 -1 -114 -3c-7 4 -9 23 -1 29l20 2c37 4 40 19 40 85z" />
    <glyph glyph-name="Ydieresissmall" unicode="&#xf7ff;" horiz-adv-x="461" 
d="M324 29l24 -3c8 -6 6 -25 -1 -29c-40 2 -78 3 -116 3c-40 0 -78 -1 -119 -3c-7 4 -9 23 -1 29l25 3c37 4 40 18 40 84v20c0 24 -9 48 -27 81l-76 135c-24 42 -32 52 -62 57l-12 2c-7 6 -7 25 3 29c37 -2 68 -3 98 -3c38 0 75 1 110 3c10 -4 10 -23 3 -29l-11 -2
c-20 -4 -28 -7 -28 -13s4 -17 14 -37c23 -46 52 -97 72 -135c18 30 37 65 66 119c17 31 25 47 25 52c0 7 -5 10 -21 13l-16 3c-10 8 -10 24 0 29c38 -2 58 -3 82 -3s48 1 76 3c8 -7 8 -22 2 -29l-18 -4c-34 -8 -45 -17 -80 -73l-54 -86c-23 -36 -38 -71 -38 -92v-40
c0 -66 3 -79 40 -84zM156 521c-33 0 -56 18 -57 54c0 32 23 57 57 57c30 0 54 -26 54 -53c0 -35 -24 -58 -54 -58zM341 521c-33 0 -56 18 -57 54c0 32 23 57 57 57c32 0 54 -26 54 -53c0 -35 -22 -58 -54 -58z" />
    <glyph glyph-name="commaaccent" unicode="&#xf6c3;" horiz-adv-x="250" 
d="M189 -125c0 -77 -55 -119 -116 -137c-12 4 -15 19 -9 30c28 9 70 39 70 73s-39 46 -47 50c-12 6 -18 16 -18 30c0 25 18 44 50 44c31 0 70 -29 70 -90z" />
    <glyph glyph-name="Abreve" unicode="&#x102;" horiz-adv-x="627" 
d="M341 245h-133c-26 0 -25 0 -34 -27l-41 -120c-20 -59 -16 -61 21 -67l29 -5c7 -7 6 -25 -2 -29c-32 2 -65 2 -106 3c-33 0 -64 -1 -99 -3c-7 5 -8 20 -1 29l30 5c29 5 40 13 55 46c12 26 28 68 49 122l137 356c12 32 22 56 19 73c35 7 68 48 70 48c8 0 13 -3 17 -8
c16 -45 29 -92 45 -137l144 -419c23 -67 28 -73 79 -83l15 -3c8 -7 8 -24 1 -29c-41 2 -78 3 -130 3c-43 0 -87 -2 -122 -3c-8 5 -9 23 -3 29l22 3c36 5 41 11 26 53l-47 136c-9 27 -13 27 -41 27zM224 290h104c28 0 32 2 24 26l-42 120c-18 53 -23 72 -28 79h-2
c-4 -7 -13 -32 -30 -79l-42 -117c-10 -29 -8 -29 16 -29zM320 715c-96 0 -130 57 -130 133c7 6 21 10 28 5c16 -42 45 -70 102 -70c62 0 84 28 99 70c7 5 24 3 31 -5c0 -76 -40 -133 -130 -133z" />
    <glyph glyph-name="Amacron" unicode="&#x100;" horiz-adv-x="627" 
d="M341 245h-133c-26 0 -25 0 -34 -27l-41 -120c-20 -59 -16 -61 21 -67l29 -5c7 -7 6 -25 -2 -29c-32 2 -65 2 -106 3c-33 0 -64 -1 -99 -3c-7 5 -8 20 -1 29l30 5c29 5 40 13 55 46c12 26 28 68 49 122l137 356c12 32 22 56 19 73c35 7 68 48 70 48c8 0 13 -3 17 -8
c16 -45 29 -92 45 -137l144 -419c23 -67 28 -73 79 -83l15 -3c8 -7 8 -24 1 -29c-41 2 -78 3 -130 3c-43 0 -87 -2 -122 -3c-8 5 -9 23 -3 29l22 3c36 5 41 11 26 53l-47 136c-9 27 -13 27 -41 27zM224 290h104c28 0 32 2 24 26l-42 120c-18 53 -23 72 -28 79h-2
c-4 -7 -13 -32 -30 -79l-42 -117c-10 -29 -8 -29 16 -29zM449 736h-257c-12 15 -12 55 0 69h257c13 -14 13 -54 0 -69z" />
    <glyph glyph-name="Aogonek" unicode="&#x104;" horiz-adv-x="627" 
d="M224 290h104c28 0 32 2 24 26l-42 120c-18 53 -23 72 -28 79h-2c-4 -7 -13 -32 -30 -79l-42 -117c-10 -29 -8 -29 16 -29zM341 245h-133c-26 0 -25 0 -34 -27l-41 -120c-20 -59 -16 -61 21 -67l29 -5c7 -7 6 -25 -2 -29c-32 2 -65 2 -106 3c-33 0 -64 -1 -99 -3
c-7 5 -8 20 -1 29l30 5c29 5 40 13 55 46c12 26 28 68 49 122l137 356c12 32 22 56 19 73c35 7 68 48 70 48c8 0 13 -3 17 -8c16 -45 29 -92 45 -137l144 -419c23 -67 28 -73 79 -83l15 -3c8 -7 8 -24 1 -29c-41 2 -78 3 -120 3c-34 -42 -46 -86 -46 -120
c0 -28 20 -53 51 -53c18 0 30 3 43 11c7 -2 9 -8 9 -15c-22 -34 -58 -47 -100 -47c-60 0 -81 41 -81 83c0 39 33 89 80 140c-64 -1 -77 -2 -88 -2c-8 5 -9 23 -3 29l22 3c36 5 41 11 26 53l-47 136c-9 27 -13 27 -41 27z" />
    <glyph glyph-name="Cacute" unicode="&#x106;" horiz-adv-x="694" 
d="M645 648c2 -23 4 -82 14 -156c-7 -8 -25 -9 -32 -2c-17 63 -62 146 -194 146c-127 0 -255 -90 -255 -295c0 -213 133 -317 262 -317c126 0 181 84 209 149c9 9 25 5 30 -4c-7 -67 -34 -133 -48 -152c-12 -2 -24 -6 -35 -9c-22 -7 -91 -24 -156 -24c-99 0 -184 20 -256 67
c-81 53 -142 144 -142 275c0 117 52 208 126 265c74 56 175 85 276 85c57 0 126 -10 173 -22c12 -3 19 -4 28 -6zM556 773l-194 -67c-8 2 -15 18 -13 28l162 118c15 11 24 16 31 16c10 0 20 -7 33 -28c10 -17 16 -37 14 -43c-4 -8 -14 -17 -33 -24z" />
    <glyph glyph-name="Ccaron" unicode="&#x10c;" horiz-adv-x="694" 
d="M645 648c2 -23 4 -82 14 -156c-7 -8 -25 -9 -32 -2c-17 63 -62 146 -194 146c-127 0 -255 -90 -255 -295c0 -213 133 -317 262 -317c126 0 181 84 209 149c9 9 25 5 30 -4c-7 -67 -34 -133 -48 -152c-12 -2 -24 -6 -35 -9c-22 -7 -91 -24 -156 -24c-99 0 -184 20 -256 67
c-81 53 -142 144 -142 275c0 117 52 208 126 265c74 56 175 85 276 85c57 0 126 -10 173 -22c12 -3 19 -4 28 -6zM584 848l-136 -127c-16 -15 -31 -14 -46 0l-138 127c0 10 9 24 18 24l125 -64c9 -6 24 -7 34 0l127 64c6 -1 16 -14 16 -24z" />
    <glyph glyph-name="Dcaron" unicode="&#x10e;" horiz-adv-x="784" 
d="M119 144v366c0 96 -1 110 -48 114l-21 2c-7 5 -7 23 1 28c72 6 152 9 250 9c95 0 163 -8 236 -34c120 -44 205 -150 205 -299c0 -111 -55 -225 -179 -288c-71 -36 -157 -48 -248 -48c-61 0 -108 6 -145 6c-38 0 -83 -1 -127 -3c-8 4 -9 22 -2 29l22 3c47 6 56 9 56 115z
M235 535v-352c0 -97 7 -149 113 -149c178 0 258 126 258 295c0 198 -115 294 -282 294c-42 0 -74 -8 -81 -14s-8 -27 -8 -74zM508 848l-136 -127c-16 -15 -31 -14 -47 0l-137 127c0 10 9 24 17 24l126 -64c9 -6 24 -7 34 0l126 64c7 -1 17 -14 17 -24z" />
    <glyph glyph-name="Dcroat" unicode="&#x110;" horiz-adv-x="790" 
d="M125 144v178h-89c-8 10 -8 34 0 45h89v143c0 96 -1 110 -48 114l-21 2c-7 5 -7 23 1 28c72 6 152 9 250 9c95 0 163 -8 236 -34c120 -44 205 -150 205 -299c0 -111 -55 -225 -179 -288c-71 -36 -157 -48 -248 -48c-61 0 -108 6 -145 6c-38 0 -83 -1 -127 -3
c-8 4 -9 22 -2 29l22 3c47 6 56 9 56 115zM241 535v-168h139c8 -11 8 -35 0 -45h-139v-139c0 -97 7 -149 113 -149c178 0 258 126 258 295c0 198 -115 294 -282 294c-42 0 -74 -8 -81 -14s-8 -27 -8 -74z" />
    <glyph glyph-name="Ecaron" unicode="&#x11a;" horiz-adv-x="580" 
d="M119 144v372c0 106 -9 110 -56 116l-16 2c-7 7 -6 25 2 29c38 -2 85 -3 129 -3h191c64 0 122 1 135 3c4 -17 10 -96 16 -139c-4 -8 -24 -10 -32 -4c-16 58 -31 82 -63 91c-23 6 -53 9 -80 9h-67c-43 0 -43 -2 -43 -59v-169c0 -26 1 -27 24 -27h48c87 0 102 1 111 44l7 34
c8 7 27 7 32 -1c-1 -27 -3 -63 -3 -100c0 -38 2 -73 3 -105c-5 -7 -24 -7 -32 -1l-7 40c-7 42 -24 44 -111 44h-48c-23 0 -24 -2 -24 -27v-127c0 -51 2 -87 17 -104c12 -14 29 -21 113 -22c127 -1 149 27 184 108c9 7 26 4 32 -6c-6 -42 -28 -118 -42 -145
c-44 2 -130 3 -247 3h-114c-44 0 -105 -1 -150 -3c-8 4 -9 22 -2 29l37 4c47 5 56 8 56 114zM467 848l-136 -127c-16 -15 -31 -14 -46 0l-138 127c0 10 9 24 18 24l125 -64c9 -6 24 -7 34 0l127 64c6 -1 16 -14 16 -24z" />
    <glyph glyph-name="Edotaccent" unicode="&#x116;" horiz-adv-x="580" 
d="M119 144v372c0 106 -9 110 -56 116l-16 2c-7 7 -6 25 2 29c38 -2 85 -3 129 -3h191c64 0 122 1 135 3c4 -17 10 -96 16 -139c-4 -8 -24 -10 -32 -4c-16 58 -31 82 -63 91c-23 6 -53 9 -80 9h-67c-43 0 -43 -2 -43 -59v-169c0 -26 1 -27 24 -27h48c87 0 102 1 111 44l7 34
c8 7 27 7 32 -1c-1 -27 -3 -63 -3 -100c0 -38 2 -73 3 -105c-5 -7 -24 -7 -32 -1l-7 40c-7 42 -24 44 -111 44h-48c-23 0 -24 -2 -24 -27v-127c0 -51 2 -87 17 -104c12 -14 29 -21 113 -22c127 -1 149 27 184 108c9 7 26 4 32 -6c-6 -42 -28 -118 -42 -145
c-44 2 -130 3 -247 3h-114c-44 0 -105 -1 -150 -3c-8 4 -9 22 -2 29l37 4c47 5 56 8 56 114zM316 705c-35 0 -59 19 -60 58c0 35 24 62 60 62c35 0 59 -28 59 -58c0 -38 -24 -62 -59 -62z" />
    <glyph glyph-name="Emacron" unicode="&#x112;" horiz-adv-x="580" 
d="M119 144v372c0 106 -9 110 -56 116l-16 2c-7 7 -6 25 2 29c38 -2 85 -3 129 -3h191c64 0 122 1 135 3c4 -17 10 -96 16 -139c-4 -8 -24 -10 -32 -4c-16 58 -31 82 -63 91c-23 6 -53 9 -80 9h-67c-43 0 -43 -2 -43 -59v-169c0 -26 1 -27 24 -27h48c87 0 102 1 111 44l7 34
c8 7 27 7 32 -1c-1 -27 -3 -63 -3 -100c0 -38 2 -73 3 -105c-5 -7 -24 -7 -32 -1l-7 40c-7 42 -24 44 -111 44h-48c-23 0 -24 -2 -24 -27v-127c0 -51 2 -87 17 -104c12 -14 29 -21 113 -22c127 -1 149 27 184 108c9 7 26 4 32 -6c-6 -42 -28 -118 -42 -145
c-44 2 -130 3 -247 3h-114c-44 0 -105 -1 -150 -3c-8 4 -9 22 -2 29l37 4c47 5 56 8 56 114zM435 741h-257c-12 15 -12 55 0 69h257c13 -14 13 -54 0 -69z" />
    <glyph glyph-name="Eogonek" unicode="&#x118;" horiz-adv-x="580" 
d="M292 0h-114c-44 0 -105 -1 -150 -3c-8 4 -9 22 -2 29l37 4c47 5 56 8 56 114v372c0 106 -9 110 -56 116l-16 2c-7 7 -6 25 2 29c19 -1 40 -2 62 -2c22 -1 45 -1 67 -1h191c64 0 122 1 135 3c4 -17 10 -96 16 -139c-4 -8 -24 -10 -32 -4c-16 58 -31 82 -63 91
c-23 6 -53 9 -80 9h-67c-43 0 -43 -2 -43 -59v-169c0 -26 1 -27 24 -27h48c87 0 102 1 111 44l7 34c8 7 27 7 32 -1c-1 -27 -3 -63 -3 -100c0 -38 2 -73 3 -105c-5 -7 -24 -7 -32 -1l-7 40c-7 42 -24 44 -111 44h-48c-23 0 -24 -2 -24 -27v-127c0 -51 2 -87 17 -104
c12 -14 29 -21 113 -22c127 -1 149 27 184 108c9 7 26 4 32 -6c-6 -42 -28 -118 -42 -145h-22c-38 -41 -55 -84 -55 -120c0 -32 20 -53 46 -53c18 0 30 3 43 13c7 -2 9 -8 9 -15c-22 -37 -58 -50 -92 -50c-64 0 -84 41 -84 81c0 44 33 95 91 145c-10 1 -20 1 -37 1
c-37 1 -87 1 -146 1z" />
    <glyph glyph-name="Gbreve" unicode="&#x11e;" horiz-adv-x="743" 
d="M657 162v-58c0 -35 5 -61 24 -70c3 -4 3 -12 -1 -15c-11 0 -29 -4 -48 -8c-62 -15 -137 -27 -194 -27c-120 0 -233 32 -308 110c-59 61 -88 145 -88 229s29 170 92 235c71 75 180 118 319 118c47 0 98 -8 133 -15c23 -5 52 -9 64 -9c1 -30 8 -81 13 -159
c-5 -10 -27 -11 -32 -2c-22 97 -93 145 -192 145c-176 0 -261 -127 -261 -297c0 -80 18 -166 72 -230s134 -85 193 -85c48 0 77 8 89 23c6 9 9 27 9 63v36c0 71 -1 77 -68 88l-36 6c-7 7 -7 24 1 29c39 -2 87 -3 156 -3c45 0 79 1 122 3c10 -5 11 -22 2 -29l-18 -3
c-37 -6 -43 -14 -43 -75zM430 720c-96 0 -130 57 -130 133c7 6 21 10 28 5c16 -42 45 -70 102 -70c62 0 84 28 99 70c7 5 24 3 31 -5c0 -76 -40 -133 -130 -133z" />
    <glyph glyph-name="Gcommaaccent" unicode="&#x122;" horiz-adv-x="743" 
d="M657 162v-58c0 -35 5 -61 24 -70c3 -4 3 -12 -1 -15c-11 0 -29 -4 -48 -8c-62 -15 -137 -27 -194 -27c-120 0 -233 32 -308 110c-59 61 -88 145 -88 229s29 170 92 235c71 75 180 118 319 118c47 0 98 -8 133 -15c23 -5 52 -9 64 -9c1 -30 8 -81 13 -159
c-5 -10 -27 -11 -32 -2c-22 97 -93 145 -192 145c-176 0 -261 -127 -261 -297c0 -80 18 -166 72 -230s134 -85 193 -85c48 0 77 8 89 23c6 9 9 27 9 63v36c0 71 -1 77 -68 88l-36 6c-7 7 -7 24 1 29c39 -2 87 -3 156 -3c45 0 79 1 122 3c10 -5 11 -22 2 -29l-18 -3
c-37 -6 -43 -14 -43 -75zM491 -145c0 -77 -61 -119 -128 -137c-13 4 -17 19 -10 30c31 9 72 39 72 73s-38 46 -47 50c-13 6 -19 16 -19 30c0 25 19 44 55 44c34 0 77 -29 77 -90z" />
    <glyph glyph-name="Imacron" unicode="&#x12a;" horiz-adv-x="354" 
d="M235 516v-372c0 -106 9 -109 56 -115l22 -3c7 -7 6 -25 -2 -29c-44 2 -89 3 -133 3s-91 -1 -135 -3c-8 4 -9 22 -2 29l22 3c47 6 56 9 56 115v372c0 106 -9 109 -56 115l-22 3c-7 7 -6 25 2 29c44 -2 89 -3 135 -3c44 0 89 1 133 3c8 -4 9 -22 2 -29l-22 -3
c-47 -6 -56 -9 -56 -115zM312 741h-257c-12 15 -12 55 0 69h257c13 -14 13 -54 0 -69z" />
    <glyph glyph-name="Iogonek" unicode="&#x12e;" horiz-adv-x="354" 
d="M235 516v-372c0 -106 9 -109 56 -115l22 -3c7 -7 6 -25 -2 -29c-37 2 -74 3 -114 3c-16 -39 -21 -61 -21 -87c0 -50 34 -76 67 -76c12 0 30 5 43 10c5 -1 11 -8 9 -19c-30 -36 -73 -47 -106 -47c-55 0 -89 39 -89 91c0 40 29 85 58 128c-24 0 -71 -1 -115 -3
c-8 4 -9 22 -2 29l22 3c47 6 56 9 56 115v372c0 106 -9 109 -56 115l-22 3c-7 7 -6 25 2 29c44 -2 89 -3 135 -3c44 0 89 1 133 3c8 -4 9 -22 2 -29l-22 -3c-47 -6 -56 -9 -56 -115z" />
    <glyph glyph-name="Kcommaaccent" unicode="&#x136;" horiz-adv-x="684" 
d="M235 516v-111c0 -27 1 -45 17 -45c19 0 42 23 75 59l102 110c13 13 42 46 54 62c18 23 19 31 7 34l-31 9c-8 7 -6 21 2 29c42 -2 75 -3 112 -3c43 0 74 2 110 3c11 -3 13 -24 3 -29c-93 -13 -120 -37 -189 -104c-43 -43 -83 -84 -122 -123c-12 -12 -14 -18 -3 -33
c79 -104 174 -223 246 -307c21 -25 44 -34 74 -38l24 -3c7 -5 6 -26 -2 -29c-35 2 -75 3 -128 3c-49 0 -94 -1 -138 -3c-11 4 -11 24 -2 29l27 4c16 2 18 13 7 27c-42 52 -161 214 -198 252c-7 7 -15 15 -24 15c-25 0 -23 -24 -23 -53v-127c0 -106 9 -109 56 -115l25 -3
c7 -5 6 -25 -2 -29c-47 2 -92 3 -136 3s-91 -1 -127 -3c-8 4 -9 24 -2 29l14 2c47 7 56 10 56 116v372c0 106 -9 108 -56 115l-19 3c-7 7 -6 25 2 29c41 -2 86 -3 132 -3c44 0 89 1 128 3c8 -4 9 -24 2 -29l-17 -3c-47 -8 -56 -9 -56 -115zM419 -125
c0 -77 -60 -119 -128 -137c-13 4 -16 19 -9 30c30 9 72 39 72 73s-38 46 -47 50c-13 6 -20 16 -20 30c0 25 20 44 55 44c34 0 77 -29 77 -90z" />
    <glyph glyph-name="Lacute" unicode="&#x139;" horiz-adv-x="560" 
d="M235 516v-351c0 -50 2 -86 17 -103c12 -14 28 -22 108 -22c111 0 127 5 173 108c10 5 26 2 31 -6c-8 -42 -30 -118 -42 -145c-42 2 -128 3 -240 3h-104c-51 0 -101 -1 -143 -3c-8 4 -11 24 -2 29l30 5c47 8 56 9 56 113v372c0 104 -9 107 -56 114l-28 4c-7 5 -7 25 2 29
c50 -2 95 -3 141 -3c44 0 89 1 133 3c9 -4 10 -24 2 -29l-22 -4c-47 -8 -56 -10 -56 -114zM359 773l-194 -67c-8 2 -15 18 -13 28l162 118c15 11 24 16 31 16c10 0 20 -7 33 -28c10 -17 16 -37 14 -43c-4 -8 -14 -17 -33 -24z" />
    <glyph glyph-name="Lcaron" unicode="&#x13d;" horiz-adv-x="560" 
d="M235 516v-351c0 -50 2 -86 17 -103c12 -14 28 -22 108 -22c111 0 127 5 173 108c10 5 26 2 31 -6c-8 -42 -30 -118 -42 -145c-42 2 -128 3 -240 3h-104c-51 0 -101 -1 -143 -3c-8 4 -11 24 -2 29l30 5c47 8 56 9 56 113v372c0 104 -9 107 -56 114l-28 4c-7 5 -7 25 2 29
c50 -2 95 -3 141 -3c44 0 89 1 133 3c9 -4 10 -24 2 -29l-22 -4c-47 -8 -56 -10 -56 -114zM429 690c51 0 91 -43 91 -93c0 -72 -65 -122 -135 -138c-8 6 -10 20 -7 28c41 16 72 42 72 82c0 29 -24 44 -47 46c-14 2 -29 13 -29 33c0 15 12 42 55 42z" />
    </font>
</defs>
</svg>
